%FSTAX23Y23*%
%MOIN*%
%SFA1B1*%

%IPPOS*%
%AMD47*
4,1,8,0.033500,-0.022100,0.033500,0.022100,0.022100,0.033500,-0.022100,0.033500,-0.033500,0.022100,-0.033500,-0.022100,-0.022100,-0.033500,0.022100,-0.033500,0.033500,-0.022100,0.0*
1,1,0.022760,0.022100,-0.022100*
1,1,0.022760,0.022100,0.022100*
1,1,0.022760,-0.022100,0.022100*
1,1,0.022760,-0.022100,-0.022100*
%
%AMD48*
4,1,8,0.022100,0.033500,-0.022100,0.033500,-0.033500,0.022100,-0.033500,-0.022100,-0.022100,-0.033500,0.022100,-0.033500,0.033500,-0.022100,0.033500,0.022100,0.022100,0.033500,0.0*
1,1,0.022760,0.022100,0.022100*
1,1,0.022760,-0.022100,0.022100*
1,1,0.022760,-0.022100,-0.022100*
1,1,0.022760,0.022100,-0.022100*
%
%AMD71*
4,1,8,-0.025600,-0.019700,0.025600,-0.019700,0.033500,-0.011800,0.033500,0.011800,0.025600,0.019700,-0.025600,0.019700,-0.033500,0.011800,-0.033500,-0.011800,-0.025600,-0.019700,0.0*
1,1,0.015880,-0.025600,-0.011800*
1,1,0.015880,0.025600,-0.011800*
1,1,0.015880,0.025600,0.011800*
1,1,0.015880,-0.025600,0.011800*
%
%AMD72*
4,1,8,-0.024600,-0.023700,0.024600,-0.023700,0.033500,-0.014800,0.033500,0.014800,0.024600,0.023700,-0.024600,0.023700,-0.033500,0.014800,-0.033500,-0.014800,-0.024600,-0.023700,0.0*
1,1,0.017840,-0.024600,-0.014800*
1,1,0.017840,0.024600,-0.014800*
1,1,0.017840,0.024600,0.014800*
1,1,0.017840,-0.024600,0.014800*
%
%AMD73*
4,1,8,-0.017800,0.042300,-0.017800,-0.042300,-0.006900,-0.053200,0.006900,-0.053200,0.017800,-0.042300,0.017800,0.042300,0.006900,0.053200,-0.006900,0.053200,-0.017800,0.042300,0.0*
1,1,0.021780,-0.006900,0.042300*
1,1,0.021780,-0.006900,-0.042300*
1,1,0.021780,0.006900,-0.042300*
1,1,0.021780,0.006900,0.042300*
%
%ADD45C,0.008000*%
%ADD46C,0.067060*%
G04~CAMADD=47~8~0.0~0.0~670.6~670.6~113.8~0.0~15~0.0~0.0~0.0~0.0~0~0.0~0.0~0.0~0.0~0~0.0~0.0~0.0~270.0~670.0~670.0*
%ADD47D47*%
G04~CAMADD=48~8~0.0~0.0~670.6~670.6~113.8~0.0~15~0.0~0.0~0.0~0.0~0~0.0~0.0~0.0~0.0~0~0.0~0.0~0.0~0.0~670.6~670.6*
%ADD48D48*%
%ADD49O,0.047370X0.086740*%
%ADD50C,0.015870*%
G04~CAMADD=71~8~0.0~0.0~670.6~395.0~79.4~0.0~15~0.0~0.0~0.0~0.0~0~0.0~0.0~0.0~0.0~0~0.0~0.0~0.0~180.0~670.0~394.0*
%ADD71D71*%
G04~CAMADD=72~8~0.0~0.0~670.6~473.7~89.2~0.0~15~0.0~0.0~0.0~0.0~0~0.0~0.0~0.0~0.0~0~0.0~0.0~0.0~180.0~671.0~474.0*
%ADD72D72*%
G04~CAMADD=73~8~0.0~0.0~1064.2~355.6~108.9~0.0~15~0.0~0.0~0.0~0.0~0~0.0~0.0~0.0~0.0~0~0.0~0.0~0.0~90.0~356.0~1064.0*
%ADD73D73*%
%LNcs_ranka-1*%
%LPD*%
G36*
X00254Y01385D02*
Y01291D01*
X00325*
Y01385*
X00254*
G37*
G36*
X00353D02*
Y01291D01*
X00424*
Y01385*
X00353*
G37*
G36*
X00574Y01305D02*
Y01352D01*
X00503*
Y01305*
X00574*
G37*
G54D45*
X00338Y-00037D03*
Y01484D03*
G54D46*
X00039Y01039D03*
Y00439D03*
Y00039D03*
Y00139D03*
Y00239D03*
Y00639D03*
Y00539D03*
Y00939D03*
Y00839D03*
Y01339D03*
Y00339D03*
Y00739D03*
Y01139D03*
X00639Y01039D03*
Y00439D03*
Y00039D03*
Y00139D03*
Y00239D03*
Y00639D03*
Y00539D03*
Y00939D03*
Y00839D03*
Y01239D03*
Y00339D03*
Y00739D03*
Y01139D03*
X00539D03*
X00439Y00039D03*
X00539D03*
X00139D03*
X00339D03*
X0046Y00903D03*
Y00981D03*
Y0106D03*
Y01139D03*
X00539Y0106D03*
Y00981D03*
Y01239D03*
X00139D03*
G54D47*
X00039Y01239D03*
X00639Y01339D03*
X00539Y00903D03*
G54D48*
X00239Y00039D03*
G54D49*
X00473Y01394D03*
X00205D03*
G54D50*
X00092Y-00009D03*
X00108D03*
X00124D03*
X00139D03*
X00141Y-0007D03*
X00125D03*
X0011D03*
X00094D03*
X00584D03*
X00568D03*
X00553D03*
X00537D03*
X00539Y-00009D03*
X00555D03*
X0057D03*
X00586D03*
Y01456D03*
X0057D03*
X00555D03*
X00539D03*
X00537Y01517D03*
X00553D03*
X00568D03*
X00584D03*
X00094D03*
X0011D03*
X00125D03*
X00141D03*
X00139Y01456D03*
X00124D03*
X00108D03*
X00092D03*
G54D71*
X0029Y01291D03*
Y01385D03*
X00388D03*
X00539Y01351D03*
Y01307D03*
X00388Y01291D03*
G54D72*
X0029Y01338D03*
X00388D03*
G54D73*
X00142Y00551D03*
X003Y00157D03*
X00378D03*
X00142D03*
X00221D03*
X00142Y00354D03*
X00221D03*
X00378D03*
X003D03*
X00457D03*
M02*