%FSTAX23Y23*%
%MOIN*%
%SFA1B1*%

%IPPOS*%
%AMD61*
4,1,8,0.029500,-0.022100,0.029500,0.022100,0.022100,0.029500,-0.022100,0.029500,-0.029500,0.022100,-0.029500,-0.022100,-0.022100,-0.029500,0.022100,-0.029500,0.029500,-0.022100,0.0*
1,1,0.014760,0.022100,-0.022100*
1,1,0.014760,0.022100,0.022100*
1,1,0.014760,-0.022100,0.022100*
1,1,0.014760,-0.022100,-0.022100*
%
%AMD62*
4,1,8,0.022100,0.029500,-0.022100,0.029500,-0.029500,0.022100,-0.029500,-0.022100,-0.022100,-0.029500,0.022100,-0.029500,0.029500,-0.022100,0.029500,0.022100,0.022100,0.029500,0.0*
1,1,0.014760,0.022100,0.022100*
1,1,0.014760,-0.022100,0.022100*
1,1,0.014760,-0.022100,-0.022100*
1,1,0.014760,0.022100,-0.022100*
%
%AMD67*
4,1,8,-0.025600,-0.015700,0.025600,-0.015700,0.029500,-0.011800,0.029500,0.011800,0.025600,0.015700,-0.025600,0.015700,-0.029500,0.011800,-0.029500,-0.011800,-0.025600,-0.015700,0.0*
1,1,0.007880,-0.025600,-0.011800*
1,1,0.007880,0.025600,-0.011800*
1,1,0.007880,0.025600,0.011800*
1,1,0.007880,-0.025600,0.011800*
%
%AMD68*
4,1,8,-0.024600,-0.019700,0.024600,-0.019700,0.029500,-0.014800,0.029500,0.014800,0.024600,0.019700,-0.024600,0.019700,-0.029500,0.014800,-0.029500,-0.014800,-0.024600,-0.019700,0.0*
1,1,0.009840,-0.024600,-0.014800*
1,1,0.009840,0.024600,-0.014800*
1,1,0.009840,0.024600,0.014800*
1,1,0.009840,-0.024600,0.014800*
%
%AMD69*
4,1,8,-0.013800,0.042300,-0.013800,-0.042300,-0.006900,-0.049200,0.006900,-0.049200,0.013800,-0.042300,0.013800,0.042300,0.006900,0.049200,-0.006900,0.049200,-0.013800,0.042300,0.0*
1,1,0.013780,-0.006900,0.042300*
1,1,0.013780,-0.006900,-0.042300*
1,1,0.013780,0.006900,-0.042300*
1,1,0.013780,0.006900,0.042300*
%
%ADD10C,0.007870*%
%ADD11C,0.005910*%
%ADD60C,0.059060*%
G04~CAMADD=61~8~0.0~0.0~590.6~590.6~73.8~0.0~15~0.0~0.0~0.0~0.0~0~0.0~0.0~0.0~0.0~0~0.0~0.0~0.0~270.0~590.0~590.0*
%ADD61D61*%
G04~CAMADD=62~8~0.0~0.0~590.6~590.6~73.8~0.0~15~0.0~0.0~0.0~0.0~0~0.0~0.0~0.0~0.0~0~0.0~0.0~0.0~0.0~590.6~590.6*
%ADD62D62*%
%ADD63O,0.039370X0.078740*%
%ADD64C,0.007870*%
%ADD65C,0.017720*%
G04~CAMADD=67~8~0.0~0.0~590.6~315.0~39.4~0.0~15~0.0~0.0~0.0~0.0~0~0.0~0.0~0.0~0.0~0~0.0~0.0~0.0~180.0~590.0~314.0*
%ADD67D67*%
G04~CAMADD=68~8~0.0~0.0~590.6~393.7~49.2~0.0~15~0.0~0.0~0.0~0.0~0~0.0~0.0~0.0~0.0~0~0.0~0.0~0.0~180.0~591.0~394.0*
%ADD68D68*%
G04~CAMADD=69~8~0.0~0.0~984.3~275.6~68.9~0.0~15~0.0~0.0~0.0~0.0~0~0.0~0.0~0.0~0.0~0~0.0~0.0~0.0~90.0~276.0~984.0*
%ADD69D69*%
%ADD70C,0.011810*%
%LNcs_ranka-1*%
%LPD*%
G54D10*
X00438Y0138D02*
D01*
X00438Y0138*
X00437Y01381*
X00437Y01381*
X00437Y01382*
X00437Y01382*
X00436Y01383*
X00436Y01383*
X00435Y01383*
X00435Y01384*
X00435Y01384*
X00434Y01384*
X00434Y01385*
X00433Y01385*
X00433Y01385*
X00432Y01385*
X00432Y01385*
X00431Y01385*
X0043Y01385*
X0043Y01385*
X00227Y01351D02*
D01*
X00228Y01353*
X0023Y01355*
X00231Y01356*
X00232Y01358*
X00233Y0136*
X00234Y01362*
X00235Y01364*
X00235Y01366*
X00236Y01368*
X00236Y01371*
X00236Y01373*
X00237Y01374*
X00362Y01322D02*
D01*
X00361Y01322*
X0036Y01322*
X00359Y01322*
X00358Y01322*
X00357Y01321*
X00356Y01321*
X00355Y0132*
X00354Y0132*
X00353Y01319*
X00352Y01319*
X00352Y01318*
X00351Y01317*
X0035Y01316*
X00349Y01315*
X00349Y01314*
X00348Y01313*
X00348Y01312*
X00348Y01311*
X00347Y0131*
X00347Y01309*
X00347Y01308*
X00347Y01307*
X00347Y01307*
X00331Y01267D02*
D01*
X00331Y01266*
X00331Y01265*
X00331Y01264*
X00332Y01263*
X00332Y01262*
X00332Y01261*
X00333Y0126*
X00333Y01259*
X00334Y01258*
X00334Y01258*
X00331Y01307D02*
D01*
X00331Y01308*
X00331Y01309*
X00331Y0131*
X0033Y01311*
X0033Y01312*
X0033Y01313*
X00329Y01314*
X00329Y01315*
X00328Y01316*
X00327Y01317*
X00327Y01318*
X00326Y01318*
X00325Y01319*
X00324Y0132*
X00323Y0132*
X00322Y01321*
X00321Y01321*
X0032Y01322*
X00319Y01322*
X00318Y01322*
X00317Y01322*
X00316Y01322*
X00315*
X00236Y01241D02*
D01*
X00236Y01241*
X00236Y01241*
X00236Y01241*
X00237Y01241*
X00237Y01241*
X00213Y01344D02*
D01*
X00213Y01344*
X00212Y01344*
X00212Y01343*
X00211Y01343*
X00211Y01343*
X0021Y01342*
X0021Y01342*
X0021Y01342*
X00209Y01341*
X00209Y01341*
X00209Y0134*
X00208Y0134*
X00208Y01339*
X00208Y01339*
X00208Y01338*
X00208Y01338*
X00208Y01337*
X00207Y01337*
X00207Y01336*
X00208Y01336*
X00208Y01335*
X00208Y01334*
X00208Y01334*
X00213Y01344D02*
D01*
X00215Y01345*
X00217Y01345*
X00219Y01346*
X00221Y01347*
X00223Y01349*
X00225Y0135*
X00227Y01351*
X00227Y01351*
X00244Y01385D02*
D01*
X00244Y01385*
X00243Y01385*
X00243Y01385*
X00242Y01385*
X00242Y01385*
X00241Y01385*
X00241Y01384*
X0024Y01384*
X0024Y01384*
X00239Y01383*
X00239Y01383*
X00239Y01383*
X00238Y01382*
X00238Y01382*
X00238Y01381*
X00237Y01381*
X00237Y0138*
X00237Y0138*
X00237Y01379*
X00237Y01379*
X00237Y01378*
X00237Y01378*
X00237Y01377*
X00443Y01365D02*
D01*
X00443Y01363*
X00444Y01361*
X00445Y01359*
X00447Y01357*
X00448Y01355*
X00449Y01353*
X00451Y01352*
X00452Y0135*
X00454Y01349*
X00456Y01348*
X00458Y01347*
X0046Y01346*
X00462Y01345*
X00464Y01344*
X00465Y01344*
X00435Y01176D02*
D01*
X00437Y01176*
X00439Y01176*
X00441Y01177*
X00443Y01177*
X00446Y01178*
X00448Y01179*
X0045Y0118*
X00452Y01181*
X00453Y01183*
X00455Y01184*
X00457Y01186*
X00458Y01187*
X0046Y01189*
X00461Y01191*
X00462Y01193*
X00463Y01195*
X00464Y01197*
X00465Y01199*
X00465Y01201*
X00466Y01204*
X00466Y01206*
X00466Y01207*
X00471Y01336D02*
D01*
X00471Y01336*
X00471Y01337*
X00471Y01337*
X00471Y01338*
X00471Y01338*
X0047Y01339*
X0047Y0134*
X0047Y0134*
X0047Y0134*
X00469Y01341*
X00469Y01341*
X00469Y01342*
X00468Y01342*
X00468Y01342*
X00467Y01343*
X00467Y01343*
X00466Y01343*
X00466Y01344*
X00465Y01344*
X00465Y01344*
X00433Y01187D02*
D01*
X00435Y01188*
X00436Y01188*
X00438Y01188*
X00439Y01188*
X0044Y01189*
X00442Y01189*
X00443Y0119*
X00444Y01191*
X00446Y01191*
X00447Y01192*
X00448Y01193*
X00449Y01194*
X0045Y01195*
X0045Y01197*
X00451Y01198*
X00452Y01199*
X00453Y012*
X00453Y01202*
X00453Y01203*
X00454Y01205*
X00454Y01206*
X00454Y01207*
Y01209*
X00454Y0121*
X00454Y01212*
X00453Y01213*
X00453Y01215*
X00453Y01216*
X00452Y01217*
X00451Y01218*
X00451Y01219*
X00368Y01188D02*
D01*
X00369Y01188*
X0037Y01187*
X00271Y01196D02*
D01*
X00271Y01195*
X00271Y01193*
X00271Y01192*
X00271Y01191*
X00271Y01189*
X00271Y01188*
X00272Y01186*
X00272Y01185*
X00273Y01184*
X00273Y01184*
X00315Y01176D02*
D01*
X00316Y01175*
X00317Y01174*
X00319Y01173*
X0032Y01173*
X00321Y01173*
X00323Y01172*
X00324Y01172*
X00326Y01172*
X00327Y01172*
X00328Y01172*
X00438Y0138D02*
X00443Y01365D01*
X00388Y01385D02*
X0043D01*
D01*
X00347Y01267D02*
Y01307D01*
Y01267D02*
X00402Y01208D01*
X00334Y01258D02*
X0037Y01208D01*
X00331Y01267D02*
Y01307D01*
X00237Y01241D02*
X00292Y0107D01*
X00208Y01334D02*
X00236Y01241D01*
X00213Y01344D02*
X00213D01*
X00244Y01385D02*
D01*
X00237Y01374D02*
Y01377D01*
X00244Y01385D02*
X0029D01*
X00328Y01172D02*
X00435Y01176D01*
X00466Y01207D02*
X00471Y01336D01*
X0037Y01187D02*
X00433D01*
X00327Y01192D02*
X00368Y01188D01*
X00271Y01196D02*
X0029Y01291D01*
X00273Y01184D02*
X00327Y0107D01*
X00292Y01192D02*
X00315Y01176D01*
X00409Y01285D02*
X00451Y01219D01*
X00539Y01307D02*
Y01351D01*
X00388Y01338D02*
Y01385D01*
X0029Y01338D02*
Y01385D01*
G54D11*
X00453Y00492D02*
D01*
X00452Y00492*
X0045Y00491*
X00449Y00491*
X00448Y00491*
X00446Y0049*
X00445Y0049*
X00444Y00489*
X00443Y00489*
X00511Y00478D02*
D01*
X0051Y0048*
X0051Y00481*
X00509Y00482*
X00508Y00483*
X00508Y00484*
X00507Y00485*
X00506Y00486*
X00505Y00487*
X00504Y00488*
X00502Y00489*
X00501Y0049*
X005Y0049*
X00499Y00491*
X00497Y00491*
X00496Y00491*
X00495Y00491*
X00493Y00492*
X00492Y00492*
X00414Y00452D02*
D01*
X00415Y00452*
X00416Y00452*
X00418Y00453*
X00419Y00453*
X0042Y00453*
X00422Y00454*
X00423Y00455*
X00424Y00455*
X00414Y00452D02*
D01*
X00412Y00452*
X00411Y00452*
X0041Y00452*
X00408Y00451*
X00407Y00451*
X00406Y00451*
X00404Y0045*
X00403Y00449*
X00402Y00448*
X00401Y00448*
X004Y00447*
X00399Y00446*
X00398Y00445*
X00397Y00444*
X00397Y00442*
X00396Y00441*
X00395Y0044*
X00395Y00439*
D01*
X00395Y00437*
X00394Y00436*
X00394Y00435*
X00394Y00433*
X00394Y00432*
X00394Y00431*
X00394Y00429*
X00395Y00428*
X00395Y00427*
X00395Y00425*
X00396Y00424*
X00397Y00423*
X00397Y00422*
X00398Y00421*
X00399Y00419*
X004Y00418*
X00401Y00418*
X00402Y00417*
X00403Y00416*
X00404Y00415*
X00406Y00415*
X00407Y00414*
X00408Y00414*
X00409Y00413*
X00411Y00413*
X00412Y00413*
X00413Y00413*
X00467Y0041D02*
D01*
X00466Y0041*
X00465Y0041*
X00465Y0041*
X00478Y00396D02*
D01*
X00478Y00397*
X00478Y00398*
X00477Y00399*
X00477Y004*
X00477Y00401*
X00476Y00402*
X00476Y00403*
X00476Y00403*
X00475Y00404*
X00474Y00405*
X00474Y00406*
X00473Y00406*
X00472Y00407*
X00472Y00408*
X00471Y00408*
X0047Y00409*
X00469Y00409*
X00468Y00409*
X00467Y0041*
X00467Y0041*
X00511Y00438D02*
D01*
X00511Y00439*
X0051Y00441*
X0051Y00442*
X00509Y00443*
X00508Y00444*
X00508Y00445*
X00507Y00446*
X00506Y00447*
X00505Y00448*
X00503Y00449*
X00502Y0045*
X00501Y0045*
X005Y00451*
X00499Y00451*
X00497Y00452*
X00496Y00452*
X00495Y00452*
X00493Y00452*
X00492Y00452*
D01*
X00492Y00452*
X00492*
X00492*
X00492*
X00492*
Y00452*
X00453D02*
D01*
X00452Y00452*
X0045Y00452*
X00449Y00452*
X00448Y00452*
X00446Y00451*
X00445Y00451*
X00444Y0045*
X00443Y0045*
X00492Y00649D02*
D01*
X00491Y00649*
X0049Y00649*
X00488Y00649*
X00487Y00648*
X00486Y00648*
X00484Y00647*
X00483Y00647*
X00482Y00646*
X00481Y00645*
X0048Y00645*
X00479Y00644*
X00478Y00643*
X00477Y00642*
X00476Y0064*
X00475Y00639*
X00475Y00638*
X00474Y00637*
X00474Y00636*
X00473Y00634*
X00473Y00633*
X00473Y00631*
X00473Y0063*
X00473Y00629*
D01*
X00473Y00628*
X00473Y00627*
X00473Y00625*
X00473Y00624*
X00474Y00623*
X00474Y00621*
X00475Y0062*
X00475Y0062*
X00511Y00556D02*
D01*
X00511Y00558*
X0051Y00559*
X0051Y0056*
X00509Y00561*
X00492Y00649D02*
D01*
X00494Y00649*
X00495Y00649*
X00497Y0065*
X00498Y0065*
X00499Y0065*
X005Y00651*
X00502Y00651*
X00503Y00652*
X00504Y00653*
X00505Y00654*
X00506Y00655*
X00507Y00656*
X00508Y00657*
X00509Y00658*
X00509Y00659*
X0051Y0066*
X00473Y00708D02*
D01*
X00473Y00709*
X00473Y00711*
X00472Y00712*
X00472Y00714*
X00472Y00715*
X00471Y00716*
X0047Y00717*
X0047Y00719*
X00469Y0072*
X00468Y00721*
X00467Y00722*
X00466Y00723*
X00465Y00724*
X00464Y00724*
X00463Y00725*
X00462Y00726*
X0046Y00726*
X00459Y00727*
X00458Y00727*
X00457Y00728*
X00455Y00728*
X00454Y00728*
X00453Y00728*
X0051Y0066D02*
D01*
X00511Y00661*
X00511Y00663*
X00511Y00664*
X00512Y00665*
X00512Y00667*
X00512Y00668*
X00512Y00669*
X00512Y00671*
X00512Y00672*
X00512Y00673*
X00511Y00675*
X00511Y00676*
X0051Y00677*
X0051Y00679*
X00509Y0068*
X00508Y00681*
X00507Y00682*
X00506Y00683*
X00505Y00684*
X00504Y00685*
X00503Y00685*
X00502Y00686*
X00501Y00687*
X00499Y00687*
X00498Y00688*
X00497Y00688*
X00495Y00688*
X00494Y00688*
X00493Y00688*
X00492Y00688*
X00473Y00708D02*
D01*
X00473Y00707*
X00473Y00705*
X00473Y00704*
X00474Y00703*
X00474Y00701*
X00475Y007*
X00475Y00699*
X00476Y00698*
X00477Y00696*
X00477Y00695*
X00478Y00694*
X00479Y00693*
X0048Y00693*
X00482Y00692*
X00483Y00691*
X00484Y0069*
X00485Y0069*
X00486Y00689*
X00488Y00689*
X00489Y00689*
X00491Y00689*
X00492Y00688*
X00492Y00688*
X00289Y00573D02*
D01*
X00287Y00575*
X00287Y00576*
X00322Y00524D02*
D01*
X00321Y00526*
X0032Y00528*
X0032Y00528*
X00364Y00437D02*
D01*
X00364Y00439*
X00363Y00441*
X00362Y00443*
X00362Y00445*
X00361Y00446*
X00208Y00562D02*
D01*
X0021Y00561*
X0021Y00561*
X00183Y00569D02*
D01*
X00182Y0057*
X00181Y0057*
X00179Y0057*
X00178Y0057*
X00178Y0057*
D01*
X00177*
X00177Y0057*
X00177Y0057*
X00177Y0057*
X00177Y0057*
X00177Y0057*
X00197Y0059D02*
D01*
X00197Y00589*
X00197Y00587*
X00198Y00586*
X00198Y00585*
X00198Y00583*
X00199Y00582*
X00199Y00581*
X002Y0058*
X00201Y00578*
X00202Y00577*
X00203Y00576*
X00204Y00575*
X00205Y00575*
X00206Y00574*
X00207Y00573*
X00208Y00572*
X00209Y00572*
X00211Y00571*
X00212Y00571*
X00213Y00571*
X00215Y0057*
X00216Y0057*
X00217*
X00217D02*
D01*
X00217Y0057*
X00217*
X00217*
X00217*
X00217Y0057*
X00217D02*
D01*
X00217*
X00217*
X00217*
X00217*
X00217*
X00197Y0059D02*
D01*
X00197Y00591*
X00197Y00593*
X00197Y00594*
X00196Y00595*
X00196Y00597*
X00195Y00598*
X00195Y00599*
X00194Y006*
X00193Y00602*
X00193Y00603*
X00192Y00604*
X00191Y00605*
X0019Y00606*
X00188Y00606*
X00187Y00607*
X00186Y00608*
X00185Y00608*
X00184Y00609*
X00182Y00609*
X00181Y00609*
X0018Y0061*
X00178Y0061*
X00177Y0061*
X00159Y00623D02*
D01*
X00159Y00622*
X0016Y0062*
X00161Y00619*
X00161Y00618*
X00162Y00617*
X00163Y00616*
X00164Y00615*
X00165Y00614*
X00166Y00613*
X00168Y00612*
X00169Y00612*
X0017Y00611*
X00171Y00611*
X00173Y0061*
X00174Y0061*
X00175Y0061*
X00177Y0061*
X00177Y0061*
X00232Y00642D02*
D01*
X00231Y00643*
X0023Y00644*
X00229Y00645*
X00228Y00646*
X00227Y00646*
X00226Y00647*
X00224Y00648*
X00223Y00648*
X00222Y00648*
X0022Y00649*
X00219Y00649*
X00218Y00649*
X00217Y00649*
X00198Y00675D02*
D01*
X00198Y00674*
X00197Y00672*
X00197Y00671*
X00197Y0067*
X00197Y00668*
X00197Y00667*
X00197Y00666*
X00198Y00664*
X00198Y00663*
X00199Y00662*
X00199Y0066*
X002Y00659*
X002Y00658*
X00201Y00657*
X00202Y00656*
X00203Y00655*
X00204Y00654*
X00205Y00653*
X00206Y00652*
X00207Y00652*
X00209Y00651*
X0021Y0065*
X00211Y0065*
X00213Y0065*
X00214Y00649*
X00215Y00649*
X00217Y00649*
X00217Y00649*
X002Y00679D02*
D01*
X00199Y00677*
X00199Y00676*
X00198Y00675*
X00492Y00728D02*
D01*
X00494Y00728*
X00495Y00728*
X00496Y00728*
X00498Y00729*
X00499Y00729*
X005Y0073*
X00502Y0073*
X00503Y00731*
X00504Y00732*
X00505Y00732*
X00473Y00747D02*
D01*
X00473Y00746*
X00473Y00745*
X00473Y00743*
X00474Y00742*
X00474Y00741*
X00474Y00739*
X00475Y00738*
X00476Y00737*
X00476Y00737*
X00431Y00738D02*
D01*
X00432Y0074*
X00432Y00741*
X00433Y00742*
X00433Y00744*
X00433Y00745*
X00433Y00746*
X00433Y00748*
X00473Y00747D02*
D01*
X00473Y00749*
X00473Y0075*
X00472Y00752*
X00472Y00753*
X00472Y00754*
X00471Y00756*
X0047Y00757*
X0047Y00758*
X00469Y00759*
X00468Y0076*
X00467Y00761*
X00466Y00762*
X00465Y00763*
X00464Y00764*
X00463Y00765*
X00462Y00765*
X0046Y00766*
X00459Y00766*
X00458Y00767*
X00456Y00767*
X00455Y00767*
X00454Y00767*
X00452Y00767*
X00451Y00767*
X0045Y00767*
X00448Y00767*
X00447Y00766*
X00446Y00766*
X00444Y00765*
X00443Y00765*
X00442Y00764*
X00441Y00763*
X0044Y00762*
X00439Y00761*
X00438Y0076*
X00437Y00759*
X00436Y00758*
X00436Y00757*
X00435Y00756*
X00435Y00754*
X00434Y00753*
X00434Y00752*
X00434Y0075*
X00433Y00749*
X00433Y00748*
X00394Y00747D02*
D01*
X00394Y00746*
X00394Y00745*
X00394Y00743*
X00395Y00742*
X00395Y00741*
X00396Y00739*
X00396Y00738*
X00397Y00737*
X00398Y00736*
X00399Y00735*
X004Y00734*
X00401Y00733*
X00402Y00732*
X00403Y00731*
X00404Y0073*
X00405Y0073*
X00406Y00729*
X00408Y00729*
X00409Y00728*
X0041Y00728*
X00412Y00728*
X00413Y00728*
X00414*
X00352Y00738D02*
D01*
X00353Y00739*
X00353Y0074*
X00354Y00741*
X00354Y00743*
X00354Y00744*
X00355Y00745*
X00355Y00747*
X00355Y00748*
X00394Y00747D02*
D01*
X00394Y00749*
X00394Y0075*
X00394Y00752*
X00393Y00753*
X00393Y00754*
X00392Y00756*
X00392Y00757*
X00391Y00758*
X0039Y00759*
X00389Y0076*
X00388Y00761*
X00388Y00762*
X00386Y00763*
X00385Y00764*
X00384Y00765*
X00383Y00765*
X00382Y00766*
X0038Y00766*
X00379Y00767*
X00378Y00767*
X00376Y00767*
X00375Y00767*
X00374Y00767*
D01*
X00373Y00767*
X00372Y00767*
X0037Y00767*
X00369Y00766*
X00368Y00766*
X00366Y00766*
X00365Y00765*
X00364Y00764*
X00363Y00763*
X00362Y00763*
X00361Y00762*
X0036Y00761*
X00359Y0076*
X00358Y00759*
X00357Y00757*
X00357Y00756*
X00356Y00755*
X00356Y00754*
X00355Y00752*
X00355Y00751*
X00355Y0075*
X00355Y00748*
X00355Y00748*
X00476Y00737D02*
D01*
X00477Y00736*
X00478Y00734*
X00479Y00733*
X0048Y00733*
X00481Y00732*
X00482Y00731*
X00483Y0073*
X00484Y0073*
X00486Y00729*
X00487Y00729*
X00488Y00728*
X0049Y00728*
X00491Y00728*
X00492Y00728*
X00492Y00728*
X00414D02*
D01*
X00415Y00728*
X00416Y00728*
X00418Y00728*
X00419Y00729*
X0042Y00729*
X00422Y0073*
X00423Y0073*
X00424Y00731*
X00425Y00732*
X00426Y00732*
X00427Y00733*
X00428Y00734*
X00429Y00735*
X0043Y00736*
X00431Y00738*
X00431Y00738*
X00358Y00311D02*
D01*
X00358Y0031*
X00358Y00309*
X00358Y00308*
X00358Y00307*
X00359Y00306*
X00359Y00306*
X00359Y00305*
X0036Y00304*
X0036Y00303*
X00361Y00302*
X00362Y00302*
X00362Y00301*
X00363Y003*
X00364Y003*
X00365Y00299*
X00366Y00299*
X00366Y00299*
X00367Y00298*
X00368Y00298*
X00369Y00298*
X0037Y00298*
X00371Y00298*
X00371Y00298*
X00354Y00439D02*
D01*
X00353Y0044*
X00353Y00441*
X00353Y00441*
X00355Y00433D02*
D01*
X00355Y00434*
X00354Y00436*
X00354Y00437*
X00354Y00438*
X00354Y00439*
X00313Y0052D02*
D01*
X00313Y00521*
X00312Y00522*
X00312Y00523*
X00177Y00688D02*
D01*
X00179Y00689*
X0018Y00689*
X00182Y00689*
X00183Y00689*
X00184Y0069*
X00185Y0069*
X00187Y00691*
X00188Y00691*
X00189Y00692*
X0019Y00693*
X00191Y00694*
X00192Y00695*
X00193Y00696*
X00194Y00697*
X00195Y00698*
X00195Y007*
X00196Y00701*
X00196Y00702*
X00197Y00703*
X00197Y00705*
X00197Y00706*
X00197Y00707*
X00197Y00708*
D01*
X00197Y0071*
X00197Y00711*
X00197Y00711*
X00402Y01019D02*
D01*
X00402Y0102*
X00403Y01021*
X00404Y01022*
X00404Y01024*
X00405Y01024*
X00237Y00708D02*
D01*
X00237Y00707*
X00237Y00705*
X00237Y00704*
X00237Y00703*
X00238Y00701*
X00238Y007*
X00239Y00699*
X0024Y00698*
X0024Y00697*
X00241Y00696*
X00242Y00694*
X00243Y00694*
X00244Y00693*
X00245Y00692*
X00246Y00691*
X00248Y0069*
X00249Y0069*
X0025Y00689*
X00251Y00689*
X00253Y00689*
X00254Y00689*
X00256Y00688*
X00257*
X00258Y00689*
X0026Y00689*
X00261Y00689*
X00262Y00689*
X00264Y0069*
X00265Y0069*
X00266Y00691*
X00232Y00764D02*
D01*
X00231Y00762*
X0023Y0076*
X00229Y00758*
X00228Y00757*
X00228Y00755*
X00227Y00753*
X00227Y0075*
X00227Y00748*
X00227Y00746*
X00227Y00744*
X00227Y00742*
X00228Y0074*
X00228Y00739*
X00237Y00708D02*
D01*
X00236Y0071*
X00236Y00711*
X00236Y00712*
X00236Y00714*
X00236Y00714*
X00414Y00688D02*
D01*
X00415Y00689*
X00416Y00689*
X00418Y00689*
X00419Y00689*
X0042Y0069*
X00422Y0069*
X00423Y00691*
X00424Y00691*
X00425Y00692*
X00426Y00693*
X00427Y00694*
X00428Y00695*
X00429Y00696*
X0043Y00697*
X00431Y00698*
X00431Y007*
X00432Y00701*
X00432Y00702*
X00433Y00703*
X00433Y00705*
X00433Y00706*
X00433Y00707*
X00433Y00708*
X00453Y00728D02*
D01*
X00452Y00728*
X0045Y00728*
X00449Y00727*
X00448Y00727*
X00446Y00727*
X00445Y00726*
X00444Y00726*
X00443Y00725*
X00441Y00724*
X0044Y00723*
X00439Y00722*
X00438Y00721*
X00437Y0072*
X00437Y00719*
X00436Y00718*
X00435Y00717*
X00435Y00715*
X00434Y00714*
X00434Y00713*
X00434Y00712*
X00433Y0071*
X00433Y00709*
X00433Y00708*
X00394Y00708D02*
D01*
X00394Y00707*
X00394Y00705*
X00394Y00704*
X00395Y00703*
X00395Y00701*
X00396Y007*
X00396Y00699*
X00397Y00698*
X00398Y00697*
X00399Y00695*
X004Y00694*
X00401Y00694*
X00402Y00693*
X00403Y00692*
X00404Y00691*
X00405Y0069*
X00406Y0069*
X00408Y00689*
X00409Y00689*
X0041Y00689*
X00412Y00689*
X00413Y00688*
X00414*
X00318Y00718D02*
D01*
X00317Y00717*
X00317Y00716*
X00316Y00714*
X00316Y00713*
X00316Y00712*
X00315Y0071*
X00315Y00709*
X00315Y00707*
X00315Y00706*
X00316Y00705*
X00316Y00703*
X00316Y00702*
X00317Y00701*
X00317Y007*
X00318Y00698*
X00319Y00697*
X00319Y00696*
X0032Y00695*
X00321Y00694*
X00322Y00693*
X00323Y00692*
X00324Y00691*
X00326Y00691*
X00327Y0069*
X00328Y0069*
X00329Y00689*
X00331Y00689*
X00332Y00689*
X00334Y00689*
X00335Y00688*
X00336Y00689*
X00338Y00689*
X00339Y00689*
X0034Y00689*
X00342Y0069*
X00343Y0069*
X00344Y00691*
X00345Y00691*
X00346Y00692*
X00348Y00693*
X00349Y00694*
X0035Y00695*
X0035Y00696*
X00351Y00697*
X00352Y00698*
X00353Y007*
X00353Y00701*
X00354Y00702*
X00354Y00703*
X00354Y00705*
X00355Y00706*
X00355Y00707*
X00355Y00708*
X00394Y00708D02*
D01*
X00394Y00709*
X00394Y00711*
X00394Y00712*
X00393Y00714*
X00393Y00715*
X00392Y00716*
X00392Y00717*
X00391Y00719*
X0039Y0072*
X00389Y00721*
X00388Y00722*
X00388Y00723*
X00386Y00724*
X00385Y00724*
X00384Y00725*
X00383Y00726*
X00382Y00726*
X0038Y00727*
X00379Y00727*
X00378Y00728*
X00376Y00728*
X00375Y00728*
X00374Y00728*
D01*
X00373Y00728*
X00372Y00728*
X0037Y00727*
X00369Y00727*
X00368Y00727*
X00366Y00726*
X00365Y00726*
X00364Y00725*
X00363Y00724*
X00362Y00723*
X00361Y00722*
X0036Y00721*
X00359Y0072*
X00358Y00719*
X00357Y00718*
X00357Y00717*
X00356Y00716*
X00356Y00714*
X00355Y00713*
X00355Y00712*
X00355Y0071*
X00355Y00709*
X00355Y00708*
X00573Y00844D02*
D01*
X00575Y00845*
X00577Y00846*
X0058Y00848*
X00582Y00849*
X00584Y00851*
X00586Y00852*
X00588Y00854*
X0059Y00856*
X00592Y00858*
X00593Y0086*
X00594Y00861*
X00329Y00766D02*
D01*
X00328Y00766*
X00326Y00765*
X00325Y00765*
X00325Y00765*
X00154Y00924D02*
D01*
X00154Y00922*
X00154Y00921*
X00154Y0092*
X00154Y0092*
X00177Y00832D02*
D01*
X00177Y00833*
X00177Y00835*
X00177Y00835*
X00425Y01081D02*
D01*
X00424Y01078*
X00423Y01076*
X00422Y01074*
X00153Y00731D02*
D01*
X00154Y00729*
X00156Y00727*
X00157Y00726*
X00158Y00725*
X00119Y00782D02*
D01*
X00119Y00781*
X0012Y0078*
X0012Y00778*
X00121Y00777*
X00122Y00776*
X00122Y00776*
X0029Y00766D02*
D01*
X00288Y00766*
X00287Y00765*
X00286Y00765*
X00286Y00765*
X00569Y00854D02*
D01*
X00571Y00854*
X00573Y00855*
X00575Y00856*
X00576Y00857*
X00578Y00858*
X0058Y00859*
X00581Y00861*
X00582Y00862*
X00584Y00864*
X00584Y00865*
X00602Y00955D02*
D01*
X00601Y00953*
X006Y0095*
X00599Y00947*
X00599Y00945*
X00584Y00865D02*
D01*
X00585Y00866*
X00586Y00868*
X00587Y0087*
X00588Y00872*
X00588Y00874*
X00589Y00876*
X00589Y00876*
X00239Y00756D02*
D01*
X00238Y00755*
X00238Y00754*
X00237Y00753*
X00237Y00751*
X00237Y0075*
X00237Y00748*
X00237Y00747*
X00237Y00746*
X00237Y00744*
X00237Y00743*
X00237Y00742*
X00238Y0074*
X00238Y00739*
X00239Y00738*
X00239Y00738*
X0025Y00766D02*
D01*
X00249Y00766*
X00248Y00765*
X00247Y00765*
X00245Y00764*
X00244Y00763*
X00243Y00762*
X00242Y00761*
X00241Y0076*
X0024Y00759*
X0024Y00758*
X00239Y00757*
X00239Y00756*
X00602Y01055D02*
D01*
X00601Y01053*
X006Y0105*
X00599Y01047*
X00599Y01044*
X00599Y01044*
X00566Y00863D02*
D01*
X00568Y00864*
X00569Y00864*
X0057Y00865*
X00571Y00865*
X00572Y00866*
X00573Y00867*
X00574Y00868*
X00575Y00869*
X00576Y0087*
X00576Y00871*
X00577Y00872*
X00578Y00873*
X00578Y00874*
X00578Y00875*
X00579Y00876*
X00579Y00878*
X00579Y00878*
X006Y00227D02*
D01*
X00601Y00224*
X00602Y00223*
X006Y00129D02*
D01*
X00601Y00126*
X00602Y00124*
X00602Y00123*
X00489Y00375D02*
D01*
X00488Y00373*
X00489Y00372*
X00489Y00371*
X00489Y00371*
X00487Y00397D02*
D01*
X00487Y00399*
X00487Y00401*
X00487Y00402*
X00486Y00404*
X00486Y00405*
X00485Y00407*
X00484Y00408*
X00483Y0041*
X00482Y00411*
X00481Y00412*
X0048Y00413*
X00479Y00414*
X00478Y00415*
X00477Y00416*
X00257Y00109D02*
D01*
X00256Y00109*
X00254Y00109*
X00253Y00108*
X00252Y00108*
X00251Y00107*
X00249Y00107*
X00249Y00106*
X00221Y00283D02*
D01*
X0022Y00284*
X00219Y00285*
X00218Y00286*
X00217Y00287*
X00216Y00288*
X00214Y00288*
X00213Y00289*
X00212Y0029*
X00212Y0029*
X00246Y00272D02*
D01*
X00246Y00271*
X00247Y0027*
X00247Y00268*
X00248Y00267*
X00249Y00266*
X0025Y00265*
X00251Y00264*
X00252Y00263*
X00253Y00263*
X00254Y00262*
X00255Y00261*
X00299Y00225D02*
D01*
X003Y00226*
X003Y00226*
X00156Y00103D02*
D01*
X00156Y00103*
X00157Y00104*
X00158Y00104*
X00159Y00105*
X00159Y00106*
X0016Y00106*
X0016Y00107*
X00161Y00108*
X00161Y00109*
X00162Y0011*
X00162Y00111*
X0024Y00232D02*
D01*
X0024Y00233*
X0024Y00234*
X0024Y00236*
X0024Y00237*
X00239Y00238*
X00239Y0024*
X00238Y00241*
X00237Y00242*
X00237Y00243*
X00236Y00244*
X00235Y00245*
X00234Y00246*
X00233Y00247*
X00232Y00248*
X00231Y00249*
X00229Y00249*
X00228Y0025*
X00227Y0025*
X00226Y00251*
X00224Y00251*
X00223Y00251*
X00221Y00251*
X0022Y00251*
X00219Y00251*
X00217Y00251*
X00216Y00251*
X00215Y00251*
X00213Y0025*
X00212Y00249*
X00211Y00249*
X0021Y00248*
X00209Y00247*
X00208Y00246*
X00207Y00245*
X00206Y00244*
X00205Y00243*
X00204Y00242*
X00203Y00241*
X00203Y0024*
X00202Y00239*
X00202Y00238*
X0024Y00232D02*
D01*
X0024Y0023*
X00241Y00229*
X00241Y00228*
X00241Y00226*
X00242Y00225*
X00242Y00224*
X00243Y00223*
X00243Y00221*
X00244Y0022*
X00245Y00219*
X00246Y00218*
X00247Y00217*
X00248Y00216*
X00249Y00215*
X0025Y00215*
X00252Y00214*
X00253Y00214*
X00254Y00213*
X00255Y00213*
X00257Y00212*
X00258Y00212*
X00259Y00212*
X00261Y00212*
X00262Y00212*
X00264Y00212*
X00265Y00213*
X00266Y00213*
X00267Y00213*
X003Y00226D02*
D01*
X00302Y00227*
X00303Y00227*
X00304Y00228*
X00305Y00229*
X00306Y0023*
X00307Y00231*
X00308Y00232*
X00308Y00233*
X00309Y00234*
X0031Y00236*
X0031Y00237*
X00311Y00238*
X00311Y0024*
X00311Y00241*
X00311Y00242*
X00311Y00244*
X00311Y00245*
X00311Y00246*
X00311Y00248*
X00311Y00249*
X0031Y0025*
X0031Y00252*
X00309Y00253*
X00308Y00254*
X00307Y00255*
X00307Y00256*
X00306Y00257*
X00305Y00258*
X00304Y00259*
X00303Y0026*
X00301Y00261*
X003Y00261*
X00477Y00308D02*
D01*
X00477Y00309*
X00478Y0031*
X00478Y00311*
X00478Y00312*
X00458Y00237D02*
D01*
X00457Y00236*
X00457Y00234*
X00457Y00234*
X00385Y00298D02*
D01*
X00386Y00298*
X00387Y00298*
X00388Y00298*
X00228Y00606D02*
D01*
X00227Y00607*
X00226Y00608*
X00224Y00608*
X00223Y00609*
X00222Y00609*
X00221Y00609*
X00219Y0061*
X00218Y0061*
X00217Y0061*
X00197Y00629D02*
D01*
X00197Y00628*
X00197Y00627*
X00198Y00625*
X00198Y00624*
X00198Y00623*
X00199Y00621*
X00199Y0062*
X002Y00619*
X00201Y00618*
X00202Y00617*
X00203Y00616*
X00204Y00615*
X00205Y00614*
X00206Y00613*
X00207Y00612*
X00208Y00612*
X00209Y00611*
X00211Y00611*
X00212Y0061*
X00213Y0061*
X00215Y0061*
X00216Y0061*
X00217*
X00197Y00629D02*
D01*
X00197Y00631*
X00197Y00632*
X00197Y00633*
X00196Y00635*
X00196Y00636*
X00195Y00637*
X00195Y00639*
X00194Y00639*
X0028Y00567D02*
D01*
X00279Y00569*
X00278Y00571*
X00276Y00572*
X00275Y00574*
X00273Y00575*
X00273Y00575*
X00177Y00688D02*
D01*
X00176Y00688*
X00175Y00688*
X00173Y00688*
X00172Y00688*
X00171Y00687*
X00169Y00687*
X00168Y00686*
X00167Y00685*
X00166Y00685*
X00165Y00684*
X00164Y00683*
X00163Y00682*
X00162Y00681*
X00161Y0068*
X0016Y00679*
X0016Y00677*
X00159Y00676*
X00159Y00675*
X00158Y00674*
X00158Y00672*
X00158Y00671*
X00158Y00669*
Y00668*
X00158Y00667*
X00158Y00665*
X00158Y00664*
X00159Y00663*
X00159Y00661*
X0016Y0066*
X0016Y00659*
X0016Y00659*
X00078Y00948D02*
D01*
X00077Y00951*
X00076Y00954*
X00076Y00955*
X00156Y00413D02*
D01*
X00157Y00411*
X00159Y0041*
X0016Y00408*
X00162Y00407*
X00164Y00406*
X00166Y00405*
X00168Y00405*
X0017Y00404*
X00172Y00404*
X00174Y00403*
X00176Y00403*
X00178Y00403*
X0018Y00403*
X00182Y00403*
X00184Y00404*
X00185Y00404*
X00155Y00413D02*
D01*
X00155Y00413*
X00155Y00413*
X00156Y00413*
X00156Y00413*
X00156Y00413*
X00078Y00502D02*
D01*
X00077Y00503*
X00077Y00504*
X00274Y00559D02*
D01*
X00274Y0056*
X00273Y00561*
X00272Y00562*
X00271Y00563*
X0027Y00564*
X00269Y00565*
X00268Y00566*
X00267Y00567*
X00266Y00568*
X00265Y00568*
X00264Y00569*
X00262Y00569*
X00261Y0057*
X0026Y0057*
X00258Y0057*
X00257Y0057*
X00256Y0057*
D01*
X00256Y0057*
X00256*
X00256*
X00256*
X00256Y0057*
X00222Y00414D02*
D01*
X00223Y00414*
X00224Y00414*
X00226Y00415*
X00227Y00416*
X00228Y00416*
X00229Y00417*
X0023Y00418*
X00231Y00419*
X00232Y0042*
X00233Y00421*
X00234Y00422*
X00234Y00423*
X00235Y00425*
X00235Y00426*
X00235Y00426*
D01*
X00236Y00428*
X00236Y00429*
X00236Y0043*
X00236Y00432*
X00236Y00433*
X00236Y00434*
X00236Y00436*
X00236Y00437*
X00236Y00438*
X00235Y0044*
X00235Y00441*
X00234Y00442*
X00234Y00442*
X00162Y0042D02*
D01*
X00163Y00419*
X00164Y00418*
X00165Y00417*
X00166Y00417*
X00167Y00416*
X00168Y00415*
X0017Y00415*
X00171Y00414*
X00172Y00414*
X00173Y00413*
X00175Y00413*
X00176Y00413*
X00178Y00413*
X00179Y00413*
X0018Y00413*
X00182Y00413*
X00183Y00414*
X00184Y00414*
X00186Y00415*
X00187Y00415*
X00187Y00416*
X00105Y00494D02*
D01*
X00106Y00492*
X00107Y0049*
X00108Y00488*
X00109Y00488*
X00077Y00852D02*
D01*
X00076Y00855*
X00076Y00855*
X00112Y00503D02*
D01*
X00113Y00501*
X00113Y005*
X00114Y00498*
X00115Y00497*
X00115Y00495*
X00116Y00494*
X00117Y00493*
X00118Y00492*
X00078Y00648D02*
D01*
X00077Y00651*
X00077Y00653*
X00076Y00655*
X00122Y00506D02*
D01*
X00122Y00505*
X00122Y00504*
X00122Y00503*
X00123Y00502*
X00123Y00501*
X00124Y00501*
X00124Y005*
X00125Y00499*
X00126Y00498*
X00126Y00498*
X00127Y00497*
X00128Y00497*
X00129Y00496*
X00129Y00496*
X00079Y00746D02*
D01*
X00078Y00749*
X00077Y00751*
X00076Y00754*
X00076Y00755*
X00511Y00478D02*
X006Y00227D01*
X00414Y00472D02*
X00443Y00489D01*
X00453Y00492D02*
X00492D01*
X00424Y00455D02*
X00453Y00472D01*
X00414Y00452D02*
D01*
X00467Y0041D02*
D01*
X00413Y00413D02*
X00465Y0041D01*
X00414Y00433D02*
X00443Y0045D01*
X00453Y00452D02*
X00492D01*
X00475Y0062D02*
X00509Y00561D01*
X00511Y00556D02*
X00555Y00413D01*
X00492Y00649D02*
D01*
X00473Y00708D02*
Y00708D01*
X00492Y00688D02*
D01*
X00288Y00318D02*
X00307D01*
X00255Y00261D02*
X00292Y00244D01*
X00289Y00573D02*
X0032Y00528D01*
X00322Y00524D02*
X00361Y00446D01*
X0021Y00561D02*
X00256Y00551D01*
X00183Y00569D02*
X00208Y00562D01*
X00146Y0057D02*
X00177Y0057D01*
X00217Y0057D02*
X00256D01*
X00217D02*
X00217D01*
X00197Y0059D02*
D01*
X00177Y0061D02*
X00177D01*
X00177D02*
X00177D01*
X00217Y00649D02*
D01*
X002Y00679D02*
X00217Y00708D01*
X00232Y00642D02*
X00287Y00576D01*
X00505Y00732D02*
X00639Y00839D01*
X00473Y00747D02*
D01*
X00433Y00748D02*
D01*
X00394Y00747D02*
D01*
X00355Y00748D02*
Y00748D01*
X00364Y00437D02*
X00378Y00354D01*
X00355Y00433D02*
X00358Y00311D01*
X00371Y00298D02*
X00385D01*
X00313Y0052D02*
X00353Y00441D01*
X00154Y0092D02*
X00177Y00835D01*
X00177Y00832D02*
X00197Y00711D01*
X00405Y01024D02*
X00422Y01074D01*
X00402Y01019D02*
D01*
X00232Y00764D02*
X00402Y01019D01*
X00228Y00739D02*
X00236Y00714D01*
X00433Y00708D02*
D01*
X00394Y00708D02*
D01*
X00318Y00718D02*
X00335Y00748D01*
X00355Y00708D02*
D01*
X00335Y00708D02*
X00352Y00738D01*
X00329Y00766D02*
X00573Y00844D01*
X00594Y00861D02*
X00639Y00939D01*
X00296Y00748D02*
X00325Y00765D01*
X006Y00227D02*
D01*
X00139Y01239D02*
X00154Y00924D01*
X00425Y01081D02*
X0046Y01139D01*
X00266Y00691D02*
X00296Y00708D01*
X00158Y00725D02*
X00177Y00708D01*
X00078Y00948D02*
X00119Y00782D01*
X00122Y00776D02*
X00153Y00731D01*
X0029Y00766D02*
X00569Y00854D01*
X00602Y00955D02*
X00639Y01039D01*
X00589Y00876D02*
X00599Y00945D01*
X00256Y00748D02*
X00286Y00765D01*
X00239Y00738D02*
X00256Y00708D01*
X00602Y01055D02*
X00639Y01139D01*
X0025Y00766D02*
X00566Y00863D01*
X00579Y00878D02*
X00599Y01044D01*
X00602Y00223D02*
X00639Y00139D01*
X00602Y00123D02*
X00639Y00039D01*
X00511Y00438D02*
X006Y00129D01*
D01*
X00489Y00371D02*
X00539Y00039D01*
X00487Y00397D02*
X00489Y00375D01*
D01*
X00453Y00433D02*
X00477Y00416D01*
X00478Y00312D02*
Y00396D01*
X00225Y0009D02*
X00249Y00106D01*
X00067Y00188D02*
X00138D01*
X00189Y0009D02*
X00215Y00115D01*
X0026Y0009D02*
X00373Y00113D01*
X00257Y00109D02*
X00289Y00115D01*
X0015Y00312D02*
X00212Y0029D01*
X00221Y00283D02*
X0026Y00232D01*
X0023Y00314D02*
X00246Y00272D01*
X00039Y00039D02*
X00156Y00103D01*
X00162Y00111D02*
X00202Y00238D01*
X00267Y00213D02*
X00299Y00225D01*
X0024Y00232D02*
D01*
X00264Y00279D02*
X003Y00261D01*
X00458Y00237D02*
X00477Y00308D01*
X00439Y00039D02*
X00457Y00234D01*
X00388Y00298D02*
X0045Y00309D01*
X00217Y0061D02*
D01*
X00197Y00629D02*
D01*
X0028Y00567D02*
X00312Y00523D01*
X00228Y00606D02*
X00273Y00575D01*
X00177Y00669D02*
X00194Y00639D01*
X0016Y00659D02*
X00177Y00629D01*
Y00688D02*
D01*
X00039Y01039D02*
X00076Y00955D01*
X00078Y00502D02*
X00155Y00413D01*
X00039Y00539D02*
X00077Y00504D01*
X00274Y00559D02*
X00296Y00511D01*
X00185Y00404D02*
X00222Y00414D01*
X00217Y00472D02*
X00234Y00442D01*
X00187Y00416D02*
X00217Y00433D01*
X00039Y00639D02*
X00105Y00494D01*
X00109Y00488D02*
X00162Y0042D01*
X00077Y00852D02*
X00159Y00623D01*
X00039Y00939D02*
X00076Y00855D01*
X00078Y00648D02*
X00112Y00503D01*
X00118Y00492D02*
X00177Y00433D01*
X00039Y00739D02*
X00076Y00655D01*
X00079Y00746D02*
X00122Y00506D01*
X00129Y00496D02*
X00177Y00472D01*
X00039Y00839D02*
X00076Y00755D01*
G54D60*
X00039Y01039D03*
Y00439D03*
Y00039D03*
Y00139D03*
Y00239D03*
Y00639D03*
Y00539D03*
Y00939D03*
Y00839D03*
Y01339D03*
Y00339D03*
Y00739D03*
Y01139D03*
X00639Y01039D03*
Y00439D03*
Y00039D03*
Y00139D03*
Y00239D03*
Y00639D03*
Y00539D03*
Y00939D03*
Y00839D03*
Y01239D03*
Y00339D03*
Y00739D03*
Y01139D03*
X00539D03*
X00439Y00039D03*
X00539D03*
X00139D03*
X00339D03*
X0046Y00903D03*
Y00981D03*
Y0106D03*
Y01139D03*
X00539Y0106D03*
Y00981D03*
Y01239D03*
X00139D03*
G54D61*
X00039Y01239D03*
X00639Y01339D03*
X00539Y00903D03*
G54D62*
X00239Y00039D03*
G54D63*
X00473Y01394D03*
X00205D03*
G54D64*
X00092Y-00009D03*
X00108D03*
X00124D03*
X00139D03*
X00141Y-0007D03*
X00125D03*
X0011D03*
X00094D03*
X00584D03*
X00568D03*
X00553D03*
X00537D03*
X00539Y-00009D03*
X00555D03*
X0057D03*
X00586D03*
Y01456D03*
X0057D03*
X00555D03*
X00539D03*
X00537Y01517D03*
X00553D03*
X00568D03*
X00584D03*
X00094D03*
X0011D03*
X00125D03*
X00141D03*
X00139Y01456D03*
X00124D03*
X00108D03*
X00092D03*
G54D65*
X00292Y0107D03*
X00327D03*
X00292Y01192D03*
X00327D03*
X00174Y01066D03*
Y0096D03*
X00555Y00413D03*
X00508Y00374D03*
X00477Y00232D03*
X00343Y00181D03*
X00174Y00925D03*
X00319Y01031D03*
X00386D03*
X00374Y01137D03*
X00256Y00748D03*
X0026Y0009D03*
X00225D03*
X00189D03*
X00067Y00188D03*
X00292Y00244D03*
X0026Y00232D03*
X00402Y01208D03*
X00433D03*
X0037D03*
X00256Y01248D03*
X0054Y01381D03*
X00256Y00314D03*
X00158Y0083D03*
X00138Y00787D03*
X00199Y01131D03*
X00063Y00489D03*
Y00389D03*
X0026Y00192D03*
Y00153D03*
X00221Y00232D03*
X00205Y00271D03*
X00288Y00318D03*
X00264Y00279D03*
X00453Y00748D03*
X00492D03*
X00335D03*
X00374D03*
X00414D03*
X00296D03*
X00453Y00708D03*
X00492D03*
X00335D03*
X00374D03*
X00414D03*
X00296D03*
X00256D03*
X00217D03*
X00177D03*
X00453Y00669D03*
X00492D03*
X00217D03*
X00177D03*
X00453Y00629D03*
X00492D03*
X00217D03*
X00177D03*
X00217Y0059D03*
X00177D03*
X00492Y00551D03*
X00256D03*
X00177D03*
X00414Y00511D03*
X00296D03*
X00177D03*
Y00472D03*
X00217D03*
X00256D03*
X00414D03*
X00492D03*
X00453D03*
Y00433D03*
X00492D03*
X00335D03*
X00414D03*
X00296D03*
X00256D03*
X00217D03*
X00177D03*
G54D67*
X0029Y01291D03*
Y01385D03*
X00388D03*
X00539Y01351D03*
Y01307D03*
X00388Y01291D03*
G54D68*
X0029Y01338D03*
X00388D03*
G54D69*
X00142Y00551D03*
X003Y00157D03*
X00378D03*
X00142D03*
X00221D03*
X00142Y00354D03*
X00221D03*
X00378D03*
X003D03*
X00457D03*
G54D70*
X00539Y01351D02*
X0054Y01381D01*
X00539Y01239D02*
Y01296D01*
M02*