%FSTAX23Y23*%
%MOIN*%
%SFA1B1*%

%IPPOS*%
%AMD12*
4,1,8,-0.041800,-0.014800,0.041800,-0.014800,0.049200,-0.007400,0.049200,0.007400,0.041800,0.014800,-0.041800,0.014800,-0.049200,0.007400,-0.049200,-0.007400,-0.041800,-0.014800,0.0*
1,1,0.014760,-0.041800,-0.007400*
1,1,0.014760,0.041800,-0.007400*
1,1,0.014760,0.041800,0.007400*
1,1,0.014760,-0.041800,0.007400*
%
%AMD13*
4,1,8,0.029500,-0.003000,0.029500,0.003000,0.026600,0.005900,-0.026600,0.005900,-0.029500,0.003000,-0.029500,-0.003000,-0.026600,-0.005900,0.026600,-0.005900,0.029500,-0.003000,0.0*
1,1,0.005900,0.026600,-0.003000*
1,1,0.005900,0.026600,0.003000*
1,1,0.005900,-0.026600,0.003000*
1,1,0.005900,-0.026600,-0.003000*
%
%AMD14*
4,1,8,-0.017000,-0.010800,0.017000,-0.010800,0.019700,-0.008100,0.019700,0.008100,0.017000,0.010800,-0.017000,0.010800,-0.019700,0.008100,-0.019700,-0.008100,-0.017000,-0.010800,0.0*
1,1,0.005420,-0.017000,-0.008100*
1,1,0.005420,0.017000,-0.008100*
1,1,0.005420,0.017000,0.008100*
1,1,0.005420,-0.017000,0.008100*
%
%AMD15*
4,1,8,-0.017000,-0.010800,0.017000,-0.010800,0.019700,-0.008100,0.019700,0.008100,0.017000,0.010800,-0.017000,0.010800,-0.019700,0.008100,-0.019700,-0.008100,-0.017000,-0.010800,0.0*
1,1,0.005420,-0.017000,-0.008100*
1,1,0.005420,0.017000,-0.008100*
1,1,0.005420,0.017000,0.008100*
1,1,0.005420,-0.017000,0.008100*
%
%AMD22*
4,1,8,0.003000,0.029500,-0.003000,0.029500,-0.005900,0.026600,-0.005900,-0.026600,-0.003000,-0.029500,0.003000,-0.029500,0.005900,-0.026600,0.005900,0.026600,0.003000,0.029500,0.0*
1,1,0.005900,0.003000,0.026600*
1,1,0.005900,-0.003000,0.026600*
1,1,0.005900,-0.003000,-0.026600*
1,1,0.005900,0.003000,-0.026600*
%
%AMD23*
4,1,8,-0.015800,-0.023600,0.015800,-0.023600,0.027600,-0.011800,0.027600,0.011800,0.015800,0.023600,-0.015800,0.023600,-0.027600,0.011800,-0.027600,-0.011800,-0.015800,-0.023600,0.0*
1,1,0.023620,-0.015800,-0.011800*
1,1,0.023620,0.015800,-0.011800*
1,1,0.023620,0.015800,0.011800*
1,1,0.023620,-0.015800,0.011800*
%
%AMD53*
4,1,8,-0.013800,0.021200,-0.013800,-0.021200,-0.010300,-0.024600,0.010300,-0.024600,0.013800,-0.021200,0.013800,0.021200,0.010300,0.024600,-0.010300,0.024600,-0.013800,0.021200,0.0*
1,1,0.006900,-0.010300,0.021200*
1,1,0.006900,-0.010300,-0.021200*
1,1,0.006900,0.010300,-0.021200*
1,1,0.006900,0.010300,0.021200*
%
%AMD54*
4,1,8,-0.013800,0.021200,-0.013800,-0.021200,-0.010300,-0.024600,0.010300,-0.024600,0.013800,-0.021200,0.013800,0.021200,0.010300,0.024600,-0.010300,0.024600,-0.013800,0.021200,0.0*
1,1,0.006900,-0.010300,0.021200*
1,1,0.006900,-0.010300,-0.021200*
1,1,0.006900,0.010300,-0.021200*
1,1,0.006900,0.010300,0.021200*
%
%AMD55*
4,1,8,-0.013800,0.021100,-0.013800,-0.021100,-0.010300,-0.024600,0.010300,-0.024600,0.013800,-0.021100,0.013800,0.021100,0.010300,0.024600,-0.010300,0.024600,-0.013800,0.021100,0.0*
1,1,0.006900,-0.010300,0.021100*
1,1,0.006900,-0.010300,-0.021100*
1,1,0.006900,0.010300,-0.021100*
1,1,0.006900,0.010300,0.021100*
%
%AMD56*
4,1,8,-0.007900,0.009800,-0.007900,-0.009800,-0.003900,-0.013800,0.003900,-0.013800,0.007900,-0.009800,0.007900,0.009800,0.003900,0.013800,-0.003900,0.013800,-0.007900,0.009800,0.0*
1,1,0.007900,-0.003900,0.009800*
1,1,0.007900,-0.003900,-0.009800*
1,1,0.007900,0.003900,-0.009800*
1,1,0.007900,0.003900,0.009800*
%
%AMD57*
4,1,8,-0.007800,0.009900,-0.007800,-0.009900,-0.003900,-0.013800,0.003900,-0.013800,0.007800,-0.009900,0.007800,0.009900,0.003900,0.013800,-0.003900,0.013800,-0.007800,0.009900,0.0*
1,1,0.007860,-0.003900,0.009900*
1,1,0.007860,-0.003900,-0.009900*
1,1,0.007860,0.003900,-0.009900*
1,1,0.007860,0.003900,0.009900*
%
%AMD58*
4,1,8,0.007500,-0.039600,0.007500,0.039600,0.003700,0.043300,-0.003700,0.043300,-0.007500,0.039600,-0.007500,-0.039600,-0.003700,-0.043300,0.003700,-0.043300,0.007500,-0.039600,0.0*
1,1,0.007480,0.003700,-0.039600*
1,1,0.007480,0.003700,0.039600*
1,1,0.007480,-0.003700,0.039600*
1,1,0.007480,-0.003700,-0.039600*
%
%AMD59*
4,1,8,0.027600,-0.013800,0.027600,0.013800,0.013800,0.027600,-0.013800,0.027600,-0.027600,0.013800,-0.027600,-0.013800,-0.013800,-0.027600,0.013800,-0.027600,0.027600,-0.013800,0.0*
1,1,0.027560,0.013800,-0.013800*
1,1,0.027560,0.013800,0.013800*
1,1,0.027560,-0.013800,0.013800*
1,1,0.027560,-0.013800,-0.013800*
%
%AMD61*
4,1,8,0.029500,-0.022100,0.029500,0.022100,0.022100,0.029500,-0.022100,0.029500,-0.029500,0.022100,-0.029500,-0.022100,-0.022100,-0.029500,0.022100,-0.029500,0.029500,-0.022100,0.0*
1,1,0.014760,0.022100,-0.022100*
1,1,0.014760,0.022100,0.022100*
1,1,0.014760,-0.022100,0.022100*
1,1,0.014760,-0.022100,-0.022100*
%
%AMD62*
4,1,8,0.022100,0.029500,-0.022100,0.029500,-0.029500,0.022100,-0.029500,-0.022100,-0.022100,-0.029500,0.022100,-0.029500,0.029500,-0.022100,0.029500,0.022100,0.022100,0.029500,0.0*
1,1,0.014760,0.022100,0.022100*
1,1,0.014760,-0.022100,0.022100*
1,1,0.014760,-0.022100,-0.022100*
1,1,0.014760,0.022100,-0.022100*
%
%ADD10C,0.007870*%
%ADD11C,0.005910*%
G04~CAMADD=12~8~0.0~0.0~984.3~295.3~73.8~0.0~15~0.0~0.0~0.0~0.0~0~0.0~0.0~0.0~0.0~0~0.0~0.0~0.0~180.0~984.0~295.0*
%ADD12D12*%
G04~CAMADD=13~8~0.0~0.0~118.1~590.6~29.5~0.0~15~0.0~0.0~0.0~0.0~0~0.0~0.0~0.0~0.0~0~0.0~0.0~0.0~270.0~590.0~118.0*
%ADD13D13*%
G04~CAMADD=14~8~0.0~0.0~393.7~216.5~27.1~0.0~15~0.0~0.0~0.0~0.0~0~0.0~0.0~0.0~0.0~0~0.0~0.0~0.0~180.0~394.0~217.0*
%ADD14D14*%
G04~CAMADD=15~8~0.0~0.0~393.7~216.5~27.1~0.0~15~0.0~0.0~0.0~0.0~0~0.0~0.0~0.0~0.0~0~0.0~0.0~0.0~180.0~394.0~217.0*
%ADD15D15*%
%ADD16R,0.026770X0.007870*%
%ADD17R,0.026770X0.015750*%
%ADD18R,0.023620X0.027560*%
%ADD19R,0.027560X0.023620*%
%ADD20R,0.027560X0.049210*%
%ADD21R,0.035430X0.027560*%
G04~CAMADD=22~8~0.0~0.0~118.1~590.6~29.5~0.0~15~0.0~0.0~0.0~0.0~0~0.0~0.0~0.0~0.0~0~0.0~0.0~0.0~0.0~118.1~590.6*
%ADD22D22*%
G04~CAMADD=23~8~0.0~0.0~551.2~472.4~118.1~0.0~15~0.0~0.0~0.0~0.0~0~0.0~0.0~0.0~0.0~0~0.0~0.0~0.0~180.0~552.0~473.0*
%ADD23D23*%
%ADD24R,0.027560X0.035430*%
%ADD51C,0.005910*%
%ADD52C,0.015750*%
G04~CAMADD=53~8~0.0~0.0~492.1~275.6~34.5~0.0~15~0.0~0.0~0.0~0.0~0~0.0~0.0~0.0~0.0~0~0.0~0.0~0.0~90.0~276.0~492.0*
%ADD53D53*%
G04~CAMADD=54~8~0.0~0.0~492.1~275.6~34.5~0.0~15~0.0~0.0~0.0~0.0~0~0.0~0.0~0.0~0.0~0~0.0~0.0~0.0~90.0~276.0~492.0*
%ADD54D54*%
G04~CAMADD=55~8~0.0~0.0~492.0~276.0~34.5~0.0~15~0.0~0.0~0.0~0.0~0~0.0~0.0~0.0~0.0~0~0.0~0.0~0.0~90.0~276.0~492.0*
%ADD55D55*%
G04~CAMADD=56~8~0.0~0.0~276.0~158.0~39.5~0.0~15~0.0~0.0~0.0~0.0~0~0.0~0.0~0.0~0.0~0~0.0~0.0~0.0~90.0~158.0~276.0*
%ADD56D56*%
G04~CAMADD=57~8~0.0~0.0~276.0~157.0~39.3~0.0~15~0.0~0.0~0.0~0.0~0~0.0~0.0~0.0~0.0~0~0.0~0.0~0.0~90.0~157.0~276.0*
%ADD57D57*%
G04~CAMADD=58~8~0.0~0.0~866.1~149.6~37.4~0.0~15~0.0~0.0~0.0~0.0~0~0.0~0.0~0.0~0.0~0~0.0~0.0~0.0~270.0~150.0~866.0*
%ADD58D58*%
G04~CAMADD=59~8~0.0~0.0~551.1~551.2~137.8~0.0~15~0.0~0.0~0.0~0.0~0~0.0~0.0~0.0~0.0~0~0.0~0.0~0.0~270.0~553.0~552.0*
%ADD59D59*%
%ADD60C,0.059060*%
G04~CAMADD=61~8~0.0~0.0~590.6~590.6~73.8~0.0~15~0.0~0.0~0.0~0.0~0~0.0~0.0~0.0~0.0~0~0.0~0.0~0.0~270.0~590.0~590.0*
%ADD61D61*%
G04~CAMADD=62~8~0.0~0.0~590.6~590.6~73.8~0.0~15~0.0~0.0~0.0~0.0~0~0.0~0.0~0.0~0.0~0~0.0~0.0~0.0~0.0~590.6~590.6*
%ADD62D62*%
%ADD63O,0.039370X0.078740*%
%ADD64C,0.007870*%
%ADD65C,0.017720*%
%LNcs_ranka-1*%
%LPD*%
G36*
X00205Y01357D02*
Y01431D01*
X00162*
Y01357*
X00205*
G37*
G36*
X00473D02*
Y01431D01*
X00516*
Y01357*
X00473*
G37*
G54D10*
X00595Y00798D02*
D01*
X00595Y00799*
X00595Y00801*
X00594Y00802*
X00594Y00803*
X00594Y00804*
X00593Y00806*
X00593Y00807*
X00592Y00808*
X00591Y00809*
X0059Y0081*
X0059Y00811*
X00589Y00812*
X00588Y00813*
X00587Y00813*
X00586Y00814*
X00584Y00815*
X00583Y00815*
X00582Y00816*
X00581Y00816*
X0058Y00816*
X00578Y00816*
X00577Y00816*
X00576Y00817*
X00283Y00854D02*
D01*
X00284Y00854*
X00285Y00854*
X00287Y00854*
X00288Y00855*
X00289Y00855*
X0029Y00855*
X00291Y00856*
X00293Y00857*
X00294Y00857*
X00295Y00858*
X00296Y00859*
X00297Y0086*
X00297Y00861*
X00298Y00862*
X00299Y00863*
X00299Y00864*
X003Y00865*
X003Y00867*
X00301Y00868*
X00301Y00869*
X00301Y00871*
X00301Y00872*
X00301Y00872*
X00528Y0037D02*
D01*
Y0037*
Y0037*
X00528Y0037*
Y0037*
Y0037*
X00528Y0037*
D01*
X00529Y00371*
X00529Y00373*
X00529Y00374*
X00529Y00375*
X00529Y00377*
X00528Y00378*
X00528Y0038*
X00527Y00381*
X00527Y00382*
X00526Y00384*
X00525Y00385*
X00525Y00386*
X00524Y00387*
X00523Y00388*
X00522Y00389*
X00521Y0039*
X00519Y00391*
X00518Y00392*
X00518Y00392*
X0049Y00406D02*
D01*
X0049Y00406*
X00489Y00406*
X00488Y00407*
X00488Y00407*
X00487Y00407*
X00486Y00407*
X00486Y00407*
X0048D02*
D01*
X00479Y00407*
X00478Y00407*
X00477Y00407*
X00477Y00407*
X00476Y00406*
X00475Y00406*
X00475Y00406*
X00474Y00405*
X00473Y00405*
X00473Y00404*
X00472Y00404*
X00472Y00404*
X00224Y00854D02*
D01*
X00223Y00854*
X00222Y00854*
X00221Y00853*
X00219Y00853*
X00218Y00853*
X00217Y00852*
X00216Y00852*
X00215Y00851*
X00214Y00851*
X00213Y0085*
X00212Y00849*
X00211Y00848*
X00211Y00847*
X0021Y00846*
X00209Y00845*
X00209Y00844*
X00208Y00843*
X00208Y00842*
X00208Y00841*
X00207Y0084*
X00207Y00839*
X00207Y00837*
X00207Y00837*
X00181Y00759D02*
D01*
X00183Y00759*
X00185Y0076*
X00187Y0076*
X00188Y0076*
X0019Y00761*
X00192Y00762*
X00193Y00762*
X00195Y00763*
X00197Y00764*
X00198Y00765*
X00199Y00767*
X00201Y00768*
X00202Y00769*
X00203Y00771*
X00204Y00773*
X00205Y00774*
X00205Y00776*
X00206Y00778*
X00207Y00779*
X00207Y00781*
X00207Y00783*
X00207Y00785*
X00207Y00786*
X00077Y01322D02*
D01*
X00078Y01324*
X00079Y01327*
X00079Y0133*
X0008Y01333*
X0008Y01336*
X0008Y01339*
X0008Y01341*
X0008Y01344*
X00079Y01347*
X00079Y0135*
X00078Y01353*
X00077Y01355*
X00077Y01356*
X00138Y00787D02*
D01*
X00138Y00785*
X00138Y00783*
X00139Y00781*
X00139Y00779*
X0014Y00777*
X0014Y00776*
X00141Y00774*
X00142Y00772*
X00143Y00771*
X00145Y00769*
X00146Y00768*
X00147Y00766*
X00149Y00765*
X0015Y00764*
X00152Y00763*
X00154Y00762*
X00155Y00761*
X00157Y00761*
X00159Y0076*
X00161Y0076*
X00163Y00759*
X00165Y00759*
X00166Y00759*
X00174Y00343D02*
D01*
X00174Y00342*
X00174Y00341*
X00174Y00341*
X00174Y0034*
X00174Y00339*
X00174Y00339*
X00175Y00338*
X00175Y00337*
X00176Y00337*
X00176Y00336*
X00177Y00335*
X00177Y00335*
X00178Y00334*
X00178Y00334*
X00179Y00334*
X0018Y00333*
X0018Y00333*
X00181Y00333*
X00182Y00332*
X00182Y00332*
X00183Y00332*
X00184Y00332*
X00184Y00332*
X0019D02*
D01*
X00191Y00332*
X00192Y00332*
X00193Y00332*
X00193Y00333*
X00194Y00333*
X00195Y00333*
X00195Y00333*
X00196Y00334*
X00197Y00334*
X00197Y00335*
X00198Y00335*
X00198Y00336*
X00198Y00336*
X00095Y00521D02*
D01*
X00093Y00521*
X00091Y00521*
X00089Y0052*
X00086Y0052*
X00084Y00519*
X00082Y00518*
X0008Y00517*
X00078Y00516*
X00076Y00515*
X00075Y00514*
X00073Y00512*
X00071Y00511*
X0007Y00509*
X00069Y00507*
X00068Y00505*
X00067Y00503*
X00066Y00501*
X00065Y00499*
X00064Y00497*
X00064Y00495*
X00063Y00493*
X00063Y0049*
X00063Y00489*
X00348Y01175D02*
D01*
X00348Y01175*
X00348Y01176*
X00348Y01176*
X00347Y01177*
X00347Y01177*
X00347Y01178*
X00347Y01178*
X00347Y01179*
X00346Y01179*
X00346Y0118*
X00346Y0118*
X00345Y01181*
X00345Y01181*
X00344Y01181*
X00344Y01181*
X00345Y01161D02*
D01*
X00346Y01161*
X00346Y01162*
X00346Y01162*
X00347Y01163*
X00347Y01163*
X00347Y01164*
X00347Y01164*
X00347Y01165*
X00348Y01165*
X00348Y01166*
X00348Y01166*
X00348Y01167*
Y01096D02*
D01*
X00348Y01097*
X00348Y01097*
X00348Y01098*
X00347Y01098*
X00347Y01099*
X00347Y01099*
X00347Y011*
X00347Y011*
X00346Y01101*
X00346Y01101*
X00346Y01101*
X00345Y01102*
X00344Y01081D02*
D01*
X00345Y01082*
X00345Y01082*
X00345Y01083*
X00346Y01083*
X00346Y01083*
X00346Y01084*
X00347Y01084*
X00347Y01085*
X00347Y01085*
X00347Y01086*
X00348Y01086*
X00348Y01087*
X00348Y01087*
X00348Y01088*
X00348Y01088*
X00154Y00332D02*
D01*
X00156Y0033*
X00158Y00329*
X0016Y00327*
X00163Y00326*
X00165Y00324*
X00168Y00323*
X00171Y00322*
X00173Y00321*
X00176Y00321*
X00179Y00321*
X00182Y0032*
X00183Y0032*
X00583Y00717D02*
D01*
X00584Y00717*
X00585Y00717*
X00585Y00718*
X00586Y00718*
X00587Y00718*
X00588Y00718*
X00588Y00719*
X00589Y00719*
X0059Y0072*
X00591Y0072*
X00591Y00721*
X00592Y00721*
X00592Y00722*
X00593Y00722*
X00593Y00723*
X00594Y00724*
X00594Y00725*
X00594Y00725*
X00594Y00726*
X00595Y00727*
X00595Y00728*
X00595Y00729*
X00595Y00729*
X00219Y00887D02*
D01*
X00217Y00887*
X00214Y00887*
X00212Y00887*
X0021Y00886*
X00208Y00885*
X00206Y00885*
X00204Y00884*
X00202Y00883*
X002Y00881*
X00199Y0088*
X00197Y00878*
X00195Y00877*
X00194Y00875*
X00193Y00873*
X00192Y00872*
X0019Y0087*
X0019Y00868*
X00189Y00866*
X00188Y00863*
X00188Y00861*
X00187Y00859*
X00187Y00857*
X00187Y00856*
X00521Y00473D02*
D01*
X0052Y00472*
X0052Y00471*
X0052Y00471*
X00545Y008D02*
D01*
X00545Y008*
X00545Y008*
X00545Y00799*
X00546Y00799*
X00546Y00799*
X00546Y00799*
X00404Y00109D02*
D01*
X00405Y00109*
X00405Y00109*
X00405Y00109*
X00405Y00109*
X00405Y00109*
X00319Y00109D02*
D01*
X0032Y00109*
X00321Y00109*
X00174Y00346D02*
D01*
X00174Y00346*
X00173Y00347*
X00173Y00348*
X00173Y00348*
X00173Y00349*
X00173Y00349*
X00173Y0035*
X00172Y0035*
X00172Y00351*
X00172Y00351*
X00172Y00351*
X00595Y00729D02*
Y00798D01*
X00528Y0037D02*
Y0037D01*
X00522Y00334D02*
X00528Y0037D01*
X0048Y00407D02*
X00486D01*
X00465Y00396D02*
X00472Y00404D01*
X00256Y01248D02*
X00292D01*
X00224Y00854D02*
X00283D01*
X00039Y01239D02*
X00077Y01322D01*
X00103Y00777D02*
X00138Y00787D01*
X00166Y00759D02*
X00181D01*
X00174Y00346D02*
Y00343D01*
X00198Y00336D02*
X00205Y00344D01*
X00184Y00332D02*
X0019D01*
X00095Y00521D02*
X00114D01*
X00348Y01167D02*
Y01175D01*
X00335Y01152D02*
X00345Y01161D01*
X00348Y01088D02*
Y01096D01*
X00327Y0107D02*
X00344Y01081D01*
X00292Y0107D02*
X00292Y01092D01*
X00292Y01192D02*
X00292Y01171D01*
X00327Y01192D02*
X00344Y01181D01*
X00152Y00334D02*
X00154Y00332D01*
X00183Y0032D02*
X00227Y00317D01*
X00293Y00876D02*
X00293Y00876D01*
X00158Y0083D02*
X00187D01*
X00219Y00887D02*
Y00962D01*
X00187Y0083D02*
Y00856D01*
Y00811D02*
Y0083D01*
X00172Y01033D02*
X00174Y01066D01*
X00477Y00281D02*
X00477Y00232D01*
X00483Y0037D02*
X00508Y00374D01*
X0046Y00903D02*
X00545Y008D01*
X00521Y00473D02*
X00528Y0048D01*
X00492Y00433D02*
X0052Y00471D01*
X00492Y00472D02*
X00529Y00501D01*
X00138Y00131D02*
X00319Y00109D01*
X00492Y00708D02*
X0053Y0068D01*
X00492Y00669D02*
X00529Y00659D01*
X00582Y00483D02*
X00639Y00439D01*
X00581Y00502D02*
X00639Y00539D01*
X00341Y01242D02*
X0037Y01208D01*
X00367Y01239D02*
X00402Y01208D01*
X00336Y01111D02*
X00345Y01102D01*
X00292Y01171D02*
X00326D01*
X00053Y01407D02*
X00077Y01356D01*
X00292Y01151D02*
X00326D01*
X00292Y01112D02*
X00326D01*
X00292Y01092D02*
X00326D01*
X00624Y01354D02*
X00624Y01407D01*
X00546Y00799D02*
X00565Y00777D01*
X00405Y00109D02*
X00426Y0011D01*
X00321Y00109D02*
X00404D01*
X00103Y00816D02*
X00158Y0083D01*
X00141Y00502D02*
X00177Y00511D01*
X00227Y00317D02*
X00256Y00314D01*
X00227Y0037D02*
X00227Y00318D01*
X00138Y00131D02*
X00139Y00039D01*
X00172Y01033D02*
X00221D01*
X00292Y01131D02*
X00326D01*
X00231D02*
X00292D01*
X00199D02*
X00231D01*
X00112Y01033D02*
X00219Y00962D01*
X00112Y01033D02*
Y01094D01*
X00539Y00903D02*
X00565Y00816D01*
Y0074D02*
Y00777D01*
X0049Y00406D02*
X00518Y00392D01*
X00437Y00295D02*
X00482Y00344D01*
X00063Y00389D02*
X00103Y00403D01*
X00293Y00876D02*
X00301Y00895D01*
X00152Y00374D02*
X00172Y00351D01*
X00477Y00281D02*
X00516Y00334D01*
X00438Y00256D02*
X00477Y00281D01*
X00362Y00281D02*
X00433Y00261D01*
X00103Y00403D02*
X00152Y00374D01*
G54D11*
X00429Y00211D02*
D01*
X00429Y00213*
X00429Y00214*
X00429Y00216*
X00429Y00217*
X00428Y00218*
X00428Y0022*
X00427Y00221*
X00426Y00222*
X00425Y00224*
X00425Y00225*
X00424Y00226*
X00423Y00227*
X00421Y00228*
X0042Y00229*
X00419Y00229*
X00418Y0023*
X00416Y00231*
X00415Y00231*
X00414Y00232*
X00412Y00232*
X00411Y00232*
X00409Y00232*
X00409Y00232*
X00429Y00165D02*
D01*
X00429Y00164*
X00429Y00164*
X0043Y00163*
X0043Y00163*
X0043Y00162*
X0043Y00162*
X0043Y00161*
X00431Y00161*
X00431Y0016*
X00431Y0016*
X00432Y00159*
X00432Y00159*
X00432Y00159*
X00433Y00158*
X00433Y00158*
X00434Y00158*
X00434Y00158*
X00435Y00157*
X00435Y00157*
X00436Y00157*
X00436Y00157*
X00437Y00157*
X00437Y00157*
X00315Y00302D02*
D01*
X00315Y00301*
X00314Y00301*
X00313Y003*
X00312Y003*
X00311Y00299*
X0031Y00299*
X0031Y00299*
X0042Y00318D02*
D01*
X00421Y00318*
X00423Y00319*
X00425Y00319*
X00426Y00319*
X00428Y0032*
X00429Y0032*
X00431Y00321*
X00432Y00322*
X00434Y00323*
X00435Y00324*
X00436Y00325*
X00437Y00326*
X00438Y00327*
X00439Y00329*
X0044Y0033*
X00441Y00332*
X00442Y00333*
X00442Y00335*
X00443Y00336*
X00443Y00338*
X00443Y0034*
X00443Y00341*
X00443Y00342*
X00358Y00318D02*
D01*
X00358Y00318*
X00358Y00318*
X00357Y00318*
X00357Y00318*
X00356Y00318*
X00356Y00318*
X00296Y00318D02*
D01*
X00298Y00318*
X003Y00319*
X00302Y00319*
X00304Y00319*
X00305Y0032*
X00307Y00321*
X00309Y00322*
X0031Y00322*
X00312Y00324*
X00314Y00325*
X00315Y00326*
X00315Y00326*
D01*
X00317Y00328*
X00318Y0033*
X0032Y00332*
X00321Y00334*
X00322Y00336*
X00323Y00338*
X00324Y0034*
X00324Y00342*
X00325Y00345*
X00325Y00347*
X00325Y00349*
X00325Y0035*
X00255Y00261D02*
D01*
X00257Y00261*
X00258Y0026*
X00259Y0026*
X00261Y0026*
X00262Y00259*
X00263Y00259*
X00265Y00259*
X00266Y00259*
X00267Y0026*
X00269Y0026*
X0027Y0026*
X00271Y00261*
X00273Y00261*
X00274Y00262*
X00275Y00263*
X00276Y00263*
X00277Y00264*
X00278Y00265*
X00278Y00265*
X0025Y00266D02*
D01*
X00251Y00265*
X00252Y00264*
X00253Y00263*
X00254Y00262*
X00255Y00262*
X00255Y00261*
X00231Y00286D02*
D01*
X00231Y00286*
X00231Y00286*
X00231Y00286*
X00231Y00286*
X0023Y00286*
X0023Y00286D02*
D01*
X00227Y0029*
X00223Y00293*
X00219Y00295*
X00215Y00298*
X00211Y003*
X00206Y00302*
X00202Y00304*
X00197Y00305*
X00192Y00306*
X00187Y00306*
X00183Y00307*
X00181Y00307*
X00103Y00344D02*
D01*
X00103Y00341*
X00103Y00339*
X00103Y00336*
X00104Y00334*
X00105Y00331*
X00106Y00329*
X00107Y00326*
X00108Y00324*
X0011Y00322*
X00111Y0032*
X00113Y00318*
X00115Y00316*
X00117Y00315*
X00119Y00313*
X00121Y00312*
X00124Y0031*
X00126Y00309*
X00128Y00308*
X00131Y00308*
X00134Y00307*
X00136Y00307*
X00139Y00307*
X0014Y00307*
X00237Y00708D02*
D01*
X00237Y00707*
X00237Y00706*
X00237Y00708D02*
D01*
X00236Y0071*
X00236Y00711*
X00236Y00712*
X00236Y00714*
X00235Y00715*
X00235Y00716*
X00234Y00717*
X00234Y00719*
X00233Y0072*
X00232Y00721*
X00231Y00722*
X0023Y00723*
X00229Y00724*
X00228Y00724*
X00227Y00725*
X00225Y00726*
X00224Y00726*
X00223Y00727*
X00222Y00727*
X0022Y00728*
X00219Y00728*
X00218Y00728*
X00217Y00728*
X00178Y00492D02*
D01*
X00176Y00492*
X00175Y00491*
X00173Y00491*
X00173Y00491*
X00178Y00492D02*
D01*
X00179Y00492*
X0018Y00492*
X00181Y00492*
X00237Y00747D02*
D01*
X00237Y00746*
X00237Y00745*
X00237Y00743*
X00237Y00742*
X00238Y00741*
X00238Y00739*
X00239Y00738*
X00239Y00738*
X00237Y00747D02*
D01*
X00236Y00749*
X00236Y0075*
X00236Y00752*
X00236Y00752*
X00397Y00482D02*
D01*
X00396Y00481*
X00395Y00479*
X00395Y00478*
X00395Y00477*
X00394Y00475*
X00394Y00474*
X00355Y0114D02*
D01*
X00355Y01139*
X00355Y01137*
X00355Y01136*
X00355Y01135*
X00355Y01133*
X00355Y01132*
X00356Y01131*
X00356Y01129*
X00357Y01128*
X00357Y01128*
X00359Y01175D02*
D01*
X00359Y01176*
X00358Y01177*
X00358Y01178*
Y01178D02*
D01*
X00358Y01179*
X00358Y01181*
X00357Y01182*
X00357Y01183*
X00356Y01184*
X00355Y01185*
X00358Y01164D02*
D01*
X00358Y01165*
X00359Y01167*
X00359Y01167*
X0047Y00491D02*
D01*
X0047Y00491*
X0047Y00491*
X0047Y00491*
X0047Y00491*
X0047Y00491*
Y00491*
X00474Y00495D02*
D01*
X00473Y00494*
X00471Y00492*
X0047Y00491*
X00482Y00489D02*
D01*
X00481Y00488*
X0048Y00487*
X00479Y00486*
X00478Y00485*
X00477Y00484*
X00476Y00483*
X00475Y00482*
X00475Y00481*
X00475Y00481*
D01*
X00474Y00479*
X00474Y00478*
X00473Y00477*
X00473Y00476*
X00473Y00474*
X00473Y00473*
X00473Y00472*
X0047Y00462D02*
D01*
X00471Y00463*
X00471Y00465*
X00472Y00466*
X00472Y00467*
X00472Y00468*
X00473Y0047*
X00473Y00471*
X00473Y00472*
X0047Y00698D02*
D01*
X00471Y00699*
X00471Y00701*
X00472Y00702*
X00472Y00703*
X00472Y00705*
X00473Y00706*
X00473Y00707*
X00473Y00708*
Y00747D02*
D01*
X00473Y00749*
X00473Y0075*
X00472Y00752*
X00472Y00752*
X00276Y00747D02*
D01*
X00276Y00749*
X00276Y0075*
X00275Y00752*
X00275Y00752*
X00276Y00747D02*
D01*
X00276Y00746*
X00276Y00745*
X00276Y00743*
X00277Y00742*
X00277Y00741*
X00278Y00739*
X00278Y00738*
X00279Y00738*
X00315Y00747D02*
D01*
X00315Y00749*
X00315Y0075*
X00315Y00752*
X00315Y00752*
X00315Y00747D02*
D01*
X00315Y00746*
X00315Y00745*
X00316Y00743*
X00316Y00742*
X00316Y00741*
X00317Y00739*
X00318Y00738*
X00318Y00738*
X00355Y00747D02*
D01*
X00355Y00749*
X00354Y0075*
X00354Y00752*
X00354Y00753*
X00354Y00753*
X00355Y00747D02*
D01*
X00355Y00746*
X00355Y00745*
X00355Y00743*
X00355Y00742*
X00356Y00741*
X00356Y00739*
X00357Y00738*
X00357Y00738*
X00394Y00747D02*
D01*
X00394Y00749*
X00394Y0075*
X00394Y00752*
X00393Y00753*
X00394Y00747D02*
D01*
X00394Y00746*
X00394Y00745*
X00394Y00743*
X00395Y00742*
X00395Y00741*
X00396Y00739*
X00396Y00738*
X00397Y00738*
X00433Y00747D02*
D01*
X00433Y00749*
X00433Y0075*
X00433Y00752*
X00433Y00753*
X00433Y00753*
X00433Y00747D02*
D01*
X00433Y00746*
X00434Y00745*
X00434Y00743*
X00434Y00742*
X00435Y00741*
X00435Y00739*
X00436Y00738*
X00436Y00738*
X00178Y0057D02*
D01*
X00179Y0057*
X0018Y00571*
X00182Y00571*
X00183Y00571*
X00184Y00572*
X00186Y00572*
X00187Y00573*
X00187Y00573*
X00178Y0057D02*
D01*
X00176Y0057*
X00175Y0057*
X00173Y0057*
X00172Y0057*
D01*
X00172Y0057*
X00172Y0057*
X00172*
X00172Y0057*
X00172Y0057*
X00521Y00709D02*
D01*
X00521Y00709*
X00522Y00708*
X00498Y00648D02*
D01*
X00496Y00649*
X00495Y00649*
X00494Y00649*
X00492Y00649*
X00491Y00649*
X00489Y00649*
X00488Y00649*
X00487Y00648*
X00485Y00648*
X00484Y00647*
X00483Y00647*
X00483Y00646*
X00602Y00655D02*
D01*
X00601Y00653*
X006Y0065*
X006Y00648*
X00589Y0061D02*
D01*
X00589Y0061*
X0059Y00611*
X0059Y00611*
X00591Y00612*
X00591Y00613*
X00591Y00613*
X00591Y00614*
X00592Y00614*
X00599Y00332D02*
D01*
X006Y00329*
X00601Y00326*
X00602Y00324*
X00602Y00323*
X00602Y00424D02*
D01*
X00602Y00423*
X00602Y00423*
X00602Y00423*
X00602Y00423*
X00602Y00423*
X00591Y00449D02*
D01*
X00591Y0045*
X0059Y0045*
X0059Y00451*
X0059Y00451*
X00589Y00452*
X00589Y00452*
X00433Y00427D02*
D01*
X00433Y00428*
X00433Y0043*
X00433Y00431*
X00433Y00432*
X00433Y00434*
X00433Y00435*
X00433Y00436*
X00433Y00438*
X00432Y00439*
X00432Y0044*
X00431Y00442*
X00431Y00442*
X00182Y01268D02*
D01*
X00183Y01267*
X00184Y01266*
X00185Y01265*
X00186Y01264*
X00187Y01264*
X0018Y01271D02*
D01*
X00181Y01269*
X00182Y01268*
X00182Y01268*
X00247Y0123D02*
D01*
X00248Y0123*
X00249Y01229*
X0025Y01229*
X00252Y01228*
X00252Y01228*
X00344Y01203D02*
D01*
X00343Y01204*
X00342Y01205*
X00341Y01206*
X0034Y01207*
X00339Y01208*
X00338Y01209*
X00337Y0121*
X00335Y0121*
X00334Y01211*
X00333Y01211*
X00333D02*
D01*
X00332Y01211*
X00331Y01212*
X0044Y0119D02*
D01*
X00441Y0119*
X00442Y01191*
X00443Y01191*
X00445Y01192*
X00446Y01193*
X00447Y01194*
X00448Y01195*
X00449Y01196*
X00449Y01197*
X0045Y01198*
X00414Y01223D02*
D01*
X00414Y01224*
X00414Y01224*
X00414Y01224*
X00414Y01224*
X00414Y01224*
X00344Y01203D02*
D01*
X00344Y01203*
X00344Y01203*
X00344Y01203*
X00344Y01203*
X00344Y01203*
X0019Y01149D02*
D01*
X00189Y01148*
X00188Y01148*
X00187Y01147*
X00186Y01146*
X00185Y01145*
X00184Y01144*
X00183Y01143*
X00182Y01142*
X00182Y01141*
X00181Y01139*
X00181Y01138*
X0018Y01138*
D01*
X0018Y01136*
X0018Y01135*
X0018Y01134*
X00179Y01132*
X00179Y01131*
X0018Y0113*
X0018Y01128*
X0018Y01127*
X0018Y01125*
X00181Y01124*
X00181Y01123*
X00182Y01122*
X00183Y01121*
X00183Y01119*
X00184Y01118*
X00185Y01117*
X00186Y01116*
X00187Y01116*
X00189Y01115*
X0019Y01114*
X0019Y01114*
X00425Y00923D02*
D01*
X00424Y00921*
X00423Y00918*
X00422Y00916*
X00421Y00913*
X0042Y0091*
X0042Y00907*
X0042Y00905*
X0042Y00902*
X0042Y00899*
X0042Y00896*
X00421Y00893*
X00422Y00891*
X00423Y00888*
X00424Y00885*
X00425Y00883*
X00426Y00881*
X00428Y00878*
X0043Y00876*
X00432Y00874*
X00434Y00872*
X00436Y0087*
X00437Y0087*
X00473Y00844D02*
D01*
X00472Y00845*
X00471Y00845*
X00425Y01002D02*
D01*
X00424Y01*
X00423Y00997*
X00422Y00994*
X00421Y00992*
X0042Y00989*
X0042Y00986*
X0041Y00909D02*
D01*
X0041Y00905*
X0041Y00902*
X0041Y00898*
X00411Y00895*
X00411Y00892*
X00412Y00888*
X00413Y00885*
X00415Y00882*
X00416Y00878*
X00418Y00875*
X0042Y00873*
X00422Y0087*
X00425Y00867*
X00427Y00865*
X00429Y00863*
X00453Y00845D02*
D01*
X00453Y00845*
X00452Y00845*
X00452Y00845*
X00452Y00845*
X00452Y00845*
X00452Y00845*
X00178Y0061D02*
D01*
X00176Y0061*
X00175Y0061*
X00173Y00609*
X00172Y00609*
X00172Y00609*
X00178Y0061D02*
D01*
X00179Y0061*
X0018Y0061*
X00182Y0061*
X00183Y00611*
X00184Y00611*
X00186Y00611*
X00187Y00612*
X00187Y00612*
X00172Y00729D02*
D01*
X00173Y00728*
X00174Y00728*
X00176Y00728*
X00177Y00728*
X00178Y00728*
X00171Y0065D02*
D01*
X00173Y0065*
X00174Y00649*
X00176Y00649*
X00177Y00649*
X00178Y00649*
X0018Y00649*
X00181Y00649*
X00182Y0065*
X00184Y0065*
X00185Y00651*
X00186Y00651*
X00187Y00652*
X00171Y00689D02*
D01*
X00173Y00689*
X00174Y00689*
D01*
X00175Y00689*
X00176Y00689*
X00178Y00688*
X00179Y00689*
X00181Y00689*
X00182Y00689*
X00183Y00689*
X00185Y0069*
X00186Y0069*
X00187Y00691*
X00187Y00691*
X00237Y00433D02*
D01*
X00237Y00431*
X00237Y0043*
X00237Y00428*
X00237Y00428*
X00299Y00302D02*
D01*
X003Y00303*
X003Y00303*
X00309Y0031D02*
D01*
X00307Y00309*
X00306Y00308*
X00306Y00308*
X00353Y00334D02*
D01*
X00353Y00335*
X00354Y00335*
X00354Y00335*
X00276Y00433D02*
D01*
X00276Y00431*
X00276Y0043*
X00276Y00429*
X00276Y00433D02*
D01*
X00276Y00434*
X00276Y00435*
X00275Y00437*
X00275Y00438*
X00275Y00439*
X00274Y00441*
X00274Y00442*
X00273Y00442*
X00237Y00433D02*
D01*
X00236Y00434*
X00236Y00435*
X00236Y00437*
X00236Y00438*
X00235Y00439*
X00235Y00441*
X00234Y00442*
X00234Y00442*
X00397Y00482D02*
X00414Y00511D01*
X0047Y00491D02*
X0047Y00491D01*
X00453Y00472D02*
X0047Y00491D01*
X00187Y00612D02*
X00217Y00629D01*
X00187Y00573D02*
X00217Y0059D01*
X00429Y00165D02*
Y00211D01*
X00278Y00265D02*
X0031Y00299D01*
X00315Y00302D02*
X00356Y00318D01*
X00315Y00302D02*
D01*
X00358Y00318D02*
X0042D01*
X00288D02*
X00296D01*
X00325Y0035D02*
Y0037D01*
X0014Y00307D02*
X00181D01*
X0023Y00286D02*
X0023Y00286D01*
X00231Y00286D02*
X0025Y00266D01*
X00397Y00738D02*
X00414Y00708D01*
X00187Y00691D02*
X00217Y00708D01*
X00237Y00706D02*
X00256Y00551D01*
X00318Y00738D02*
X00335Y00708D01*
X00237D02*
D01*
X00139Y00482D02*
X00173Y00491D01*
X00178Y00492D02*
D01*
X00181Y00492D02*
X00296Y00511D01*
X00436Y00738D02*
X00453Y00708D01*
X00187Y00652D02*
X00217Y00669D01*
X00124Y00887D02*
X00174Y00925D01*
X00279Y00738D02*
X00296Y00708D01*
X00239Y00738D02*
X00256Y00708D01*
X00237Y00747D02*
D01*
X00383Y00392D02*
X00394Y00474D01*
X00344Y01203D02*
X00355Y01185D01*
X00357Y01128D02*
X00378Y0109D01*
X00355Y0114D02*
X00358Y01164D01*
X00359Y01167D02*
Y01175D01*
X00358Y01178D02*
Y01178D01*
X00474Y00495D02*
X0053Y00539D01*
X00482Y00489D02*
X00531Y00518D01*
X00473Y00472D02*
D01*
X00453Y00433D02*
X0047Y00462D01*
X00473Y00708D02*
Y00747D01*
X00465Y00785D02*
X00472Y00752D01*
X00453Y00669D02*
X0047Y00698D01*
X00228Y00786D02*
X00236Y00752D01*
X00247Y00787D02*
X00256Y00748D01*
X00276Y00747D02*
D01*
X00268Y00786D02*
X00275Y00752D01*
X00288Y00784D02*
X00296Y00748D01*
X00315Y00747D02*
D01*
X00305Y00789D02*
X00315Y00752D01*
X00325Y00784D02*
X00335Y00748D01*
X00357Y00738D02*
X00374Y00708D01*
X00492Y00748D02*
X00521Y00709D01*
X00355Y00747D02*
D01*
X00343Y00788D02*
X00354Y00753D01*
X00365Y00786D02*
X00374Y00748D01*
X00394Y00747D02*
D01*
X00383Y00788D02*
X00393Y00753D01*
X00404Y00784D02*
X00414Y00748D01*
X00433Y00747D02*
D01*
X00424Y00784D02*
X00433Y00753D01*
X00442Y00785D02*
X00453Y00748D01*
X00178Y0057D02*
D01*
X00172Y0057D02*
X00172D01*
X0014Y00561D02*
X00172Y0057D01*
X00492Y00551D02*
X0053Y0056D01*
X00264Y00279D02*
X00299Y00302D01*
X00522Y00708D02*
X0053Y007D01*
X00498Y00648D02*
X00528Y0064D01*
X00453Y00629D02*
X00483Y00646D01*
X00492Y00629D02*
X00527Y0062D01*
X00582Y0058D02*
X00639Y00639D01*
X00592Y00614D02*
X006Y00648D01*
X00581Y00602D02*
X00589Y0061D01*
X00602Y00655D02*
X00639Y00739D01*
X00602Y00323D02*
X00639Y00239D01*
X00579Y00441D02*
X00599Y00332D01*
X00602Y00423D02*
X00639Y00339D01*
X00591Y00449D02*
X00602Y00424D01*
X0058Y00463D02*
X00589Y00452D01*
X00423Y00396D02*
X00433Y00427D01*
X00414Y00472D02*
X00431Y00442D01*
X00404Y00395D02*
X00414Y00433D01*
X00335D02*
X00344Y00396D01*
X00093Y01407D02*
X0018Y01271D01*
X00187Y01264D02*
X00247Y0123D01*
X00252Y01228D02*
X00331Y01212D01*
X00333Y01211D02*
X00333D01*
X0039Y01173D02*
X0044Y0119D01*
X0045Y01198D02*
X00585Y01407D01*
X00391Y0124D02*
X00414Y01224D01*
X00414Y01223D02*
X00433Y01208D01*
X00344Y01203D02*
Y01203D01*
X0019Y01149D02*
X00231Y01169D01*
X0019Y01114D02*
X00231Y01094D01*
X00425Y00923D02*
X0046Y00981D01*
X00437Y0087D02*
X00471Y00845D01*
X00473Y00844D02*
X00481Y00837D01*
X00425Y01002D02*
X0046Y0106D01*
X0041Y00909D02*
X0042Y00986D01*
X00429Y00863D02*
X00452Y00845D01*
X00453Y00845D02*
X00463Y00836D01*
X0014Y00541D02*
X00177Y00551D01*
X0014Y0058D02*
X00177Y0059D01*
X00178Y0061D02*
D01*
X00141Y006D02*
X00172Y00609D01*
X00139Y00619D02*
X00177Y00629D01*
X00141Y00738D02*
X00172Y00729D01*
X00178Y00728D02*
X00217D01*
X00141Y0066D02*
X00171Y0065D01*
X00142Y00699D02*
X00171Y00689D01*
X00174Y00689D02*
D01*
X00142Y00679D02*
X00177Y00669D01*
X00142Y00718D02*
X00177Y00708D01*
X00237Y00428D02*
X00244Y00396D01*
X00237Y00433D02*
D01*
X00278Y00265D02*
D01*
X003Y00303D02*
X00306Y00308D01*
X00309Y0031D02*
X00353Y00334D01*
X00354Y00335D02*
X00362Y00342D01*
X00138Y00281D02*
X00205Y00271D01*
X00143Y00443D02*
X00177Y00433D01*
X00142Y00462D02*
X00177Y00472D01*
X00296Y00433D02*
X00303Y00396D01*
X00276Y00429D02*
X00283Y00395D01*
X00276Y00433D02*
D01*
X00256Y00472D02*
X00273Y00442D01*
X00256Y00433D02*
X00264Y00395D01*
X00217Y00472D02*
X00234Y00442D01*
X00138Y00231D02*
X00221Y00232D01*
X0026Y00153D02*
X00362Y00131D01*
X00138Y00181D02*
X0026Y00192D01*
X00191Y00395D02*
X00217Y00433D01*
X00555Y00374D02*
X00555Y00334D01*
X00555Y00281*
X00311Y00566D02*
X00308Y0057D01*
X00304Y00572*
X00298*
X00295Y0057*
X00291Y00566*
X00289Y0056*
Y00557*
X00291Y00551*
X00295Y00547*
X00298Y00545*
X00304*
X00308Y00547*
X00311Y00551*
X0034Y00566D02*
X00339Y0057D01*
X00333Y00572*
X00327*
X00322Y0057*
X0032Y00566*
X00322Y00562*
X00325Y0056*
X00335Y00559*
X00339Y00557*
X0034Y00553*
Y00551*
X00339Y00547*
X00333Y00545*
X00327*
X00322Y00547*
X0032Y00551*
X00349Y00572D02*
X00356Y00545D01*
X00364Y00572D02*
X00356Y00545D01*
X00364Y00572D02*
X00371Y00545D01*
X00379Y00572D02*
X00371Y00545D01*
X0039Y00549D02*
X00388Y00547D01*
X0039Y00545*
X00392Y00547*
X0039Y00549*
X00423Y00566D02*
X00419Y0057D01*
X00415Y00572*
X0041*
X00406Y0057*
X00402Y00566*
X004Y0056*
Y00557*
X00402Y00551*
X00406Y00547*
X0041Y00545*
X00415*
X00419Y00547*
X00423Y00551*
X00431Y00572D02*
X00452Y00545D01*
Y00572D02*
X00431Y00545D01*
X00291Y00616D02*
Y00618D01*
X00293Y00622*
X00295Y00624*
X00298Y00625*
X00306*
X0031Y00624*
X00311Y00622*
X00313Y00618*
Y00614*
X00311Y0061*
X00308Y00605*
X00289Y00586*
X00315*
X00335Y00625D02*
X0033Y00624D01*
X00326Y00618*
X00324Y00609*
Y00603*
X00326Y00594*
X0033Y00588*
X00335Y00586*
X00339*
X00345Y00588*
X00348Y00594*
X0035Y00603*
Y00609*
X00348Y00618*
X00345Y00624*
X00339Y00625*
X00335*
X00361Y00616D02*
Y00618D01*
X00363Y00622*
X00365Y00624*
X00368Y00625*
X00376*
X0038Y00624*
X00382Y00622*
X00383Y00618*
Y00614*
X00382Y0061*
X00378Y00605*
X00359Y00586*
X00385*
X00405Y00625D02*
X004Y00624D01*
X00396Y00618*
X00394Y00609*
Y00603*
X00396Y00594*
X004Y00588*
X00405Y00586*
X00409*
X00415Y00588*
X00418Y00594*
X0042Y00603*
Y00609*
X00418Y00618*
X00415Y00624*
X00409Y00625*
X00405*
X00303Y00677D02*
Y00637D01*
X0029Y00677D02*
X00316D01*
X00349Y00667D02*
X00347Y00671D01*
X00343Y00675*
X0034Y00677*
X00332*
X00328Y00675*
X00325Y00671*
X00323Y00667*
X00321Y00662*
Y00652*
X00323Y00647*
X00325Y00643*
X00328Y00639*
X00332Y00637*
X0034*
X00343Y00639*
X00347Y00643*
X00349Y00647*
X00386Y00671D02*
X00382Y00675D01*
X00377Y00677*
X00369*
X00364Y00675*
X0036Y00671*
Y00667*
X00362Y00664*
X00364Y00662*
X00367Y0066*
X00379Y00656*
X00382Y00654*
X00384Y00652*
X00386Y00649*
Y00643*
X00382Y00639*
X00377Y00637*
X00369*
X00364Y00639*
X0036Y00643*
G54D12*
X00362Y00131D03*
Y00181D03*
Y00231D03*
Y00281D03*
X00138Y00131D03*
Y00181D03*
Y00231D03*
Y00281D03*
G54D13*
X00114Y00501D03*
X00555D03*
Y0058D03*
Y006D03*
Y00679D03*
Y00442D03*
Y00462D03*
Y00482D03*
Y00521D03*
Y00541D03*
Y00561D03*
Y0062D03*
Y00639D03*
Y00659D03*
Y00698D03*
Y00718D03*
Y00738D03*
X00114Y006D03*
Y0058D03*
Y00679D03*
Y00482D03*
Y00462D03*
Y00442D03*
Y00561D03*
Y00541D03*
Y00521D03*
Y00659D03*
Y00639D03*
Y0062D03*
Y00738D03*
Y00718D03*
Y00698D03*
G54D14*
X00112Y01094D03*
Y01169D03*
X00231D03*
Y01094D03*
G54D15*
X00231Y01131D03*
G54D16*
X00326Y01171D03*
Y01151D03*
Y01112D03*
Y01092D03*
X00292D03*
Y01112D03*
Y01151D03*
Y01171D03*
G54D17*
X00326Y01131D03*
X00292D03*
G54D18*
X00585Y01407D03*
X00624D03*
X00516Y00334D03*
X00555D03*
X00093Y01407D03*
X00053D03*
G54D19*
X00437Y00295D03*
Y00255D03*
Y00118D03*
Y00157D03*
X00555Y00374D03*
Y00413D03*
X0039Y01173D03*
Y01133D03*
Y01082D03*
Y01043D03*
X00152Y00374D03*
Y00334D03*
X00103Y00777D03*
Y00816D03*
X00565D03*
Y00777D03*
G54D20*
X00339Y00994D03*
X00376Y00895D03*
X00301D03*
G54D21*
X00103Y00344D03*
Y00403D03*
G54D22*
X00424Y00811D03*
X00345D03*
X00325D03*
X00246D03*
X00483D03*
X00463D03*
X00443D03*
X00404D03*
X00384D03*
X00364D03*
X00305D03*
X00286D03*
X00266D03*
X00227D03*
X00207D03*
X00187D03*
X00325Y0037D03*
X00345D03*
X00424D03*
X00246D03*
X00443D03*
X00463D03*
X00483D03*
X00364D03*
X00384D03*
X00404D03*
X00266D03*
X00286D03*
X00305D03*
X00187D03*
X00207D03*
X00227D03*
G54D23*
X00219Y00887D03*
Y00962D03*
X00124Y00887D03*
Y00962D03*
G54D24*
X00112Y01033D03*
X00172D03*
X0028D03*
X00221D03*
G54D51*
X00315Y00302D03*
G54D52*
X0028Y01011D02*
D01*
X0028Y01008*
X0028Y01005*
X00281Y01001*
X00282Y00998*
X00283Y00995*
X00284Y00992*
X00285Y00989*
X00287Y00986*
X00289Y00983*
X00291Y00981*
X00293Y00978*
X00294Y00978*
X00124Y00962D02*
X00174Y0096D01*
X00319Y01031D02*
X00339Y01011D01*
X00319Y01031D02*
D01*
X00339Y00988D02*
Y00994D01*
X00294Y00978D02*
X00376Y00895D01*
X0028Y01011D02*
Y01033D01*
X00231Y01094D02*
X0028Y01033D01*
G54D53*
X00555Y00281D03*
G54D54*
X00555Y00131D03*
G54D55*
X00477Y00131D03*
Y00281D03*
G54D56*
X00452Y00206D03*
G54D57*
X0058Y00206D03*
G54D58*
X00339Y01279D03*
X0039D03*
X00364D03*
X00313D03*
X00288D03*
G54D59*
X00463Y01296D03*
X00211Y01295D03*
G54D60*
X00039Y01039D03*
Y00439D03*
Y00039D03*
Y00139D03*
Y00239D03*
Y00639D03*
Y00539D03*
Y00939D03*
Y00839D03*
Y01339D03*
Y00339D03*
Y00739D03*
Y01139D03*
X00639Y01039D03*
Y00439D03*
Y00039D03*
Y00139D03*
Y00239D03*
Y00639D03*
Y00539D03*
Y00939D03*
Y00839D03*
Y01239D03*
Y00339D03*
Y00739D03*
Y01139D03*
X00539D03*
X00439Y00039D03*
X00539D03*
X00139D03*
X00339D03*
X0046Y00903D03*
Y00981D03*
Y0106D03*
Y01139D03*
X00539Y0106D03*
Y00981D03*
Y01239D03*
X00139D03*
G54D61*
X00039Y01239D03*
X00639Y01339D03*
X00539Y00903D03*
G54D62*
X00239Y00039D03*
G54D63*
X00473Y01394D03*
X00205D03*
G54D64*
X00092Y-00009D03*
X00108D03*
X00124D03*
X00139D03*
X00141Y-0007D03*
X00125D03*
X0011D03*
X00094D03*
X00584D03*
X00568D03*
X00553D03*
X00537D03*
X00539Y-00009D03*
X00555D03*
X0057D03*
X00586D03*
Y01456D03*
X0057D03*
X00555D03*
X00539D03*
X00537Y01517D03*
X00553D03*
X00568D03*
X00584D03*
X00094D03*
X0011D03*
X00125D03*
X00141D03*
X00139Y01456D03*
X00124D03*
X00108D03*
X00092D03*
G54D65*
X00292Y0107D03*
X00327D03*
X00292Y01192D03*
X00327D03*
X00174Y01066D03*
Y0096D03*
X00555Y00413D03*
X00508Y00374D03*
X00477Y00232D03*
X00343Y00181D03*
X00174Y00925D03*
X00319Y01031D03*
X00386D03*
X00374Y01137D03*
X00256Y00748D03*
X0026Y0009D03*
X00225D03*
X00189D03*
X00067Y00188D03*
X00292Y00244D03*
X0026Y00232D03*
X00402Y01208D03*
X00433D03*
X0037D03*
X00256Y01248D03*
X0054Y01381D03*
X00256Y00314D03*
X00158Y0083D03*
X00138Y00787D03*
X00199Y01131D03*
X00063Y00489D03*
Y00389D03*
X0026Y00192D03*
Y00153D03*
X00221Y00232D03*
X00205Y00271D03*
X00288Y00318D03*
X00264Y00279D03*
X00453Y00748D03*
X00492D03*
X00335D03*
X00374D03*
X00414D03*
X00296D03*
X00453Y00708D03*
X00492D03*
X00335D03*
X00374D03*
X00414D03*
X00296D03*
X00256D03*
X00217D03*
X00177D03*
X00453Y00669D03*
X00492D03*
X00217D03*
X00177D03*
X00453Y00629D03*
X00492D03*
X00217D03*
X00177D03*
X00217Y0059D03*
X00177D03*
X00492Y00551D03*
X00256D03*
X00177D03*
X00414Y00511D03*
X00296D03*
X00177D03*
Y00472D03*
X00217D03*
X00256D03*
X00414D03*
X00492D03*
X00453D03*
Y00433D03*
X00492D03*
X00335D03*
X00414D03*
X00296D03*
X00256D03*
X00217D03*
X00177D03*
M02*