%FSTAX23Y23*%
%MOIN*%
%SFA1B1*%

%IPPOS*%
%ADD10C,0.003940*%
%LNcs_ranka-1*%
%LPD*%
G54D10*
X00051Y-00078D02*
D01*
X00053Y-00078*
X00056Y-00078*
X00059Y-00077*
X00062Y-00077*
X00064Y-00076*
X00067Y-00075*
X00069Y-00074*
X00072Y-00072*
X00074Y-00071*
X00076Y-00069*
X00078Y-00067*
X0008Y-00065*
X00082Y-00063*
X00083Y-00061*
X00085Y-00059*
X00086Y-00056*
X00087Y-00054*
X00088Y-00051*
X00089Y-00048*
X00089Y-00046*
X0009Y-00043*
X0009Y-0004*
Y-00037*
X0009Y-00035*
X00089Y-00032*
X00089Y-00029*
X00088Y-00027*
X00087Y-00024*
X00086Y-00022*
X00085Y-00019*
X00083Y-00017*
X00082Y-00015*
X0008Y-00013*
X00078Y-00011*
X00076Y-00009*
X00074Y-00007*
X00072Y-00005*
X00069Y-00004*
X00067Y-00003*
X00064Y-00002*
X00062Y-00001*
X00059Y0*
X00056Y0*
X00053Y0*
X00051Y0*
X00627D02*
D01*
X00624Y0*
X00622Y0*
X00619Y0*
X00616Y-00001*
X00614Y-00002*
X00611Y-00003*
X00609Y-00004*
X00606Y-00005*
X00604Y-00007*
X00602Y-00009*
X006Y-00011*
X00598Y-00013*
X00596Y-00015*
X00594Y-00017*
X00593Y-00019*
X00592Y-00022*
X00591Y-00024*
X0059Y-00027*
X00589Y-00029*
X00588Y-00032*
X00588Y-00035*
X00588Y-00037*
Y-0004*
X00588Y-00043*
X00588Y-00046*
X00589Y-00048*
X0059Y-00051*
X00591Y-00054*
X00592Y-00056*
X00593Y-00059*
X00594Y-00061*
X00596Y-00063*
X00598Y-00065*
X006Y-00067*
X00602Y-00069*
X00604Y-00071*
X00606Y-00072*
X00609Y-00074*
X00611Y-00075*
X00614Y-00076*
X00616Y-00077*
X00619Y-00077*
X00622Y-00078*
X00624Y-00078*
X00627Y-00078*
Y01525D02*
D01*
X00624Y01525*
X00622Y01525*
X00619Y01524*
X00616Y01524*
X00614Y01523*
X00611Y01522*
X00609Y0152*
X00606Y01519*
X00604Y01518*
X00602Y01516*
X006Y01514*
X00598Y01512*
X00596Y0151*
X00594Y01508*
X00593Y01505*
X00592Y01503*
X00591Y015*
X0059Y01498*
X00589Y01495*
X00588Y01493*
X00588Y0149*
X00588Y01487*
Y01484*
X00588Y01482*
X00588Y01479*
X00589Y01476*
X0059Y01474*
X00591Y01471*
X00592Y01468*
X00593Y01466*
X00594Y01464*
X00596Y01461*
X00598Y01459*
X006Y01457*
X00602Y01456*
X00604Y01454*
X00606Y01452*
X00609Y01451*
X00611Y0145*
X00614Y01449*
X00616Y01448*
X00619Y01447*
X00622Y01447*
X00624Y01446*
X00627Y01446*
X00051D02*
D01*
X00053Y01446*
X00056Y01447*
X00059Y01447*
X00062Y01448*
X00064Y01449*
X00067Y0145*
X00069Y01451*
X00072Y01452*
X00074Y01454*
X00076Y01456*
X00078Y01457*
X0008Y01459*
X00082Y01461*
X00083Y01464*
X00085Y01466*
X00086Y01468*
X00087Y01471*
X00088Y01474*
X00089Y01476*
X00089Y01479*
X0009Y01482*
X0009Y01484*
Y01487*
X0009Y0149*
X00089Y01493*
X00089Y01495*
X00088Y01498*
X00087Y015*
X00086Y01503*
X00085Y01505*
X00083Y01508*
X00082Y0151*
X0008Y01512*
X00078Y01514*
X00076Y01516*
X00074Y01518*
X00072Y01519*
X00069Y0152*
X00067Y01522*
X00064Y01523*
X00062Y01524*
X00059Y01524*
X00056Y01525*
X00053Y01525*
X00051Y01525*
X00797Y-00196D02*
Y-00078D01*
X0Y-00196D02*
X00797D01*
X00627Y-00078D02*
X00797D01*
X0Y0D02*
X00051D01*
X00627D02*
X00678D01*
X0Y-00078D02*
X00051D01*
X0Y-00196D02*
Y-00078D01*
Y01643D02*
X00679D01*
X00678Y01525D02*
Y01643D01*
X0Y01525D02*
Y01643D01*
Y01525D02*
X00051D01*
X00627D02*
X00678D01*
X00627Y01446D02*
X00678D01*
X0D02*
X00051D01*
X0D02*
Y0D01*
X00678Y01446D02*
Y0D01*
M02*