%FSTAX23Y23*%
%MOIN*%
%SFA1B1*%

%IPPOS*%
%AMD61*
4,1,8,0.029500,-0.022100,0.029500,0.022100,0.022100,0.029500,-0.022100,0.029500,-0.029500,0.022100,-0.029500,-0.022100,-0.022100,-0.029500,0.022100,-0.029500,0.029500,-0.022100,0.0*
1,1,0.014760,0.022100,-0.022100*
1,1,0.014760,0.022100,0.022100*
1,1,0.014760,-0.022100,0.022100*
1,1,0.014760,-0.022100,-0.022100*
%
%AMD62*
4,1,8,0.022100,0.029500,-0.022100,0.029500,-0.029500,0.022100,-0.029500,-0.022100,-0.022100,-0.029500,0.022100,-0.029500,0.029500,-0.022100,0.029500,0.022100,0.022100,0.029500,0.0*
1,1,0.014760,0.022100,0.022100*
1,1,0.014760,-0.022100,0.022100*
1,1,0.014760,-0.022100,-0.022100*
1,1,0.014760,0.022100,-0.022100*
%
%ADD10C,0.007870*%
%ADD11C,0.005910*%
%ADD52C,0.015750*%
%ADD60C,0.059060*%
G04~CAMADD=61~8~0.0~0.0~590.6~590.6~73.8~0.0~15~0.0~0.0~0.0~0.0~0~0.0~0.0~0.0~0.0~0~0.0~0.0~0.0~270.0~590.0~590.0*
%ADD61D61*%
G04~CAMADD=62~8~0.0~0.0~590.6~590.6~73.8~0.0~15~0.0~0.0~0.0~0.0~0~0.0~0.0~0.0~0.0~0~0.0~0.0~0.0~0.0~590.6~590.6*
%ADD62D62*%
%ADD65C,0.017720*%
%LNcs_ranka-1*%
%LPD*%
G36*
X00654Y01377D02*
X00617D01*
X00611Y01375*
X00606Y01372*
X00602Y01367*
X00601Y01361*
Y01317*
X00602Y01311*
X00606Y01306*
X00611Y01302*
X00617Y01301*
X00654*
Y01283*
X00648Y01279*
X00639Y01281*
X00628Y01279*
X00618Y01275*
X00614Y01272*
X00643Y01243*
X00639Y01239*
X00643Y01235*
X00614Y01206*
X00618Y01203*
X00628Y01199*
X00639Y01197*
X00648Y01198*
X00654Y01195*
Y01178*
X0065Y01176*
X00648Y01175*
X00639Y01177*
X00629Y01175*
X0062Y01172*
X00612Y01166*
X00606Y01158*
X00602Y01149*
X00601Y01139*
X00602Y01129*
X00606Y0112*
X00612Y01112*
X0062Y01106*
X00629Y01102*
X00639Y01101*
X00648Y01102*
X0065Y01102*
X00654Y01099*
Y01078*
X0065Y01076*
X00648Y01075*
X00639Y01077*
X00629Y01075*
X0062Y01072*
X00612Y01066*
X00606Y01058*
X00602Y01049*
X00601Y01039*
X00602Y01029*
X00606Y0102*
X00612Y01012*
X0062Y01006*
X00629Y01002*
X00639Y01001*
X00648Y01002*
X0065Y01002*
X00654Y00999*
Y00978*
X0065Y00976*
X00648Y00975*
X00639Y00977*
X00629Y00975*
X0062Y00972*
X00612Y00966*
X00606Y00958*
X00602Y00949*
X00601Y00939*
X00602Y00929*
X00606Y0092*
X00612Y00912*
X0062Y00906*
X00629Y00902*
X00639Y00901*
X00648Y00902*
X0065Y00902*
X00654Y00899*
Y00878*
X0065Y00876*
X00648Y00875*
X00639Y00877*
X00629Y00875*
X0062Y00872*
X00612Y00866*
X00606Y00858*
X00602Y00849*
X00601Y00839*
X00602Y00829*
X00606Y0082*
X00612Y00812*
X0062Y00806*
X00629Y00802*
X00639Y00801*
X00648Y00802*
X0065Y00802*
X00654Y00799*
Y00778*
X0065Y00776*
X00648Y00775*
X00639Y00777*
X00629Y00775*
X0062Y00772*
X00612Y00766*
X00606Y00758*
X00602Y00749*
X00601Y00739*
X00602Y00729*
X00606Y0072*
X00612Y00712*
X0062Y00706*
X00629Y00702*
X00639Y00701*
X00648Y00702*
X0065Y00702*
X00654Y00699*
Y00678*
X0065Y00676*
X00648Y00675*
X00639Y00677*
X00629Y00675*
X0062Y00672*
X00612Y00666*
X00606Y00658*
X00602Y00649*
X00601Y00639*
X00602Y00629*
X00606Y0062*
X00612Y00612*
X0062Y00606*
X00629Y00602*
X00639Y00601*
X00648Y00602*
X0065Y00602*
X00654Y00599*
Y00578*
X0065Y00576*
X00648Y00575*
X00639Y00577*
X00629Y00575*
X0062Y00572*
X00612Y00566*
X00606Y00558*
X00602Y00549*
X00601Y00539*
X00602Y00529*
X00606Y0052*
X00612Y00512*
X0062Y00506*
X00629Y00502*
X00639Y00501*
X00648Y00502*
X0065Y00502*
X00654Y00499*
Y00478*
X0065Y00476*
X00648Y00475*
X00639Y00477*
X00629Y00475*
X0062Y00472*
X00612Y00466*
X00606Y00458*
X00602Y00449*
X00601Y00439*
X00602Y00429*
X00606Y0042*
X00612Y00412*
X0062Y00406*
X00629Y00402*
X00639Y00401*
X00648Y00402*
X0065Y00402*
X00654Y00399*
Y00378*
X0065Y00376*
X00648Y00375*
X00639Y00377*
X00629Y00375*
X0062Y00372*
X00612Y00366*
X00606Y00358*
X00602Y00349*
X00601Y00339*
X00602Y00329*
X00606Y0032*
X00612Y00312*
X0062Y00306*
X00629Y00302*
X00639Y00301*
X00648Y00302*
X0065Y00302*
X00654Y00299*
Y00278*
X0065Y00276*
X00648Y00275*
X00639Y00277*
X00629Y00275*
X0062Y00272*
X00612Y00266*
X00606Y00258*
X00602Y00249*
X00601Y00239*
X00602Y00229*
X00606Y0022*
X00612Y00212*
X0062Y00206*
X00629Y00202*
X00639Y00201*
X00648Y00202*
X0065Y00202*
X00654Y00199*
Y00178*
X0065Y00176*
X00648Y00175*
X00639Y00177*
X00629Y00175*
X0062Y00172*
X00612Y00166*
X00606Y00158*
X00602Y00149*
X00601Y00139*
X00602Y00129*
X00606Y0012*
X00612Y00112*
X0062Y00106*
X00629Y00102*
X00639Y00101*
X00648Y00102*
X0065Y00102*
X00654Y00099*
Y00078*
X0065Y00076*
X00648Y00075*
X00639Y00077*
X00629Y00075*
X0062Y00072*
X00612Y00066*
X00606Y00058*
X00602Y00049*
X00601Y00039*
X00577*
X00575Y00049*
X00572Y00058*
X00566Y00066*
X00558Y00072*
X00549Y00075*
X00539Y00077*
X00529Y00075*
X0052Y00072*
X00512Y00066*
X00506Y00058*
X00502Y00049*
X00501Y00039*
X00477*
X00475Y00049*
X00472Y00058*
X00466Y00066*
X00458Y00072*
X00449Y00075*
X00439Y00077*
X00429Y00075*
X0042Y00072*
X00412Y00066*
X00406Y00058*
X00402Y00049*
X00401Y00039*
X00377*
X00375Y00049*
X00372Y00058*
X00366Y00066*
X00358Y00072*
X00349Y00075*
X00339Y00077*
X00329Y00075*
X0032Y00072*
X00312Y00066*
X00306Y00058*
X00302Y00049*
X00301Y00039*
X00277*
Y00049*
X00483Y00216*
X00483Y00216*
X00489Y0022*
X00492Y00225*
X00493Y00228*
X0059Y00392*
X0059Y00392*
X00591Y00393*
X00595Y00402*
X00596Y00413*
X00596Y00415*
X00596Y00416*
X00593Y00446*
X00583Y00759*
X00583Y0076*
X00583Y00762*
X00583Y00763*
Y00763*
X00583Y00764*
Y00764*
X00563Y00865*
X00567Y00866*
X00572Y0087*
X00575Y00875*
X00577Y00881*
Y00925*
X00575Y00931*
X00572Y00936*
X00567Y00939*
X00561Y0094*
X00553*
X00552Y00946*
X00558Y00949*
X00566Y00955*
X00572Y00963*
X00575Y00972*
X00577Y00981*
X00575Y00991*
X00572Y01*
X00566Y01008*
X00558Y01014*
X00549Y01018*
Y01024*
X00558Y01027*
X00566Y01033*
X00572Y01041*
X00575Y0105*
X00577Y0106*
X00575Y0107*
X00572Y01079*
X00566Y01087*
X00558Y01093*
X00549Y01097*
Y01102*
X00558Y01106*
X00566Y01112*
X00572Y0112*
X00575Y01129*
X00577Y01139*
X00575Y01149*
X00572Y01158*
X00566Y01166*
X00558Y01172*
X00549Y01175*
X00539Y01177*
X00529Y01175*
X0052Y01172*
X00512Y01166*
X00506Y01158*
X00502Y01149*
X00497*
X00493Y01158*
X00487Y01166*
X00479Y01172*
X0047Y01175*
X0046Y01177*
X0045Y01175*
X00441Y01172*
X00433Y01166*
X00427Y01158*
X00424Y01149*
X00422Y01139*
X00424Y01129*
X00427Y0112*
X00433Y01112*
X00441Y01106*
X0045Y01102*
Y01097*
X00441Y01093*
X00433Y01087*
X00427Y01079*
X00424Y0107*
X00422Y0106*
X00424Y0105*
X00427Y01041*
X00433Y01033*
X00441Y01027*
X0045Y01024*
Y01018*
X00441Y01014*
X00433Y01008*
X00427Y01*
X00424Y00991*
X00422Y00981*
X00424Y00972*
X00427Y00963*
X00433Y00955*
X00441Y00949*
X00445Y00947*
Y00941*
X00439Y00939*
X00435Y00936*
X0046Y00911*
X00485Y00936*
X00481Y00939*
X00476Y00941*
Y00947*
X00479Y00949*
X00487Y00955*
X00493Y00963*
X00497Y00972*
X00502*
X00506Y00963*
X00512Y00955*
X0052Y00949*
X00526Y00946*
X00525Y0094*
X00517*
X00511Y00939*
X00506Y00936*
X00502Y00931*
X00501Y00926*
X005Y00925*
X00498Y00925*
X00495Y00925*
X00493Y00927*
X00468Y00903*
X00493Y00878*
X00495Y00881*
X00498Y00881*
X005Y0088*
X00501Y00879*
X00502Y00875*
X00506Y0087*
X00511Y00866*
X00517Y00865*
X0053*
X0055Y00763*
X00551Y00758*
X00551Y00752*
X00561Y00444*
X00561Y00444*
X00561Y00443*
X00562Y00435*
X00557Y0043*
X00555Y0043*
X00549Y00429*
X00549Y00428*
X00548Y00429*
X00546Y00429*
X00543Y00432*
X00543Y00432*
X00543Y00433*
X00543Y00433*
X00543Y00439*
Y00466*
X00543Y00472*
X00543Y00472*
X00542Y00482*
X00541Y00484*
X00541Y00485*
X00524Y00553*
X00522Y00558*
X00522Y00559*
X00521Y00561*
X00521Y00562*
X0052Y00563*
X00519Y00566*
X00519Y00566*
X00516Y00571*
X00495Y00607*
X00498Y00614*
X00499Y00614*
X00504Y00617*
X00508Y00623*
X00509Y00629*
X00508Y00636*
X00504Y00641*
X00499Y00645*
X00494Y00646*
Y00652*
X00499Y00653*
X00504Y00657*
X00508Y00662*
X00509Y00669*
X00509Y00672*
X0052Y00691*
X0052Y00691*
X00521Y00692*
X00522Y00694*
X00522Y00695*
X00537Y00728*
X00537Y00728*
X00537Y00729*
X0054Y00738*
X00541Y00748*
X0054Y00757*
X00537Y00766*
X00533Y00774*
X0053Y00778*
X00529Y00779*
X00463Y00855*
X00465Y00862*
X00471Y00862*
X00481Y00867*
X00485Y0087*
X00456Y00898*
X00427Y00927*
X00426Y00926*
X00419Y00926*
X00388Y01004*
X00391Y01011*
X00392Y01011*
X00396Y01013*
X00382Y01027*
X00386Y01031*
X00382Y01035*
X00396Y01049*
X00392Y01051*
X00389Y01051*
X00385Y01057*
X00406Y01128*
X00406Y01128*
X00406Y01129*
X00407Y01137*
X00406Y01146*
X00403Y01154*
X004Y01158*
X00399Y01159*
X00375Y01187*
X00376Y01191*
X00378Y01193*
X00382Y01196*
X00383Y01197*
X00389*
X0039Y01196*
X00395Y01192*
X00402Y01191*
X00408Y01192*
X00414Y01196*
X00415Y01197*
X00421*
X00421Y01196*
X00427Y01192*
X00433Y01191*
X0044Y01192*
X00443Y01195*
X00509Y01217*
X00512Y01212*
X0052Y01206*
X00529Y01202*
X00539Y01201*
X00549Y01202*
X00558Y01206*
X00566Y01212*
X00572Y0122*
X00575Y01229*
X00577Y01239*
X00575Y01249*
X00572Y01258*
X00566Y01266*
X00558Y01272*
X00549Y01275*
X00539Y01277*
X00529Y01275*
X0052Y01272*
X00512Y01266*
X00506Y01258*
X00502Y01249*
X00434Y01225*
X00433Y01225*
X00427Y01224*
X00421Y0122*
X00421Y01219*
X00415*
X00414Y0122*
X00408Y01224*
X00402Y01225*
X00395Y01224*
X0039Y0122*
X00389Y01219*
X00383*
X00382Y0122*
X00377Y01224*
X0037Y01225*
X00364Y01224*
X00358Y0122*
X00356Y01217*
X00356Y01217*
X00354Y01217*
X0035Y01216*
X00349Y01216*
X00343Y01221*
X00336Y01224*
X00327Y01225*
X00319Y01224*
X00311Y01221*
X00309Y01219*
X00308Y01219*
X00294Y01209*
X00292Y01209*
X00285Y01208*
X0028Y01204*
X00276Y01199*
X00275Y01192*
X00276Y01186*
X0028Y0118*
X00285Y01177*
X00292Y01175*
X00298Y01177*
X00298Y01177*
X00303Y01173*
X00256Y0109*
X00256Y0109*
X00252Y01081*
X00251Y0107*
X00252Y01065*
X00252Y01064*
X00301Y00769*
X00297Y00764*
X00296Y00765*
X00289Y00763*
X00284Y0076*
X0028Y00754*
X00279Y00749*
X00273*
X00272Y00754*
X00268Y0076*
X00263Y00763*
X00256Y00765*
X0025Y00763*
X00244Y0076*
X0024Y00754*
X00239Y00748*
X0024Y00741*
X00244Y00735*
X0025Y00732*
X00254Y00731*
Y00725*
X0025Y00724*
X00244Y0072*
X0024Y00715*
X0024Y00712*
X0024Y0071*
X00234*
X00233Y00712*
X00233Y00715*
X00229Y0072*
X00223Y00724*
X00217Y00725*
X00214Y00725*
X00208Y00729*
Y00748*
X00208*
X00208Y00752*
X00208Y00753*
Y00753*
X00186Y00914*
X00189Y00918*
X00191Y00925*
X00189Y00931*
X00186Y00937*
X00182Y00939*
X00182Y00939*
Y00945*
X00182Y00946*
X00186Y00948*
X00189Y00954*
X00191Y0096*
X00189Y00967*
X00186Y00972*
X0018Y00976*
X00174Y00977*
X00167Y00976*
X00161Y00972*
X00158Y00967*
X00156Y0096*
X00158Y00954*
X00161Y00948*
X00165Y00946*
X00165Y00945*
Y00939*
X00165Y00939*
X00161Y00937*
X00158Y00931*
X00156Y00925*
X00158Y00918*
X00161Y00913*
X00164Y00911*
X00172Y00853*
X00171Y00851*
X00167Y00849*
X00163Y0085*
X00158Y00851*
X00152Y0085*
X00148Y00848*
X00162Y00834*
X00158Y0083*
X00162Y00826*
X00148Y00812*
X00152Y0081*
X00158Y00809*
X00163Y0081*
X00168Y00812*
X00171Y00814*
X00176Y00813*
X00177Y00812*
X00186Y00749*
X00186Y00749*
X00186Y00749*
X00186Y00748*
X00186Y00742*
Y00729*
X0018Y00725*
X00177Y00725*
X00171Y00724*
X00165Y0072*
X00162Y00715*
X0016Y00708*
X00162Y00702*
X00165Y00696*
X00171Y00692*
X00176Y00691*
Y00685*
X00171Y00685*
X00165Y00681*
X00162Y00675*
X0016Y00669*
X00162Y00662*
X00165Y00657*
X00171Y00653*
X00176Y00652*
Y00646*
X00171Y00645*
X00165Y00641*
X00162Y00636*
X0016Y00629*
X00162Y00623*
X00165Y00617*
X00171Y00614*
X00176Y00613*
Y00607*
X00171Y00606*
X00165Y00602*
X00162Y00597*
X0016Y0059*
X00162Y00584*
X00165Y00578*
X00171Y00574*
X00174Y00574*
X00176Y00573*
Y00567*
X00174Y00567*
X00171Y00566*
X00165Y00563*
X00162Y00557*
X0016Y00551*
X00162Y00544*
X00165Y00539*
X00169Y00536*
X00168Y0053*
X00168Y0053*
X00177Y0052*
X00187Y0053*
X00187Y0053*
X00186Y00536*
X0019Y00539*
X00193Y00544*
X00195Y00551*
X00193Y00557*
X0019Y00563*
X00184Y00566*
X00181Y00567*
X00179Y00567*
Y00573*
X00181Y00574*
X00184Y00574*
X0019Y00578*
X00193Y00584*
X00194Y00588*
X002*
X00201Y00584*
X00205Y00578*
X0021Y00574*
X00217Y00573*
X00223Y00574*
X00229Y00578*
X00233Y00584*
X00234Y0059*
X00233Y00597*
X00229Y00602*
X00223Y00606*
X00219Y00607*
Y00613*
X00223Y00614*
X00229Y00617*
X00233Y00623*
X00234Y00629*
X00233Y00636*
X00229Y00641*
X00223Y00645*
X00219Y00646*
Y00652*
X00223Y00653*
X00229Y00657*
X00233Y00662*
X00234Y00669*
X00233Y00675*
X00229Y00681*
X00223Y00685*
X00222Y00691*
X00223Y00692*
X00223Y00692*
X00229Y00696*
X00233Y00702*
X00233Y00704*
X00234Y00706*
X0024*
X0024Y00704*
X0024Y00702*
X00244Y00696*
X0025Y00692*
X00256Y00691*
X00263Y00692*
X00264Y00693*
X0027Y0069*
X00387Y00496*
X00387Y00495*
X00392Y0049*
X00398Y00485*
X00399Y00481*
X00398Y00478*
X00397Y00472*
X00398Y00465*
X00399Y00463*
X00398Y00459*
X00392Y00454*
X00387Y00448*
X00384Y00441*
X00383Y00433*
X00384Y00425*
X00387Y00417*
X00392Y00411*
X00394Y00409*
X00393Y00403*
X00275Y00377*
X00275Y00377*
X00265Y00374*
X00254Y00369*
X00249Y00364*
X00245Y00361*
X00245Y00361*
X00241Y00356*
X00227Y00343*
X00227*
X00227Y00343*
X00221Y00335*
X0022Y00332*
X00219Y00331*
X002Y00287*
X00198Y00287*
X00193Y00283*
X00189Y00278*
X00188Y00271*
X00189Y00265*
X00193Y00259*
X00198Y00255*
X00205Y00254*
X00212Y00255*
X00217Y00259*
X00221Y00265*
X00222Y00269*
X00228Y00269*
X00228Y00253*
X00223Y00248*
X00221Y00249*
X00214Y00248*
X00209Y00244*
X00205Y00238*
X00204Y00232*
X00205Y00225*
X00209Y0022*
X00214Y00216*
X00221Y00215*
X00227Y00216*
X0023Y00218*
X00233Y00216*
X00238Y0021*
X00245Y00205*
X00246Y00201*
X00244Y00199*
X00243Y00192*
X00244Y00186*
X00248Y0018*
X00254Y00177*
X00254Y00177*
X00255Y00175*
X00254Y00169*
X00248Y00165*
X00244Y0016*
X00243Y00153*
X00244Y00147*
X00248Y00141*
X00254Y00137*
X0026Y00136*
X00267Y00137*
X00272Y00141*
X00276Y00147*
X00277Y00153*
X00276Y00159*
X00284Y00172*
X00287Y00177*
X00287Y00177*
X0029Y00184*
X00291Y00192*
X0029Y002*
X00287Y00208*
X00282Y00214*
X00276Y00219*
X00274Y00223*
X00276Y00225*
X00276Y00227*
X00283Y00229*
X00285Y00228*
X00292Y00227*
X00298Y00228*
X00304Y00232*
X00307Y00237*
X00309Y00244*
X00307Y0025*
X00304Y00256*
X00298Y00259*
X00292Y00261*
X00285Y00259*
X0028Y00256*
X00276Y0025*
X00276Y00249*
X00269Y00246*
X00267Y00248*
X0026Y00249*
X00257Y00248*
X00251Y00252*
X0025Y00261*
X00256Y00264*
X00258Y00263*
X00264Y00262*
X00271Y00263*
X00276Y00267*
X0028Y00273*
X00281Y00279*
X0028Y00286*
X00276Y00291*
X00273Y00294*
X00272Y00297*
X00271Y00299*
X00272Y00301*
X00274Y00304*
X0028Y00303*
X00281Y00303*
X00288Y00301*
X00294Y00303*
X003Y00306*
X00303Y00312*
X00305Y00318*
X00303Y00325*
X003Y0033*
X00294Y00334*
X00288Y00335*
X00281Y00334*
X00276Y0033*
X00269Y00331*
X00269Y00331*
X00267Y00338*
X00268Y00338*
X00268Y00339*
X00273Y00343*
X0028Y00346*
X00282Y00346*
X00282Y00346*
X00282Y00346*
X00487Y0039*
X00491Y00385*
X0049Y00384*
X00488Y00379*
X00487Y00374*
X00488Y00368*
X0049Y00364*
X00504Y00378*
X00512Y00369*
X00496Y00353*
X00497Y0035*
X00344Y00197*
X00343Y00198*
X00336Y00196*
X00331Y00193*
X00327Y00187*
X00326Y00181*
X00327Y00174*
X00331Y00169*
X00336Y00165*
X00343Y00164*
X00349Y00165*
X00355Y00169*
X00359Y00174*
X0036Y00181*
X0036Y00182*
X00511Y00333*
X00516Y0033*
X00466Y00244*
X00465Y00244*
X00463Y00241*
X00282Y00094*
X00277Y00096*
X00276Y00097*
X00272Y00102*
X00267Y00106*
X0026Y00107*
X00254Y00106*
X00248Y00102*
X00246Y00099*
X00245Y00098*
X00239*
X00239Y00099*
X00237Y00102*
X00231Y00106*
X00225Y00107*
X00218Y00106*
X00213Y00102*
X0021Y00099*
X0021Y00098*
X00204*
X00204Y00099*
X00201Y00102*
X00196Y00106*
X00189Y00107*
X00183Y00106*
X00177Y00102*
X00174Y00097*
X00172Y0009*
X00174Y00084*
X00177Y00078*
X00183Y00074*
X00189Y00073*
X00196Y00074*
X00201Y00078*
X00206Y00077*
X00206Y00072*
X00202Y00067*
X00201Y00061*
Y00039*
X00181*
X00179Y0005*
X00175Y0006*
X00172Y00064*
X00143Y00035*
X00139Y00039*
X00135Y00035*
X00106Y00064*
X00103Y0006*
X00099Y0005*
X00097Y00039*
X00077*
X00075Y00049*
X00072Y00058*
X00066Y00066*
X00058Y00072*
X00049Y00075*
X00039Y00077*
X0003Y00075*
X00028Y00076*
X00024Y00078*
Y00099*
X00028Y00102*
X0003Y00102*
X00039Y00101*
X00049Y00102*
X00058Y00106*
X00066Y00112*
X00072Y0012*
X00075Y00129*
X00077Y00139*
X00075Y00149*
X00072Y00158*
X00066Y00166*
X00065Y00166*
X00067Y0017*
X00068Y00171*
X00074Y00173*
X00079Y00176*
X00083Y00182*
X00084Y00188*
X00083Y00195*
X00079Y00201*
X00074Y00204*
X00067Y00206*
X00066Y00205*
X00064Y00211*
X00066Y00212*
X00072Y0022*
X00075Y00229*
X00077Y00239*
X00075Y00249*
X00072Y00258*
X00066Y00266*
X00058Y00272*
X00049Y00275*
X00039Y00277*
X0003Y00275*
X00028Y00276*
X00024Y00278*
Y00299*
X00028Y00302*
X0003Y00302*
X00039Y00301*
X00049Y00302*
X00058Y00306*
X00066Y00312*
X00072Y0032*
X00075Y00329*
X00077Y00339*
X00075Y00349*
X00072Y00358*
X00066Y00366*
X00064Y00366*
X00066Y00373*
X0007Y00374*
X00075Y00377*
X00079Y00383*
X0008Y00386*
X00093Y00409*
X00093Y00411*
X00096Y00415*
X00099Y00427*
X001Y00439*
X00099Y00451*
X00096Y00462*
X00093Y00466*
X00093Y00468*
X00082Y00489*
X00093Y00509*
X00093Y00511*
X00096Y00515*
X00099Y00525*
X00099Y00526*
X00153Y00779*
X00154Y0078*
X00155Y00787*
X00154Y00793*
X0015Y00799*
X00145Y00803*
X00138Y00804*
X00132Y00803*
X00126Y00799*
X00122Y00793*
X00121Y00787*
X00121Y00785*
X00074Y00564*
X00068Y00563*
X00066Y00566*
X00058Y00572*
X00049Y00575*
X00039Y00577*
X0003Y00575*
X00028Y00576*
X00024Y00578*
Y00599*
X00028Y00602*
X0003Y00602*
X00039Y00601*
X00049Y00602*
X00058Y00606*
X00066Y00612*
X00072Y0062*
X00075Y00629*
X00077Y00639*
X00075Y00649*
X00072Y00658*
X00066Y00666*
X00058Y00672*
X00049Y00675*
X00039Y00677*
X0003Y00675*
X00028Y00676*
X00024Y00678*
Y00699*
X00028Y00702*
X0003Y00702*
X00039Y00701*
X00049Y00702*
X00058Y00706*
X00066Y00712*
X00072Y0072*
X00075Y00729*
X00077Y00739*
X00075Y00749*
X00072Y00758*
X00066Y00766*
X00058Y00772*
X00049Y00775*
X00039Y00777*
X0003Y00775*
X00028Y00776*
X00024Y00778*
Y00799*
X00028Y00802*
X0003Y00802*
X00039Y00801*
X00049Y00802*
X00058Y00806*
X00066Y00812*
X00072Y0082*
X00075Y00829*
X00077Y00839*
X00075Y00849*
X00072Y00858*
X00066Y00866*
X00058Y00872*
X00049Y00875*
X00039Y00877*
X0003Y00875*
X00028Y00876*
X00024Y00878*
Y00899*
X00028Y00902*
X0003Y00902*
X00039Y00901*
X00049Y00902*
X00058Y00906*
X00066Y00912*
X00072Y0092*
X00075Y00929*
X00077Y00939*
X00075Y00949*
X00072Y00958*
X00066Y00966*
X00058Y00972*
X00049Y00975*
X00039Y00977*
X0003Y00975*
X00028Y00976*
X00024Y00978*
Y00999*
X00028Y01002*
X0003Y01002*
X00039Y01001*
X00049Y01002*
X00058Y01006*
X00066Y01012*
X00072Y0102*
X00075Y01029*
X00077Y01039*
X00075Y01049*
X00072Y01058*
X00066Y01066*
X00058Y01072*
X00049Y01075*
X00039Y01077*
X0003Y01075*
X00028Y01076*
X00024Y01078*
Y01095*
X0003Y01098*
X00039Y01097*
X0005Y01099*
X0006Y01103*
X00064Y01106*
X00035Y01135*
X00039Y01139*
X00035Y01143*
X00064Y01172*
X0006Y01175*
X0005Y01179*
X00039Y01181*
X0003Y01179*
X00024Y01183*
Y01201*
X00061*
X00067Y01202*
X00072Y01206*
X00075Y01211*
X00077Y01217*
Y01261*
X00075Y01267*
X00072Y01272*
X00067Y01275*
X00061Y01277*
X00024*
Y01299*
X00028Y01302*
X0003Y01302*
X00039Y01301*
X00049Y01302*
X00058Y01306*
X00066Y01312*
X00072Y0132*
X00075Y01329*
X00077Y01339*
X00075Y01349*
X00072Y01358*
X00066Y01366*
X00058Y01372*
X00049Y01375*
X00039Y01377*
X0003Y01375*
X00028Y01376*
X00024Y01378*
Y01417*
X00174*
X00177Y01414*
Y01374*
X00178Y01367*
X00181Y0136*
X00185Y01355*
X00185Y01354*
X00183Y01349*
X00088*
Y0128*
X00125*
X00126Y01274*
X0012Y01272*
X00112Y01266*
X00106Y01258*
X00102Y01249*
X00101Y01239*
X00102Y01229*
X00106Y0122*
X00112Y01212*
X0012Y01206*
X00129Y01202*
X00139Y01201*
X00149Y01202*
X00158Y01206*
X00166Y01212*
X00172Y0122*
X00175Y01229*
X00177Y01239*
X00175Y01249*
X00172Y01258*
X00166Y01266*
X00158Y01272*
X00151Y01274*
X00153Y0128*
X00417*
Y01349*
X00227*
X00225Y01354*
X00225Y01355*
X00229Y0136*
X00232Y01367*
X00233Y01374*
Y01414*
X00236Y01417*
X00442*
X00445Y01414*
Y01374*
X00446Y01367*
X00449Y0136*
X00453Y01355*
X00459Y0135*
X00466Y01347*
X00473Y01347*
X0048Y01347*
X00487Y0135*
X00492Y01355*
X00497Y0136*
X005Y01367*
X00501Y01374*
Y01414*
X00503Y01417*
X00654*
Y01377*
G37*
%LNcs_ranka-2*%
%LPC*%
G36*
X0054Y01398D02*
X00533Y01397D01*
X00528Y01393*
X00524Y01388*
X00523Y01381*
X00524Y01375*
X00528Y01369*
X00533Y01366*
X0054Y01364*
X00546Y01366*
X00552Y01369*
X00555Y01375*
X00557Y01381*
X00555Y01388*
X00552Y01393*
X00546Y01397*
X0054Y01398*
G37*
G36*
X00256Y01265D02*
X0025Y01263D01*
X00244Y0126*
X0024Y01254*
X00239Y01248*
X0024Y01241*
X00244Y01235*
X0025Y01232*
X00256Y0123*
X00263Y01232*
X00268Y01235*
X00272Y01241*
X00273Y01248*
X00272Y01254*
X00268Y0126*
X00263Y01263*
X00256Y01265*
G37*
G36*
X00606Y01264D02*
X00603Y0126D01*
X00599Y0125*
X00597Y01239*
X00599Y01228*
X00603Y01218*
X00606Y01214*
X00631Y01239*
X00606Y01264*
G37*
G36*
X00199Y01148D02*
X00193Y01147D01*
X00187Y01143*
X00183Y01138*
X00182Y01131*
X00183Y01125*
X00187Y01119*
X00193Y01116*
X00199Y01114*
X00206Y01116*
X00211Y01119*
X00215Y01125*
X00216Y01131*
X00215Y01138*
X00211Y01143*
X00206Y01147*
X00199Y01148*
G37*
G36*
X00072Y01164D02*
X00047Y01139D01*
X00072Y01114*
X00075Y01118*
X00079Y01128*
X00081Y01139*
X00079Y0115*
X00075Y0116*
X00072Y01164*
G37*
G36*
X00174Y01083D02*
X00167Y01082D01*
X00161Y01078*
X00158Y01073*
X00156Y01066*
X00158Y0106*
X00161Y01054*
X00167Y01051*
X00174Y01049*
X0018Y01051*
X00186Y01054*
X00189Y0106*
X00191Y01066*
X00189Y01073*
X00186Y01078*
X0018Y01082*
X00174Y01083*
G37*
G36*
X00404Y01041D02*
X00394Y01031D01*
X00404Y01021*
X00406Y01026*
X00407Y01031*
X00406Y01036*
X00404Y01041*
G37*
G36*
X0014Y0084D02*
X00138Y00836D01*
X00137Y0083*
X00138Y00825*
X0014Y0082*
X00149Y0083*
X0014Y0084*
G37*
G36*
X00256Y00568D02*
X0025Y00566D01*
X00244Y00563*
X0024Y00557*
X00239Y00551*
X0024Y00544*
X00244Y00539*
X0025Y00535*
X00256Y00534*
X00263Y00535*
X00268Y00539*
X00272Y00544*
X00273Y00551*
X00272Y00557*
X00268Y00563*
X00263Y00566*
X00256Y00568*
G37*
G36*
X00196Y00521D02*
X00186Y00511D01*
X00196Y00501*
X00198Y00506*
X00198Y00511*
X00198Y00517*
X00196Y00521*
G37*
G36*
X00159D02*
X00157Y00517D01*
X00157Y00511*
X00157Y00506*
X00159Y00501*
X00169Y00511*
X00159Y00521*
G37*
G36*
X00296Y00528D02*
X00289Y00527D01*
X00284Y00523*
X0028Y00518*
X00279Y00511*
X0028Y00505*
X00284Y00499*
X00289Y00496*
X00296Y00494*
X00302Y00496*
X00308Y00499*
X00311Y00505*
X00313Y00511*
X00311Y00518*
X00308Y00523*
X00302Y00527*
X00296Y00528*
G37*
G36*
X00177Y00503D02*
X00168Y00493D01*
X00168Y00493*
X00169Y00486*
X00165Y00484*
X00162Y00478*
X0016Y00472*
X00162Y00465*
X00165Y0046*
X00171Y00456*
X00176Y00455*
Y00449*
X00171Y00448*
X00165Y00445*
X00162Y00439*
X0016Y00433*
X00162Y00426*
X00165Y00421*
X00171Y00417*
X00177Y00416*
X00184Y00417*
X0019Y00421*
X00193Y00426*
X00194Y00431*
X002*
X00201Y00426*
X00205Y00421*
X0021Y00417*
X00217Y00416*
X00223Y00417*
X00229Y00421*
X00233Y00426*
X00234Y00431*
X0024*
X0024Y00426*
X00244Y00421*
X0025Y00417*
X00256Y00416*
X00263Y00417*
X00268Y00421*
X00272Y00426*
X00272Y00429*
X00273Y00431*
X00279*
X00279Y00429*
X0028Y00426*
X00284Y00421*
X00289Y00417*
X00296Y00416*
X00302Y00417*
X00308Y00421*
X00311Y00426*
X00312Y00429*
X00312Y00431*
X00318*
X00319Y00429*
X00319Y00426*
X00323Y00421*
X00328Y00417*
X00335Y00416*
X00341Y00417*
X00347Y00421*
X00351Y00426*
X00352Y00433*
X00351Y00439*
X00347Y00445*
X00341Y00448*
X00335Y0045*
X00328Y00448*
X00323Y00445*
X00319Y00439*
X00319Y00436*
X00318Y00435*
X00312*
X00312Y00436*
X00311Y00439*
X00308Y00445*
X00302Y00448*
X00296Y0045*
X00289Y00448*
X00284Y00445*
X0028Y00439*
X00279Y00436*
X00279Y00435*
X00273*
X00272Y00436*
X00272Y00439*
X00268Y00445*
X00263Y00448*
X00258Y00449*
Y00455*
X00263Y00456*
X00268Y0046*
X00272Y00465*
X00273Y00472*
X00272Y00478*
X00268Y00484*
X00263Y00488*
X00256Y00489*
X0025Y00488*
X00244Y00484*
X0024Y00478*
X0024Y00474*
X00234*
X00233Y00478*
X00229Y00484*
X00223Y00488*
X00217Y00489*
X0021Y00488*
X00205Y00484*
X00201Y00478*
X002Y00474*
X00194*
X00193Y00478*
X0019Y00484*
X00186Y00486*
X00187Y00493*
X00187Y00493*
X00177Y00503*
G37*
G36*
X00139Y00081D02*
X00128Y00079D01*
X00118Y00075*
X00114Y00072*
X00139Y00047*
X00164Y00072*
X0016Y00075*
X0015Y00079*
X00139Y00081*
G37*
%LNcs_ranka-3*%
%LPD*%
G54D10*
X00412Y00872D02*
D01*
X00414Y00868*
X00417Y00865*
X00417Y00865*
X00407Y00881D02*
D01*
X00409Y00878*
X00411Y00874*
X00412Y00872*
X0035Y01029D02*
D01*
X0035Y01027*
X0035Y01024*
X00351Y01022*
X00352Y01019*
X00352Y01017*
X00327Y01091D02*
D01*
X00326Y01091*
X00324Y01091*
X00323Y01091*
X00321Y0109*
X0032Y0109*
X00319Y01089*
X00317Y01089*
X00316Y01088*
X00315Y01087*
X00348Y01071D02*
D01*
X00348Y01073*
X00347Y01074*
X00347Y01076*
X00347Y01077*
X00346Y01078*
X00346Y0108*
X00345Y01081*
X00344Y01082*
X00343Y01083*
X00342Y01084*
X00341Y01085*
X0034Y01086*
X00339Y01087*
X00338Y01088*
X00337Y01089*
X00335Y01089*
X00334Y0109*
X00333Y0109*
X00331Y01091*
X0033Y01091*
X00328Y01091*
X00327Y01091*
X00394Y01131D02*
D01*
X00394Y01133*
X00395Y01134*
X00395Y01136*
X00395Y01137*
X00395Y01137*
X00343Y01206D02*
D01*
X00342Y01207*
X00341Y01208*
X0034Y01209*
X00338Y0121*
X00337Y0121*
X00336Y01211*
X00335Y01212*
X00333Y01212*
X00332Y01213*
X0033Y01213*
X00329Y01213*
X00328Y01213*
X00327Y01213*
X00395Y01137D02*
D01*
X00395Y01139*
X00395Y0114*
X00395Y01142*
X00394Y01143*
X00394Y01144*
X00393Y01146*
X00393Y01147*
X00392Y01148*
X00391Y01149*
X0039Y01151*
X0039Y01151*
X00327Y01213D02*
D01*
X00326Y01213*
X00324Y01213*
X00323Y01213*
X00321Y01212*
X0032Y01212*
X00319Y01211*
X00317Y01211*
X00316Y0121*
X00315Y01209*
X00513Y00748D02*
D01*
X00513Y00749*
X00513Y0075*
X00513Y00752*
X00512Y00753*
X00512Y00755*
X00511Y00756*
X00511Y00757*
X0051Y00758*
X00509Y0076*
X00508Y00761*
X00508Y00761*
X00425Y0088D02*
D01*
X00427Y00878*
X00429Y00876*
X00429Y00875*
X00422Y00887D02*
D01*
X00423Y00885*
X00424Y00882*
X00425Y0088*
X00366Y01037D02*
D01*
X00366Y01035*
X00366Y01034*
X00366Y01033*
X00365Y01031*
X00365Y0103*
X00366Y01028*
X00366Y01027*
X00366Y01025*
X00367Y01024*
X00367Y01023*
X0051Y00697D02*
D01*
X00511Y00699*
X00511Y007*
X00511Y007*
X00526Y00733D02*
D01*
X00527Y00735*
X00527Y00738*
X00528Y0074*
X00529Y00743*
X00529Y00745*
X00529Y00748*
X00529Y0075*
X00528Y00753*
X00528Y00755*
X00527Y00758*
X00527Y0076*
X00526Y00763*
X00524Y00765*
X00523Y00767*
X00522Y00769*
X0052Y00771*
X0052Y00772*
X0051Y00737D02*
D01*
X00511Y00738*
X00511Y00739*
X00512Y00741*
X00512Y00742*
X00513Y00743*
X00513Y00745*
X00513Y00746*
X00513Y00748*
X00292Y0107D02*
X00315Y01087D01*
X00292Y01192D02*
X00315Y01209D01*
X00417Y00865D02*
X00508Y00761D01*
X00352Y01017D02*
X00407Y00881D01*
X00348Y01071D02*
X0035Y01029D01*
X00366Y01037D02*
X00394Y01131D01*
X00343Y01206D02*
X0039Y01151D01*
X00367Y01023D02*
X00422Y00887D01*
X00429Y00875D02*
X0052Y00772D01*
X00526Y00733D02*
Y00733D01*
X00511Y007D02*
X00526Y00733D01*
X00492Y00669D02*
X0051Y00697D01*
X00492Y00708D02*
X0051Y00737D01*
G54D11*
X00393Y00741D02*
D01*
X00393Y00742*
X00394Y00743*
X00394Y00745*
X00394Y00746*
X00394Y00747*
X00394Y00749*
X00394Y0075*
X00394Y00751*
X00393Y00753*
X00393Y00754*
X00374Y00728D02*
D01*
X00376Y00728*
X00377Y00728*
X00378Y00728*
X0038Y00729*
X00381Y00729*
X00382Y0073*
X00384Y0073*
X00385Y00731*
X00386Y00732*
X00387Y00732*
X00388Y00733*
X00389Y00734*
X0039Y00735*
X00391Y00737*
X00391Y00738*
X00392Y00739*
X00393Y0074*
X00393Y00741*
X00374Y00728D02*
D01*
X00373Y00728*
X00372Y00728*
X0037Y00727*
X00369Y00727*
X00368Y00727*
X00366Y00726*
X00365Y00726*
X00364Y00725*
X00363Y00724*
X00362Y00723*
X00361Y00722*
X0036Y00721*
X00359Y0072*
X00358Y00719*
X00357Y00718*
X00357Y00717*
X00356Y00716*
X00356Y00714*
X00355Y00713*
X00355Y00712*
X00355Y0071*
X00355Y00709*
X00355Y00708*
X00355Y00706*
X00355Y00705*
X00355Y00703*
X00356Y00702*
X00356Y00701*
X00357Y007*
X00357Y00698*
X00357Y00698*
X0039Y00803D02*
D01*
X00389Y00803*
X00388Y00803*
X00387Y00802*
X00386Y00802*
X00386Y00801*
X00385Y008*
X00384Y008*
X00384Y00799*
X00383Y00798*
X00383Y00798*
X00382Y00797*
X00382Y00796*
X00382Y00795*
X00381Y00794*
X00381Y00794*
X00381Y00793*
X00381Y00792*
X00381Y00791*
X00381Y0079*
X00381Y00789*
X00381Y00788*
X00382Y00787*
X00382Y00787*
X00419Y00813D02*
D01*
X0042Y00814*
X00421Y00814*
X00422Y00814*
X00423Y00815*
X00423Y00816*
X00424Y00816*
X00425Y00817*
X00425Y00817*
X00426Y00818*
X00426Y00819*
X00427Y0082*
X00427Y0082*
X00427Y00821*
X00428Y00822*
X00428Y00823*
X00428Y00824*
X00428Y00825*
X00428Y00826*
X00428Y00827*
X00428Y00827*
X00428Y00828*
X00427Y00829*
X00427Y0083*
X00427Y00831*
X00426Y00832*
X00426Y00832*
X00425Y00833*
X00425Y00834*
X00424Y00834*
X00424Y00835*
X00423Y00836*
X00422Y00836*
X00421Y00837*
X00421Y00837*
X0042Y00837*
X00419Y00838*
X00418Y00838*
X00417Y00838*
X00416Y00838*
X00415Y00838*
X00415Y00838*
X00414Y00838*
X00413Y00838*
X00412Y00838*
X00411Y00838*
X00411*
X00345Y00829D02*
D01*
X00346Y00828*
X00346Y00827*
X00346Y00826*
X00347Y00825*
X00347Y00825*
X00348Y00824*
X00349Y00823*
X00349Y00823*
X0035Y00822*
X00351Y00822*
X00352Y00821*
X00352Y00821*
X00353Y00821*
X00354Y0082*
X00355Y0082*
X00356Y0082*
X00357Y0082*
X00358Y0082*
X00359Y0082*
X00359Y0082*
X0036Y0082*
X00361Y00821*
X00362Y00821*
X00353Y00845D02*
D01*
X00352Y00845*
X00352Y00844*
X00351Y00844*
X0035Y00843*
X00349Y00843*
X00349Y00842*
X00348Y00842*
X00348Y00841*
X00347Y0084*
X00346Y00839*
X00346Y00839*
X00346Y00838*
X00345Y00837*
X00345Y00836*
X00345Y00835*
X00345Y00834*
X00345Y00833*
X00345Y00833*
X00345Y00832*
X00345Y00831*
X00345Y0083*
X00345Y00829*
X00345Y00829*
X0039Y00857D02*
D01*
X00391Y00858*
X00392Y00858*
X00392Y00859*
X00393Y00859*
X00394Y0086*
X00394Y0086*
X00395Y00861*
X00396Y00861*
X00396Y00862*
X00397Y00863*
X00397Y00864*
X00398Y00864*
X00398Y00865*
X00398Y00866*
X00398Y00867*
X00398Y00868*
X00399Y00869*
X00399Y0087*
X00398Y00871*
X00398Y00871*
X00398Y00872*
X00398Y00873*
X00398Y00874*
X00397Y00875*
X00397Y00876*
X00397Y00876*
X00396Y00877*
X00395Y00878*
X00395Y00879*
X00394Y00879*
X00393Y0088*
X00393Y0088*
X00392Y00881*
X00391Y00881*
X0039Y00881*
X0039Y00882*
X00389Y00882*
X00388Y00882*
X00387Y00882*
X00386Y00882*
X00385Y00882*
X00384Y00882*
X00383Y00882*
X00382Y00882*
X00382Y00882*
X00332Y00878D02*
D01*
X00333Y00877*
X00333Y00877*
X00334Y00876*
X00334Y00875*
X00335Y00874*
X00335Y00874*
X00336Y00873*
X00336Y00873*
X00337Y00872*
X00338Y00872*
X00339Y00871*
X00339Y00871*
X0034Y0087*
X00341Y0087*
X00342Y0087*
X00343Y0087*
X00344Y0087*
X00345Y0087*
X00346Y0087*
X00346Y0087*
X00347Y0087*
X00348Y0087*
X00349Y0087*
X0034Y00895D02*
D01*
X0034Y00894*
X00339Y00894*
X00338Y00893*
X00337Y00893*
X00336Y00892*
X00336Y00892*
X00335Y00891*
X00335Y00891*
X00334Y0089*
X00334Y00889*
X00333Y00888*
X00333Y00887*
X00332Y00887*
X00332Y00886*
X00332Y00885*
X00332Y00884*
X00332Y00883*
X00332Y00882*
X00332Y00881*
X00332Y0088*
X00332Y0088*
X00332Y00879*
X00332Y00878*
X00371Y00905D02*
D01*
X00372Y00905*
X00372Y00906*
X00373Y00906*
X00374Y00907*
X00375Y00907*
X00375Y00908*
X00376Y00908*
X00377Y00909*
X00377Y0091*
X00378Y0091*
X00378Y00911*
X00378Y00912*
X00379Y00913*
X00379Y00914*
X00379Y00915*
X00379Y00915*
X00379Y00916*
X00379Y00917*
X00379Y00918*
X00379Y00919*
X00379Y0092*
X00379Y00921*
X00379Y00921*
D01*
X00378Y00922*
X00378Y00923*
X00378Y00924*
X00377Y00924*
X00377Y00925*
X00376Y00926*
X00375Y00926*
X00375Y00927*
X00374Y00927*
X00373Y00928*
X00372Y00928*
X00372Y00929*
X00371Y00929*
X0037Y00929*
X00369Y0093*
X00368Y0093*
X00367Y0093*
X00366Y0093*
X00366Y0093*
X00365Y0093*
X00364Y0093*
X00363Y00929*
X00362Y00929*
X00319Y00928D02*
D01*
X0032Y00927*
X0032Y00926*
X00321Y00926*
X00321Y00925*
X00322Y00924*
X00322Y00923*
X00323Y00923*
X00324Y00922*
X00324Y00922*
X00325Y00921*
X00326Y00921*
X00327Y0092*
X00327Y0092*
X00328Y0092*
X00329Y0092*
X0033Y00919*
X00331Y00919*
X00332Y00919*
X00333Y00919*
X00334Y00919*
X00334Y0092*
X00335Y0092*
X00336Y0092*
X00327Y00944D02*
D01*
X00327Y00944*
X00326Y00944*
X00325Y00943*
X00324Y00943*
X00324Y00942*
X00323Y00942*
X00322Y00941*
X00322Y0094*
X00321Y00939*
X00321Y00939*
X0032Y00938*
X0032Y00937*
X00319Y00936*
X00319Y00935*
X00319Y00935*
X00319Y00934*
X00319Y00933*
X00319Y00932*
X00319Y00931*
X00319Y0093*
X00319Y00929*
X00319Y00928*
X00319Y00928*
X00352Y00952D02*
D01*
X00352Y00953*
X00353Y00953*
X00354Y00954*
X00355Y00954*
X00355Y00955*
X00356Y00955*
X00357Y00956*
X00357Y00956*
X00358Y00957*
X00358Y00958*
X00359Y00959*
X00359Y0096*
X0036Y0096*
X0036Y00961*
X0036Y00962*
X0036Y00963*
X0036Y00964*
X0036Y00965*
X0036Y00966*
X0036Y00967*
X0036Y00967*
X0036Y00968*
X0036Y00969*
D01*
X00359Y0097*
X00359Y0097*
X00358Y00971*
X00358Y00972*
X00357Y00973*
X00357Y00973*
X00356Y00974*
X00356Y00974*
X00355Y00975*
X00354Y00976*
X00353Y00976*
X00352Y00976*
X00352Y00977*
X00351Y00977*
X0035Y00977*
X00349Y00977*
X00348Y00977*
X00347Y00977*
X00346Y00977*
X00345Y00977*
X00345Y00977*
X00344Y00977*
X00343Y00977*
X00316Y00981D02*
D01*
X00316Y0098*
X00316Y00979*
X00317Y00978*
X00317Y00978*
X00318Y00977*
X00318Y00976*
X00319Y00976*
X0032Y00975*
X0032Y00974*
X00321Y00974*
X00322Y00973*
X00323Y00973*
X00323Y00973*
X00324Y00973*
X00325Y00972*
X00326Y00972*
X00327Y00972*
X00328Y00972*
X00329Y00972*
X0033Y00972*
X0033Y00972*
X00331Y00973*
X00332Y00973*
X0043Y00422D02*
D01*
X00431Y00423*
X00432Y00425*
X00432Y00426*
X00433Y00427*
X00433Y00429*
X00433Y0043*
X00433Y00431*
X00433Y00433*
X00433Y00433*
X00453Y00452D02*
D01*
X00452Y00452*
X0045Y00452*
X00449Y00452*
X00448Y00451*
X00446Y00451*
X00445Y00451*
X00444Y0045*
X00443Y00449*
X00441Y00448*
X0044Y00448*
X00439Y00447*
X00438Y00446*
X00438Y00445*
X00437Y00444*
X00436Y00442*
X00435Y00441*
X00435Y0044*
X00434Y00439*
X00434Y00437*
X00434Y00436*
X00433Y00435*
X00433Y00433*
X00433Y00433*
X00414Y00452D02*
D01*
X00415Y00452*
X00416Y00452*
X00418Y00453*
X00419Y00453*
X0042Y00453*
X00422Y00454*
X00423Y00455*
X00423Y00455*
X00414Y00452D02*
D01*
X00412Y00452*
X00411Y00452*
X0041Y00452*
X00408Y00451*
X00407Y00451*
X00406Y00451*
X00404Y0045*
X00403Y00449*
X00402Y00448*
X00401Y00448*
X004Y00447*
X00399Y00446*
X00398Y00445*
X00397Y00444*
X00397Y00442*
X00396Y00441*
X00395Y0044*
X00395Y00439*
X00395Y00437*
X00394Y00436*
X00394Y00435*
X00394Y00433*
X00394Y00433*
X00423Y00455D02*
D01*
X00424Y00455*
X00426Y00456*
X00427Y00457*
X00428Y00458*
X00429Y00459*
X00429Y0046*
X0043Y00461*
X00431Y00462*
X00432Y00464*
X00432Y00465*
X00433Y00466*
X00433Y00468*
X00433Y00469*
X00433Y0047*
X00433Y00472*
X00433Y00473*
X00433Y00474*
X00433Y00476*
X00433Y00477*
X00432Y00478*
X00432Y0048*
X00431Y00481*
X00431Y00482*
X0043Y00483*
X00429Y00484*
X00428Y00485*
X00427Y00486*
X00426Y00487*
X00425Y00488*
X00424Y00489*
X00423Y00489*
X00421Y0049*
X0042Y00491*
X00419Y00491*
X00417Y00491*
X00416Y00491*
X00415Y00492*
X00414Y00492*
X00296Y00728D02*
D01*
X00297Y00728*
X00298Y00728*
X003Y00728*
X00301Y00729*
X00302Y00729*
X00304Y0073*
X00305Y0073*
X00306Y00731*
X00307Y00732*
X00308Y00732*
X00309Y00733*
X0031Y00734*
X00311Y00735*
X00312Y00736*
X00397Y00501D02*
D01*
X00398Y005*
X00398Y00499*
X00399Y00498*
X004Y00497*
X00401Y00496*
X00402Y00495*
X00404Y00494*
X00405Y00494*
X00406Y00493*
X00407Y00493*
X00409Y00492*
X0041Y00492*
X00411Y00492*
X00413Y00492*
X00414Y00492*
X00296Y00728D02*
D01*
X00294Y00728*
X00293Y00728*
X00291Y00727*
X0029Y00727*
X00289Y00727*
X00288Y00726*
X00286Y00726*
X00285Y00725*
X00284Y00724*
X00283Y00723*
X00282Y00722*
X00281Y00721*
X0028Y0072*
X00279Y00719*
X00279Y00718*
X00278Y00717*
X00277Y00716*
X00277Y00714*
X00276Y00713*
X00276Y00712*
X00276Y0071*
X00276Y00709*
Y00707*
X00276Y00706*
X00276Y00705*
X00276Y00703*
X00277Y00702*
X00277Y00701*
X00278Y007*
X00279Y00698*
X00279Y00698*
X00463Y0045D02*
D01*
X00462Y0045*
X0046Y00451*
X00459Y00451*
X00458Y00452*
X00457Y00452*
X00455Y00452*
X00454Y00452*
X00453Y00452*
X00414Y00413D02*
D01*
X00415Y00413*
X00416Y00413*
X00418Y00413*
X00419Y00414*
X0042Y00414*
X00422Y00415*
X00423Y00415*
X00424Y00416*
X00425Y00417*
X00426Y00417*
X00427Y00418*
X00428Y00419*
X00429Y0042*
X0043Y00422*
X0043Y00422*
X00394Y00433D02*
D01*
X00394Y00431*
X00394Y0043*
X00394Y00428*
X00395Y00427*
X00395Y00426*
X00396Y00425*
X00396Y00423*
X00397Y00422*
X00398Y00421*
X00399Y0042*
X004Y00419*
X00401Y00418*
X00402Y00417*
X00403Y00416*
X00404Y00416*
X00405Y00415*
X00406Y00414*
X00408Y00414*
X00409Y00413*
X0041Y00413*
X00412Y00413*
X00413Y00413*
X00414Y00413*
X00266Y01085D02*
D01*
X00265Y01083*
X00264Y01081*
X00263Y01079*
X00263Y01077*
X00263Y01075*
X00262Y01073*
X00262Y01071*
X00262Y01069*
X00262Y01067*
X00263Y01066*
X00312Y00736D02*
D01*
X00312Y00737*
X00313Y00738*
X00314Y0074*
X00314Y00741*
X00315Y00742*
X00315Y00744*
X00315Y00745*
X00315Y00746*
X00315Y00748*
X00315Y00749*
X00315Y0075*
X00315Y00751*
X00335Y00728D02*
D01*
X00336Y00728*
X00338Y00728*
X00339Y00728*
X0034Y00729*
X00342Y00729*
X00343Y0073*
X00344Y0073*
X00345Y00731*
X00347Y00732*
X00348Y00732*
X00349Y00733*
X0035Y00734*
X0035Y00735*
X00351Y00736*
X00335Y00728D02*
D01*
X00334Y00728*
X00332Y00728*
X00331Y00727*
X0033Y00727*
X00328Y00727*
X00327Y00726*
X00326Y00726*
X00325Y00725*
X00323Y00724*
X00322Y00723*
X00321Y00722*
X0032Y00721*
X00319Y0072*
X00319Y00719*
X00318Y00718*
X00317Y00717*
X00317Y00716*
X00316Y00714*
X00316Y00713*
X00316Y00712*
X00315Y0071*
X00315Y00709*
X00315Y00708*
X00315Y00706*
X00316Y00705*
X00316Y00703*
X00316Y00702*
X00317Y00701*
X00317Y007*
X00317Y00699*
X00282Y01088D02*
D01*
X00281Y01087*
X0028Y01086*
X00279Y01085*
X00278Y01084*
X00277Y01083*
X00276Y01082*
X00275Y01081*
X00275Y0108*
X00274Y01079*
X00273Y01078*
X00273Y01076*
X00273Y01075*
X00272Y01074*
X00272Y01072*
X00272Y01071*
X00272Y0107*
X00272Y01068*
X00272Y01067*
X00273Y01066*
X00273Y01065*
X00351Y00736D02*
D01*
X00351Y00737*
X00352Y00738*
X00353Y00739*
X00353Y00741*
X00354Y00742*
X00354Y00743*
X00354Y00745*
X00355Y00746*
X00355Y00747*
X00355Y00749*
X00354Y0075*
X00354Y00751*
X00354Y00753*
X00304Y01043D02*
D01*
X00303Y01042*
X00302Y01041*
X00302Y0104*
X00301Y01039*
X00301Y01037*
X003Y01036*
X003Y01035*
X003Y01033*
X003Y01032*
X003Y01031*
X003Y01029*
X003Y01028*
X003Y01026*
X003Y01025*
X00301Y01025*
X00397Y00718D02*
D01*
X00396Y00717*
X00395Y00716*
X00395Y00714*
X00395Y00713*
X00394Y00712*
X00394Y0071*
X00394Y00709*
X00394Y00708*
D01*
X00394Y00707*
X00394Y00705*
X00394Y00704*
X00395Y00703*
X00395Y00701*
X00395Y00701*
X00425Y00619D02*
D01*
X00426Y00617*
X00427Y00616*
X00466Y00537D02*
D01*
X00467Y00536*
X00468Y00534*
X00469Y00532*
X00469Y00532*
X00512Y00472D02*
D01*
X00512Y00473*
X00512Y00475*
X00512Y00476*
X00511Y00477*
X00511Y00479*
X0051Y0048*
X0051Y00481*
X00509Y00482*
X00508Y00483*
X00508Y00484*
X0052Y00421D02*
D01*
X0052Y00423*
X00521Y00425*
X00521Y00427*
X00522Y00429*
X00522Y00431*
X00522Y00433*
X00436Y00639D02*
D01*
X00435Y00638*
X00435Y00637*
X00434Y00636*
X00434Y00634*
X00434Y00633*
X00433Y00631*
X00433Y0063*
X00433Y00629*
X00433Y00627*
X00434Y00626*
X00434Y00625*
X00434Y00623*
X00435Y00622*
X00435Y00621*
X00435Y00621*
X00475Y00542D02*
D01*
X00475Y00541*
X00476Y0054*
X00477Y00538*
X00477Y00538*
X00522Y00472D02*
D01*
X00522Y00474*
X00522Y00476*
X00521Y00478*
X00521Y0048*
X0052Y00482*
X00519Y00484*
X00519Y00486*
X00517Y00488*
X00516Y00489*
X00515Y0049*
X00511Y00426D02*
D01*
X00511Y00428*
X00512Y00429*
X00512Y0043*
X00512Y00432*
X00512Y00433*
X00473Y00669D02*
D01*
X00473Y0067*
X00473Y00672*
X00472Y00673*
X00472Y00674*
X00472Y00676*
X00471Y00677*
X0047Y00678*
X0047Y00679*
X00473Y00629D02*
D01*
X00473Y00628*
X00473Y00627*
X00473Y00625*
X00473Y00624*
X00474Y00623*
X00474Y00621*
X00475Y0062*
X00475Y0062*
X00511Y00556D02*
D01*
X00511Y00557*
X00511Y00558*
X0051Y00559*
X00509Y00561*
X00522Y0036D02*
D01*
X00523Y00361*
X00524Y00362*
X00525Y00363*
X00525Y00364*
X00526Y00365*
X00527Y00366*
X00527Y00368*
X00527Y00369*
X00528Y0037*
X00528Y00372*
X00528Y00372*
X00532Y0043D02*
D01*
X00532Y00433*
X00532Y00433*
X00532Y0043D02*
D01*
Y0043*
Y0043*
Y0043*
Y0043*
Y0043*
X00532Y00472D02*
D01*
X00532Y00475*
X00531Y00477*
X00531Y0048*
X00531Y00482*
X0028Y00357D02*
D01*
X00277Y00356*
X00274Y00355*
X00272Y00354*
X00269Y00353*
X00267Y00352*
X00265Y0035*
X00262Y00349*
X0026Y00347*
X0026Y00346*
X00499Y00404D02*
D01*
X00501Y00404*
X00503Y00405*
X00504Y00406*
X00506Y00407*
X00508Y00408*
X0051Y00409*
X00511Y0041*
X00513Y00411*
X00514Y00413*
X00516Y00414*
X00517Y00416*
X00518Y00418*
X00519Y0042*
X0052Y00421*
X00497Y00413D02*
D01*
X00498Y00414*
X00499Y00414*
X005Y00415*
X00502Y00415*
X00503Y00416*
X00504Y00417*
X00505Y00418*
X00506Y00418*
X00507Y00419*
X00508Y0042*
X00509Y00422*
X00509Y00423*
X0051Y00424*
X00511Y00425*
X00511Y00426*
X00235Y00335D02*
D01*
X00234Y00334*
X00232Y00332*
X00231Y0033*
X0023Y00329*
X00229Y00327*
X00229Y00326*
X00277Y00367D02*
D01*
X00274Y00366*
X00271Y00365*
X00268Y00363*
X00265Y00362*
X00262Y0036*
X00259Y00358*
X00256Y00356*
X00254Y00354*
X00253Y00353*
X0024Y00232D02*
D01*
X0024Y0023*
X00241Y00229*
X00241Y00228*
X00241Y00226*
X00242Y00225*
X00242Y00224*
X00243Y00223*
X00243Y00221*
X00244Y0022*
X00245Y00219*
X00246Y00218*
X00247Y00217*
X00248Y00216*
X00249Y00215*
X0025Y00215*
X00251Y00214*
X00253Y00214*
X00254Y00213*
X00255Y00213*
X00257Y00212*
X00258Y00212*
X00259Y00212*
X0026Y00212*
X00277Y00183D02*
D01*
X00278Y00184*
X00278Y00185*
X00279Y00186*
X00279Y00188*
X0028Y00189*
X0028Y0019*
X0028Y00192*
X0028Y00193*
X0028Y00194*
X0028Y00196*
X00279Y00197*
X00279Y00198*
X00278Y002*
X00278Y00201*
X00277Y00202*
X00276Y00203*
X00276Y00204*
X00275Y00206*
X00274Y00207*
X00273Y00207*
X00272Y00208*
X00271Y00209*
X00269Y0021*
X00268Y0021*
X00267Y00211*
X00266Y00211*
X00264Y00212*
X00263Y00212*
X00262Y00212*
X0026Y00212*
X0026Y00212*
X00242Y00328D02*
D01*
X00241Y00327*
X0024Y00326*
X0024Y00325*
X00239Y00324*
X00238Y00323*
X00238Y00321*
X00237Y0032*
X00237Y00319*
X00237Y00317*
X00237Y00316*
X00237Y00315*
X00237Y00314*
X0024Y00232D02*
D01*
X0024Y00232*
X0024Y00232*
X0024Y00232*
X0024Y00233*
X0024Y00233*
X00197Y00748D02*
D01*
X00197Y00749*
X00197Y0075*
X00197Y00708D02*
D01*
X00197Y00707*
X00197Y00705*
X00198Y00704*
X00198Y00703*
X00198Y00701*
X00199Y007*
X00199Y00699*
X002Y00698*
X00263Y01066D02*
X00315Y00751D01*
X0039Y00764D02*
X00393Y00754D01*
X00374Y00728D02*
D01*
X00389Y00766D02*
X0039Y00764D01*
X00387Y00773D02*
X00389Y00766D01*
X00387Y00773D02*
D01*
X00382Y00787D02*
X00387Y00773D01*
X0039Y00803D02*
X00419Y00813D01*
X00411Y00838D02*
D01*
X00362Y00821D02*
X00411Y00838D01*
X00345Y00829D02*
D01*
X00353Y00845D02*
D01*
X0039Y00857*
X00382Y00882D02*
D01*
X00349Y0087D02*
X00382Y00882D01*
X00332Y00878D02*
D01*
X0034Y00895D02*
D01*
X00371Y00905*
X00379Y00921D02*
D01*
D01*
X00362Y00929D02*
D01*
X00336Y0092D02*
X00362Y00929D01*
X00319Y00928D02*
D01*
X00327Y00944D02*
D01*
X00352Y00952*
X0036Y00969D02*
D01*
D01*
X00332Y00973D02*
X00343Y00977D01*
X00316Y00981D02*
D01*
D01*
X00315Y00984D02*
X00316Y00981D01*
X00315Y00984D02*
D01*
D01*
X00301Y01025D02*
X00315Y00984D01*
X00433Y00433D02*
D01*
X00414Y00452D02*
D01*
X00414Y00492D02*
X00414D01*
X00414*
X00279Y00698D02*
X00397Y00501D01*
X00463Y0045D02*
X00492Y00433D01*
X00266Y01085D02*
X00314Y0117D01*
X00317Y00699D02*
X00414Y00511D01*
X00335Y00728D02*
D01*
X00273Y01065D02*
X00354Y00753D01*
X00282Y01088D02*
X00374Y01137D01*
X00282Y01088D02*
D01*
X00357Y00698D02*
X00492Y00472D01*
X00304Y01043D02*
X00314Y01056D01*
X00327Y0107*
X00314Y0117D02*
X00327Y01192D01*
X00343Y00181D02*
X00522Y0036D01*
X00512Y00433D02*
Y00472D01*
X00395Y00701D02*
X00425Y00619D01*
X00427Y00616D02*
X00466Y00537D01*
X00469Y00532D02*
X00508Y00484D01*
X00522Y00433D02*
Y00472D01*
X00436Y00639D02*
X00453Y00669D01*
X00477Y00538D02*
X00515Y0049D01*
X00435Y00621D02*
X00475Y00542D01*
X00475Y0062D02*
X00509Y00561D01*
X00473Y00629D02*
Y00669D01*
X00532Y0043D02*
Y0043D01*
X00528Y00372D02*
X00532Y0043D01*
X00532Y00433D02*
Y00472D01*
X00453Y00708D02*
X0047Y00679D01*
X00511Y00556D02*
X00531Y00482D01*
X00242Y00328D02*
X0026Y00346D01*
X0028Y00357D02*
X00499Y00404D01*
X00397Y00718D02*
X00414Y00748D01*
X00205Y00271D02*
X00229Y00326D01*
X00277Y00367D02*
X00497Y00413D01*
X00235Y00335D02*
X00253Y00353D01*
X00237Y00314D02*
X0024Y00233D01*
X0024Y00232D02*
D01*
X0026Y00212D02*
D01*
X0026Y00153D02*
X00277Y00183D01*
X00197Y00708D02*
Y00748D01*
X002Y00698D02*
X00217Y00669D01*
X00174Y00925D02*
X00197Y0075D01*
X00107Y01333D02*
Y01301D01*
X00109Y01296*
X00113Y01294*
X00117*
X00102Y0132D02*
X00115D01*
X00126Y01333D02*
X00128Y01331D01*
X0013Y01333*
X00128Y01335*
X00126Y01333*
X00128Y0132D02*
Y01294D01*
X00137Y0132D02*
Y01294D01*
Y01313D02*
X00142Y01318D01*
X00146Y0132*
X00152*
X00156Y01318*
X00157Y01313*
Y01294*
Y01313D02*
X00163Y01318D01*
X00167Y0132*
X00172*
X00176Y01318*
X00178Y01313*
Y01294*
X00219Y01318D02*
X00217Y01322D01*
X00213Y01324*
X00207*
X00204Y01322*
X00202Y0132*
X002Y01314*
Y01309*
X00202Y01305*
X00205Y01303*
X00211*
X00215Y01305*
X00217Y01309*
X00207Y01324D02*
X00204Y0132D01*
X00202Y01314*
Y01309*
X00204Y01305*
X00205Y01303*
X00219Y01324D02*
X00217Y01309D01*
Y01305*
X0022Y01303*
X00224*
X00228Y01307*
X0023Y01313*
Y01316*
X00228Y01322*
X00226Y01326*
X00222Y01329*
X00219Y01331*
X00213Y01333*
X00207*
X00202Y01331*
X00198Y01329*
X00194Y01326*
X00192Y01322*
X0019Y01316*
Y01311*
X00192Y01305*
X00194Y01301*
X00198Y01298*
X00202Y01296*
X00207Y01294*
X00213*
X00219Y01296*
X00222Y01298*
X00224Y01299*
X0022Y01324D02*
X00219Y01309D01*
Y01305*
X0022Y01303*
X00262Y01314D02*
X00259Y01318D01*
X00255Y0132*
X00249*
X00246Y01318*
X00242Y01314*
X0024Y01309*
Y01305*
X00242Y01299*
X00246Y01296*
X00249Y01294*
X00255*
X00259Y01296*
X00262Y01299*
X00291Y01314D02*
X0029Y01318D01*
X00284Y0132*
X00278*
X00273Y01318*
X00271Y01314*
X00273Y01311*
X00276Y01309*
X00286Y01307*
X0029Y01305*
X00291Y01301*
Y01299*
X0029Y01296*
X00284Y01294*
X00278*
X00273Y01296*
X00271Y01299*
X003Y0132D02*
X00307Y01294D01*
X00315Y0132D02*
X00307Y01294D01*
X00315Y0132D02*
X00322Y01294D01*
X0033Y0132D02*
X00322Y01294D01*
X00341Y01298D02*
X00339Y01296D01*
X00341Y01294*
X00343Y01296*
X00341Y01298*
X00374Y01314D02*
X0037Y01318D01*
X00366Y0132*
X00361*
X00357Y01318*
X00353Y01314*
X00351Y01309*
Y01305*
X00353Y01299*
X00357Y01296*
X00361Y01294*
X00366*
X0037Y01296*
X00374Y01299*
X00382Y0132D02*
X00403Y01294D01*
Y0132D02*
X00382Y01294D01*
G54D52*
X00567Y00758D02*
D01*
X00567Y00759*
X00567Y0076*
X00567Y00761*
X00079Y00517D02*
D01*
X0008Y0052*
X00081Y00523*
X00082Y00526*
X00083Y00529*
X00083Y00529*
X00079Y00417D02*
D01*
X0008Y0042*
X00081Y00423*
X00082Y00426*
X00083Y00429*
X00084Y00432*
X00084Y00435*
X00084Y00438*
X00084Y00441*
X00084Y00445*
X00083Y00448*
X00083Y00451*
X00082Y00454*
X0008Y00457*
X00079Y0046*
X00079Y0046*
X0058Y00413D02*
D01*
X0058Y00415*
X0058Y00415*
X00577Y004D02*
D01*
X00577Y00402*
X00578Y00403*
X00579Y00405*
X00579Y00407*
X0058Y00408*
X0058Y0041*
X0058Y00412*
X0058Y00413*
X00318Y01228D02*
D01*
X00317Y01228*
X00317Y01227*
X00317Y01227*
X00316Y01227*
X00316Y01227*
X00534Y01284D02*
D01*
X00531Y01283*
X00528Y01283*
X00527Y01283*
X00419Y00962D02*
D01*
X00421Y00959*
X00422Y00956*
X00423Y00955*
X00455Y01184D02*
D01*
X00452Y01183*
X00449Y01183*
X00446Y01182*
X00443Y01181*
X0044Y01179*
X00437Y01178*
X00435Y01176*
X00432Y01174*
X0043Y01172*
X00427Y0117*
X00425Y01168*
X00423Y01165*
X00422Y01163*
X0042Y0116*
X00419Y01157*
X00418Y01154*
X00417Y01151*
X00416Y0115*
X00559Y01279D02*
D01*
X00557Y01281*
X00554Y01282*
X00551Y01283*
X00548Y01283*
X00544Y01284*
X00541Y01284*
X00538Y01284*
X00535Y01284*
X00534Y01284*
X00315Y00235D02*
D01*
X00315Y00237*
X00316Y00239*
X00316Y0024*
X00316Y00241*
X0026Y00128D02*
D01*
X00262Y00129*
X00264Y00129*
X00265Y00129*
X00267Y00129*
X00269Y0013*
X0027Y00131*
X00272Y00131*
X00273Y00132*
X00275Y00133*
X00276Y00134*
X00277Y00135*
X00279Y00137*
X0028Y00138*
X00281Y00139*
X00282Y00141*
X00282Y00142*
X00283Y00144*
X00283Y00145*
X0026Y00128D02*
D01*
X0026Y00128*
X0026Y00128*
X0026Y00128*
X0026Y00128*
X0026Y00128*
X00544Y01194D02*
D01*
X00547Y01194*
X0055Y01195*
X00553Y01196*
X00556Y01197*
X00559Y01198*
X00559Y01199*
X00082Y01053D02*
D01*
X00081Y01056*
X00079Y01059*
X00079Y01059*
X00154Y00755D02*
D01*
X00153Y00753*
X00153Y00751*
X00153Y0075*
X00153Y00748*
X00153Y00748*
Y00551D02*
D01*
X00153Y00549*
X00153Y00547*
X00153Y00546*
X00154Y00544*
X00154Y00542*
X00155Y00541*
X00156Y00539*
X00157Y00538*
X00158Y00536*
X00158Y00535*
X00162Y0078D02*
D01*
X00162Y00781*
X00162Y00783*
X00163Y00785*
X00163Y00786*
X00163Y00788*
X00163Y0079*
X00163Y0079*
X00284Y00343D02*
D01*
X00283Y00342*
X00281Y00342*
X00279Y00342*
X00278Y00341*
X00276Y0034*
X00275Y00339*
X00273Y00338*
X00272Y00337*
X00271Y00336*
X00269Y00335*
X00268Y00334*
X00267Y00332*
X00267Y00331*
X00158Y00487D02*
D01*
X00157Y00486*
X00156Y00485*
X00155Y00483*
X00155Y00481*
X00154Y0048*
X00154Y00478*
X00153Y00477*
X00153Y00476*
X00567Y00761D02*
Y00761D01*
X00063Y00489D02*
X00079Y00517D01*
X00063Y00389D02*
X00079Y00417D01*
X00539Y00903D02*
X00567Y00761D01*
X00567Y00758D02*
X00577Y00445D01*
X0058Y00415*
X00239Y00039D02*
X00477Y00232D01*
X00577Y004*
X00327Y00349D02*
X00508Y00374D01*
X00318Y01228D02*
X00527Y01283D01*
X00455Y01184D02*
X00544Y01194D01*
X00138Y00314D02*
X00139Y00125D01*
X00284Y00343D02*
X00327Y00349D01*
X00283Y00145D02*
X00315Y00235D01*
X00139Y00125D02*
X0026Y00128D01*
X00316Y00241D02*
X00327Y00349D01*
X00433Y01208D02*
X00532Y01242D01*
X00538Y01239*
X00539Y01239*
X00083Y00529D02*
X00138Y00787D01*
X00153Y00708D02*
Y00748D01*
X00154Y00755D02*
X00162Y0078D01*
X00153Y00551D02*
Y0059D01*
Y00629D02*
Y00669D01*
Y00708D01*
Y0059D02*
Y00629D01*
X00256Y00314D02*
X00267Y00331D01*
X00138Y00374D02*
X00153Y00476D01*
X00138Y00374D02*
X00138Y00314D01*
X00063Y00489D02*
X00079Y0046D01*
G54D60*
X00039Y01139D03*
X00639Y01239D03*
X00139Y00039D03*
X0046Y00903D03*
X00539Y01239D03*
G54D61*
X00539Y00903D03*
G54D62*
X00239Y00039D03*
G54D65*
X00292Y0107D03*
X00327D03*
X00292Y01192D03*
X00327D03*
X00508Y00374D03*
X00477Y00232D03*
X00343Y00181D03*
X00174Y00925D03*
X00386Y01031D03*
X00374Y01137D03*
X00433Y01208D03*
X00256Y00314D03*
X00158Y0083D03*
X00138Y00787D03*
X00063Y00489D03*
Y00389D03*
X0026Y00153D03*
X00205Y00271D03*
X00414Y00748D03*
X00453Y00708D03*
X00492D03*
X00453Y00669D03*
X00492D03*
X00217D03*
X00414Y00511D03*
X00177D03*
X00492Y00472D03*
Y00433D03*
M02*