%FSTAX23Y23*%
%MOIN*%
%SFA1B1*%

%IPPOS*%
%AMD61*
4,1,8,0.029500,-0.022100,0.029500,0.022100,0.022100,0.029500,-0.022100,0.029500,-0.029500,0.022100,-0.029500,-0.022100,-0.022100,-0.029500,0.022100,-0.029500,0.029500,-0.022100,0.0*
1,1,0.014760,0.022100,-0.022100*
1,1,0.014760,0.022100,0.022100*
1,1,0.014760,-0.022100,0.022100*
1,1,0.014760,-0.022100,-0.022100*
%
%AMD62*
4,1,8,0.022100,0.029500,-0.022100,0.029500,-0.029500,0.022100,-0.029500,-0.022100,-0.022100,-0.029500,0.022100,-0.029500,0.029500,-0.022100,0.029500,0.022100,0.022100,0.029500,0.0*
1,1,0.014760,0.022100,0.022100*
1,1,0.014760,-0.022100,0.022100*
1,1,0.014760,-0.022100,-0.022100*
1,1,0.014760,0.022100,-0.022100*
%
%ADD11C,0.005910*%
%ADD52C,0.015750*%
%ADD60C,0.059060*%
G04~CAMADD=61~8~0.0~0.0~590.6~590.6~73.8~0.0~15~0.0~0.0~0.0~0.0~0~0.0~0.0~0.0~0.0~0~0.0~0.0~0.0~270.0~590.0~590.0*
%ADD61D61*%
G04~CAMADD=62~8~0.0~0.0~590.6~590.6~73.8~0.0~15~0.0~0.0~0.0~0.0~0~0.0~0.0~0.0~0.0~0~0.0~0.0~0.0~0.0~590.6~590.6*
%ADD62D62*%
%ADD65C,0.017720*%
%ADD66C,0.010000*%
%LNcs_ranka-1*%
%LPD*%
G36*
X00654Y01381D02*
X00617D01*
X00609Y01379*
X00608Y01378*
X00643Y01343*
X00639Y01339*
X00643Y01335*
X00608Y013*
X00609Y01299*
X00617Y01297*
X00654*
Y01278*
X0065Y01276*
X00648Y01275*
X00639Y01277*
X00629Y01275*
X0062Y01272*
X00612Y01266*
X00606Y01258*
X00602Y01249*
X00601Y01239*
X00602Y01229*
X00606Y0122*
X00612Y01212*
X0062Y01206*
X00629Y01202*
X00639Y01201*
X00648Y01202*
X0065Y01202*
X00654Y01199*
Y01178*
X0065Y01176*
X00648Y01175*
X00639Y01177*
X00629Y01175*
X0062Y01172*
X00612Y01166*
X00606Y01158*
X00602Y01149*
X00601Y01139*
X00602Y01129*
X00606Y0112*
X00612Y01112*
X0062Y01106*
X00629Y01102*
X00639Y01101*
X00648Y01102*
X0065Y01102*
X00654Y01099*
Y01078*
X0065Y01076*
X00648Y01075*
X00639Y01077*
X00629Y01075*
X0062Y01072*
X00612Y01066*
X00606Y01058*
X00602Y01049*
X00601Y01039*
X00602Y01029*
X00606Y0102*
X00612Y01012*
X0062Y01006*
X00629Y01002*
X00639Y01001*
X00648Y01002*
X0065Y01002*
X00654Y00999*
Y00978*
X0065Y00976*
X00648Y00975*
X00639Y00977*
X00629Y00975*
X0062Y00972*
X00612Y00966*
X00611Y00964*
X00605Y00965*
X0059Y01067*
X0059Y01068*
X00589Y0107*
X00586Y0108*
X00583Y01086*
X00583Y01087*
X00567Y01114*
X00572Y0112*
X00575Y01129*
X00577Y01139*
X00575Y01149*
X00572Y01158*
X00566Y01166*
X00558Y01172*
X00549Y01175*
X00539Y01177*
X00529Y01175*
X0052Y01172*
X00512Y01166*
X00506Y01158*
X00502Y01149*
X00497*
X00493Y01158*
X00487Y01166*
X00479Y01172*
X0047Y01175*
X0046Y01177*
X0045Y01175*
X00441Y01172*
X00433Y01166*
X00427Y01158*
X00424Y01149*
X00422Y01139*
X00424Y01129*
X00427Y0112*
X00433Y01112*
X00441Y01106*
X0045Y01102*
Y01097*
X00441Y01093*
X00433Y01087*
X00427Y01079*
X00424Y0107*
X00422Y0106*
X00424Y0105*
X00427Y01041*
X00433Y01033*
X00441Y01027*
X0045Y01024*
Y01018*
X00441Y01014*
X00433Y01008*
X00427Y01*
X00424Y00991*
X00422Y00981*
X00424Y00972*
X00427Y00963*
X00433Y00955*
X00441Y00949*
X0045Y00945*
Y00939*
X00441Y00935*
X00433Y00929*
X00427Y00922*
X00424Y00912*
X00422Y00903*
X00424Y00893*
X00427Y00884*
X00433Y00876*
X00441Y0087*
X0045Y00866*
X0046Y00865*
X0047Y00866*
X00479Y0087*
X00487Y00876*
X00491Y00882*
X00496Y00881*
X00497Y0088*
X00499Y00873*
X005Y00872*
X00531Y00903*
X005Y00934*
X00499Y00932*
X00497Y00925*
X00496Y00924*
X00491Y00924*
X00487Y00929*
X00479Y00935*
X0047Y00939*
Y00945*
X00479Y00949*
X00487Y00955*
X00493Y00963*
X00497Y00972*
X00502*
X00506Y00963*
X00512Y00955*
X00518Y0095*
X00517Y00946*
X00516Y00944*
X00509Y00943*
X00508Y00942*
X00543Y00907*
X00539Y00903*
X00543Y00898*
X00508Y00863*
X00509Y00862*
X00517Y00861*
X0055*
X00553Y00856*
X0049Y00764*
X00486Y00763*
X0048Y0076*
X00477Y00754*
X00476Y00749*
X0047*
X00469Y00754*
X00465Y0076*
X0046Y00763*
X00453Y00765*
X00447Y00763*
X00434Y00771*
X00429Y00774*
X00429Y00774*
X00422Y00777*
X00414Y00778*
X00414Y00778*
X00408Y00778*
X00374*
Y00778*
X00366Y00777*
X00359Y00774*
X00353Y00769*
X00348Y00763*
X00344Y00762*
X00341Y00763*
X00335Y00765*
X00328Y00763*
X00323Y0076*
X00319Y00754*
X00318Y00749*
X00312*
X00311Y00754*
X00308Y0076*
X00302Y00763*
X00296Y00765*
X00289Y00763*
X00284Y0076*
X0028Y00754*
X00279Y00749*
X00273*
X00272Y00754*
X00268Y0076*
X00263Y00763*
X00256Y00765*
X0025Y00763*
X00244Y0076*
X0024Y00754*
X00239Y00748*
X0024Y00741*
X00244Y00735*
X0025Y00732*
X00254Y00731*
Y00725*
X0025Y00724*
X00247Y00722*
X00243Y00724*
X00239Y0073*
X00232Y00735*
X00225Y00738*
X00217Y00739*
X00209Y00738*
X00201Y00735*
X00195Y0073*
X0019Y00724*
X00186Y00722*
X00184Y00724*
X00177Y00725*
X00171Y00724*
X00165Y0072*
X00162Y00715*
X0016Y00708*
X00162Y00702*
X00163Y00699*
X00162Y00695*
X00156Y00691*
X00151Y00684*
X00148Y00677*
X00148Y00676*
X00148Y00676*
X00138Y0064*
X00138Y0064*
X00137Y00629*
X00138Y00619*
X00138Y00619*
X00146Y00588*
X00148Y00582*
X00148Y00582*
X00151Y00575*
X00151Y00575*
X00162Y00556*
X0016Y00551*
X00162Y00544*
X00165Y00539*
X00171Y00535*
X00176Y00534*
Y00528*
X00171Y00527*
X00165Y00523*
X00162Y00518*
X0016Y00511*
X00162Y00505*
X00165Y00499*
X00171Y00496*
X00176Y00495*
Y00489*
X00171Y00488*
X00165Y00484*
X00162Y00478*
X0016Y00472*
X00162Y00465*
X00165Y0046*
X00171Y00456*
X00176Y00455*
Y00449*
X00171Y00448*
X00165Y00445*
X00162Y00439*
X0016Y00433*
X00161Y00432*
X00156Y00428*
X00076Y00443*
X00075Y00449*
X00072Y00458*
X00067Y00463*
X00068Y00466*
X0007Y0047*
X00073Y00471*
X00059Y00485*
X00063Y00489*
X00059Y00493*
X00073Y00508*
X0007Y00509*
X00068Y00513*
X00068Y00515*
X00072Y0052*
X00075Y00529*
X00077Y00539*
X00075Y00549*
X00072Y00558*
X00066Y00566*
X00058Y00572*
X00049Y00575*
X00039Y00577*
X0003Y00575*
X00028Y00576*
X00024Y00578*
Y00599*
X00028Y00602*
X0003Y00602*
X00039Y00601*
X00049Y00602*
X00058Y00606*
X00066Y00612*
X00072Y0062*
X00075Y00629*
X00077Y00639*
X00075Y00649*
X00072Y00658*
X00066Y00666*
X00058Y00672*
X00049Y00675*
X00039Y00677*
X0003Y00675*
X00028Y00676*
X00024Y00678*
Y00699*
X00028Y00702*
X0003Y00702*
X00039Y00701*
X00049Y00702*
X00058Y00706*
X00066Y00712*
X00072Y0072*
X00075Y00729*
X00077Y00739*
X00075Y00749*
X00072Y00758*
X00066Y00766*
X00058Y00772*
X00049Y00775*
X00039Y00777*
X0003Y00775*
X00028Y00776*
X00024Y00778*
Y00799*
X00028Y00802*
X0003Y00802*
X00039Y00801*
X00049Y00802*
X00058Y00806*
X00066Y00812*
X00072Y0082*
X00075Y00829*
X00077Y00839*
X00075Y00849*
X00072Y00858*
X00066Y00866*
X00058Y00872*
X00049Y00875*
X00039Y00877*
X0003Y00875*
X00028Y00876*
X00024Y00878*
Y00899*
X00028Y00902*
X0003Y00902*
X00039Y00901*
X00049Y00902*
X00058Y00906*
X00066Y00912*
X00072Y0092*
X00075Y00929*
X00077Y00939*
X00075Y00949*
X00072Y00958*
X00066Y00966*
X00058Y00972*
X00049Y00975*
X00039Y00977*
X0003Y00975*
X00028Y00976*
X00024Y00978*
Y00999*
X00028Y01002*
X0003Y01002*
X00039Y01001*
X00049Y01002*
X00058Y01006*
X00066Y01012*
X00072Y0102*
X00075Y01029*
X00077Y01039*
X00075Y01049*
X00072Y01058*
X00066Y01066*
X00058Y01072*
X00049Y01075*
X00039Y01077*
X0003Y01075*
X00028Y01076*
X00024Y01078*
Y01099*
X00028Y01102*
X0003Y01102*
X00039Y01101*
X00049Y01102*
X00058Y01106*
X00066Y01112*
X00072Y0112*
X00075Y01129*
X00077Y01139*
X00075Y01149*
X00072Y01158*
X00066Y01166*
X00058Y01172*
X00049Y01175*
X00039Y01177*
X0003Y01175*
X00028Y01176*
X00024Y01178*
Y01197*
X00061*
X00069Y01199*
X0007Y012*
X00035Y01235*
X00039Y01239*
X00035Y01243*
X0007Y01278*
X00069Y01279*
X00061Y01281*
X00024*
Y01299*
X00028Y01302*
X0003Y01302*
X00039Y01301*
X00049Y01302*
X00058Y01306*
X00066Y01312*
X00072Y0132*
X00073Y01323*
X00082*
X00205Y01323*
X00307*
X0031Y01318*
X0028Y01259*
X00278Y01259*
X00276Y01259*
X0026Y01243*
X00246Y01229*
X00251Y01227*
X00256Y01227*
X00257Y01227*
X00261Y01221*
X00255Y01211*
X00255Y01209*
X00252Y01203*
X00251Y01192*
X00252Y01182*
X00256Y01172*
X00259Y01168*
X0026Y01167*
X00321Y01092*
X00319Y01085*
X00315Y01082*
X00313Y01079*
X00312Y01079*
X00306*
X00306Y01079*
X00304Y01082*
X00298Y01086*
X00292Y01087*
X00285Y01086*
X0028Y01082*
X00276Y01077*
X00275Y0107*
X00276Y01064*
X0028Y01058*
X00285Y01055*
X00292Y01053*
X00298Y01055*
X00304Y01058*
X00306Y01062*
X00306Y01062*
X00312*
X00313Y01062*
X00315Y01058*
X00316Y01057*
X00317Y0105*
X00313Y01047*
X00313Y01047*
X00307Y01043*
X00303Y01038*
X00302Y01031*
X00303Y01024*
X00307Y01019*
X00309Y01018*
X00307Y01012*
X00273*
X00268Y01016*
Y01018*
Y01062*
X00198*
X00194Y01066*
X00194Y01066*
X00194Y01072*
X00192Y01076*
X00178Y01062*
X00164Y01048*
X00168Y01046*
X00174Y01046*
X00179Y01046*
X00183Y01048*
X00186Y01047*
X00189Y01045*
Y01016*
X00227*
X00231Y01012*
Y0101*
Y00951*
Y00948*
X00226Y00945*
X00197*
Y00892*
Y00889*
X00193Y00886*
X00188*
Y00822*
X00315*
Y00787*
X00449*
Y00842*
X00324*
Y00886*
X00296*
X00291Y00889*
Y00892*
Y00942*
Y00945*
X00296Y00948*
X00368*
Y01012*
X00331*
X0033Y01018*
X00331Y01019*
X00333Y01022*
X00354Y0104*
X00354Y0104*
X00356Y01042*
X00362Y0105*
X00364Y01055*
X00365Y01056*
X00365Y01056*
X00365Y01056*
X00365Y01058*
X00366Y0106*
X00368Y0107*
X00366Y01081*
X00362Y01091*
X00359Y01094*
X00359Y01096*
X00298Y01171*
X003Y01178*
X00304Y0118*
X00306Y01184*
X00306Y01184*
X00312*
X00313Y01184*
X00315Y0118*
X00321Y01177*
X00327Y01175*
X00334Y01177*
X00339Y0118*
X00343Y01186*
X00344Y01192*
X00343Y01199*
X00339Y01204*
X00334Y01208*
X00327Y01209*
X00321Y01208*
X00315Y01204*
X00313Y01201*
X00312Y01201*
X00306*
X00306Y01201*
X00304Y01204*
X00298Y01208*
X00297Y01208*
X00294Y01215*
X00349Y01323*
X00473*
X00473Y01323*
X00483Y01324*
X00492Y01327*
X00501Y01332*
X00503Y01333*
X00504Y01334*
X00545Y01365*
X00546Y01366*
X00552Y01369*
X00555Y01375*
X00557Y01381*
X00555Y01388*
X00552Y01393*
X00546Y01397*
X0054Y01398*
X00533Y01397*
X00528Y01393*
X00526Y01391*
X00506Y01376*
X00501Y01379*
Y01414*
X00503Y01417*
X00654*
Y01381*
G37*
G36*
X00601Y00839D02*
X00602Y00829D01*
X00606Y0082*
X00612Y00812*
X0062Y00806*
X00629Y00802*
X00639Y00801*
X00648Y00802*
X0065Y00802*
X00654Y00799*
Y00778*
X0065Y00776*
X00648Y00775*
X00639Y00777*
X00629Y00775*
X0062Y00772*
X00612Y00766*
X00606Y00758*
X00602Y00749*
X00601Y00739*
X00602Y00729*
X00606Y0072*
X00612Y00712*
X0062Y00706*
X00629Y00702*
X00639Y00701*
X00648Y00702*
X0065Y00702*
X00654Y00699*
Y00678*
X0065Y00676*
X00648Y00675*
X00639Y00677*
X00629Y00675*
X0062Y00672*
X00612Y00666*
X00606Y00658*
X00602Y00649*
X00601Y00639*
X00602Y00629*
X00606Y0062*
X00612Y00612*
X0062Y00606*
X00629Y00602*
X00639Y00601*
X00648Y00602*
X0065Y00602*
X00654Y00599*
Y00578*
X0065Y00576*
X00648Y00575*
X00639Y00577*
X00629Y00575*
X0062Y00572*
X00612Y00566*
X00606Y00558*
X00602Y00549*
X00601Y00539*
X00602Y00529*
X00606Y0052*
X00612Y00512*
X0062Y00506*
X00629Y00502*
X00639Y00501*
X00648Y00502*
X0065Y00502*
X00654Y00499*
Y00478*
X0065Y00476*
X00648Y00475*
X00639Y00477*
X00629Y00475*
X0062Y00472*
X00612Y00466*
X00606Y00458*
X00602Y00449*
X00601Y00439*
X00602Y00429*
X00606Y0042*
X00612Y00412*
X0062Y00406*
X00629Y00402*
X00639Y00401*
X00648Y00402*
X0065Y00402*
X00654Y00399*
Y00378*
X0065Y00376*
X00648Y00375*
X00639Y00377*
X00629Y00375*
X0062Y00372*
X00612Y00366*
X00606Y00358*
X00602Y00349*
X00601Y00339*
X00602Y00329*
X00606Y0032*
X00612Y00312*
X0062Y00306*
X00629Y00302*
X00639Y00301*
X00648Y00302*
X0065Y00302*
X00654Y00299*
Y00278*
X0065Y00276*
X00648Y00275*
X00639Y00277*
X00629Y00275*
X0062Y00272*
X00612Y00266*
X00606Y00258*
X00602Y00249*
X00601Y00239*
X00602Y00229*
X00606Y0022*
X00612Y00212*
X0062Y00206*
X00629Y00202*
X00639Y00201*
X00648Y00202*
X0065Y00202*
X00654Y00199*
Y00178*
X0065Y00176*
X00648Y00175*
X00639Y00177*
X00629Y00175*
X0062Y00172*
X00612Y00166*
X00606Y00158*
X00602Y00149*
X00601Y00139*
X00602Y00129*
X00606Y0012*
X00612Y00112*
X0062Y00106*
X00629Y00102*
X00639Y00101*
X00648Y00102*
X0065Y00102*
X00654Y00099*
Y00078*
X0065Y00076*
X00648Y00075*
X00639Y00077*
X00629Y00075*
X0062Y00072*
X00612Y00066*
X00606Y00058*
X00602Y00049*
X00601Y00039*
X00577*
X00575Y00049*
X00572Y00058*
X00566Y00066*
X00558Y00072*
X00549Y00075*
X00539Y00077*
X00529Y00075*
X0052Y00072*
X00512Y00066*
X00506Y00058*
X00502Y00049*
X00501Y00039*
X00477*
X00475Y00049*
X00472Y00058*
X00466Y00066*
X00458Y00072*
X00449Y00075*
X00439Y00077*
X00429Y00075*
X0042Y00072*
X00412Y00066*
X00406Y00058*
X00402Y00049*
X00401Y00039*
X00377*
X00375Y00049*
X00372Y00058*
X00366Y00065*
X00454Y00218*
X00461Y00218*
X00462Y00217*
X00466Y00214*
X00471Y00212*
X00477Y00211*
X00482Y00212*
X00487Y00214*
X00472Y00228*
X00477Y00232*
X00472Y00236*
X00487Y0025*
X00482Y00252*
X00481Y00252*
X00478Y00258*
X00535Y00358*
X00535Y00358*
X00536Y00361*
X00536Y00361*
X00537Y00363*
X00538Y00366*
X00539Y00374*
X00539Y00374*
X00539Y00374*
X00539Y00374*
X00539Y00375*
X00538Y00398*
X00541Y004*
X00544Y004*
X00549Y00397*
X00555Y00396*
X00562Y00397*
X00567Y00401*
X00571Y00406*
X00572Y00413*
X00571Y00419*
X00567Y00425*
X00562Y00429*
X00555Y0043*
X00549Y00429*
X00543Y00425*
X00543Y00425*
X00537Y00426*
X00535Y00489*
X00541Y00494*
X00591*
Y00725*
X00541*
X00538Y0073*
X00595Y0084*
X00601Y00839*
G37*
G36*
X00516Y00405D02*
X00516Y00395D01*
X0051Y0039*
X00508Y00391*
X00502Y00389*
X00496Y00386*
X00492Y0038*
X00491Y00374*
X00492Y00367*
X00496Y00361*
X00502Y00358*
X00502Y00358*
X00505Y00351*
X00347Y00076*
X00339Y00077*
X00329Y00075*
X0032Y00072*
X00312Y00066*
X00306Y00058*
X00302Y00049*
X00301Y00039*
X00281*
Y00061*
X00279Y00069*
X00275Y00075*
Y00082*
X00276Y00084*
X00277Y0009*
X00276Y00097*
X00272Y00102*
X00267Y00106*
X00265Y00106*
X00255Y00131*
X00259Y00136*
X0026Y00136*
X00267Y00137*
X00272Y00141*
X00276Y00147*
X00277Y00153*
X00276Y0016*
X00272Y00165*
X00267Y00169*
X00262Y0017*
Y00176*
X00267Y00177*
X00272Y0018*
X00276Y00186*
X00277Y00192*
X00276Y00199*
X00272Y00204*
X00267Y00208*
X00265Y00214*
X00266Y00216*
X00267Y00216*
X00272Y0022*
X00276Y00225*
X00276Y00227*
X00283Y00229*
X00285Y00228*
X00292Y00227*
X00298Y00228*
X00304Y00232*
X00307Y00237*
X00309Y00243*
X0051Y00407*
X00516Y00405*
G37*
G36*
X00157Y00405D02*
X00158Y00399D01*
X00076Y00366*
X00074Y0037*
X00059Y00385*
X00063Y00389*
X00059Y00393*
X00073Y00408*
X0007Y00409*
X00068Y00413*
X00068Y00415*
X00072Y0042*
X00072Y00421*
X00157Y00405*
G37*
G36*
X00156Y00256D02*
X00177Y00101D01*
X00174Y00097*
X00172Y0009*
X00174Y00084*
X00177Y00078*
X00183Y00074*
X00189Y00073*
X00195Y00074*
X00197Y00073*
X00199Y0007*
X00199Y00069*
X00197Y00061*
Y00039*
X00177*
X00175Y00049*
X00172Y00058*
X00166Y00066*
X00158Y00072*
X00149Y00075*
X00139Y00077*
X00129Y00075*
X0012Y00072*
X00112Y00066*
X00106Y00058*
X00102Y00049*
X00101Y00039*
X00077*
X00075Y00049*
X00072Y00058*
X00066Y00066*
X00058Y00072*
X00049Y00075*
X00039Y00077*
X0003Y00075*
X00028Y00076*
X00024Y00078*
Y00099*
X00028Y00102*
X0003Y00102*
X00039Y00101*
X00049Y00102*
X00058Y00106*
X00066Y00112*
X00072Y0012*
X00075Y00129*
X00077Y00139*
X00075Y00149*
X00073Y00153*
X00087Y00165*
X00087Y00166*
X00089Y00167*
X0009Y00168*
X0009Y00168*
X00091Y0017*
X00092Y00171*
X00093Y00171*
X0015Y00257*
X00156Y00256*
G37*
%LNcs_ranka-2*%
%LPC*%
G36*
X006Y0137D02*
X00599Y01369D01*
X00597Y01361*
Y01317*
X00599Y01309*
X006Y01308*
X00631Y01339*
X006Y0137*
G37*
G36*
X00256Y01268D02*
X00251Y01268D01*
X00246Y01266*
X00256Y01256*
X00266Y01266*
X00262Y01268*
X00256Y01268*
G37*
G36*
X00238Y01257D02*
X00236Y01253D01*
X00235Y01248*
X00236Y01242*
X00238Y01238*
X00248Y01248*
X00238Y01257*
G37*
G36*
X00433Y01225D02*
X00427Y01224D01*
X00421Y0122*
X00421Y01219*
X00415*
X00414Y0122*
X00408Y01224*
X00402Y01225*
X00395Y01224*
X0039Y0122*
X00389Y01219*
X00383*
X00382Y0122*
X00377Y01224*
X0037Y01225*
X00364Y01224*
X00358Y0122*
X00355Y01215*
X00353Y01208*
X00355Y01202*
X00358Y01196*
X00364Y01192*
X0037Y01191*
X00377Y01192*
X00382Y01196*
X00383Y01197*
X00389*
X0039Y01196*
X00395Y01192*
X00402Y01191*
X00408Y01192*
X00414Y01196*
X00415Y01197*
X00421*
X00421Y01196*
X00427Y01192*
X00433Y01191*
X0044Y01192*
X00445Y01196*
X00449Y01202*
X0045Y01208*
X00449Y01215*
X00445Y0122*
X0044Y01224*
X00433Y01225*
G37*
G36*
X00078Y0127D02*
X00047Y01239D01*
X00078Y01208*
X00079Y01209*
X00081Y01217*
Y01261*
X00079Y01269*
X00078Y0127*
G37*
G36*
X00539Y01277D02*
X00529Y01275D01*
X0052Y01272*
X00512Y01266*
X00506Y01258*
X00502Y01249*
X00501Y01239*
X00502Y01229*
X00506Y0122*
X00512Y01212*
X0052Y01206*
X00529Y01202*
X00539Y01201*
X00549Y01202*
X00558Y01206*
X00566Y01212*
X00572Y0122*
X00575Y01229*
X00577Y01239*
X00575Y01249*
X00572Y01258*
X00566Y01266*
X00558Y01272*
X00549Y01275*
X00539Y01277*
G37*
G36*
X00139D02*
X00129Y01275D01*
X0012Y01272*
X00112Y01266*
X00106Y01258*
X00102Y01249*
X00101Y01239*
X00102Y01229*
X00106Y0122*
X00112Y01212*
X0012Y01206*
X00129Y01202*
X00139Y01201*
X00149Y01202*
X00158Y01206*
X00166Y01212*
X00172Y0122*
X00175Y01229*
X00177Y01239*
X00175Y01249*
X00172Y01258*
X00166Y01266*
X00158Y01272*
X00149Y01275*
X00139Y01277*
G37*
G36*
X00199Y01152D02*
X00194Y01152D01*
X00189Y0115*
X00199Y0114*
X00209Y0115*
X00205Y01152*
X00199Y01152*
G37*
G36*
X00217Y01141D02*
X00207Y01131D01*
X00217Y01121*
X00219Y01126*
X0022Y01131*
X00219Y01137*
X00217Y01141*
G37*
G36*
X00374Y01154D02*
X00368Y01153D01*
X00362Y01149*
X00359Y01144*
X00357Y01137*
X00359Y01131*
X00362Y01125*
X00368Y01122*
X00374Y0112*
X00381Y01122*
X00386Y01125*
X0039Y01131*
X00391Y01137*
X0039Y01144*
X00386Y01149*
X00381Y01153*
X00374Y01154*
G37*
G36*
X00181Y01141D02*
X00179Y01137D01*
X00179Y01137*
X00111*
Y01091*
X00163*
X00164Y01085*
X00164Y01085*
X00174Y01075*
X00183Y01085*
X00182Y01085*
X00181Y01091*
Y01092*
Y01112*
X00187Y01114*
X00189Y01113*
X00194Y01111*
X00199Y01111*
X00205Y01111*
X00209Y01113*
X00195Y01127*
X00181Y01141*
G37*
G36*
X00155Y01076D02*
X00153Y01072D01*
X00153Y01066*
X00153Y01061*
X00155Y01057*
X00165Y01066*
X00155Y01076*
G37*
G36*
X00386Y01048D02*
X0038Y01047D01*
X00374Y01043*
X0037Y01038*
X00369Y01031*
X0037Y01024*
X00374Y01019*
X0038Y01015*
X00386Y01014*
X00393Y01015*
X00398Y01019*
X00402Y01024*
X00403Y01031*
X00402Y01038*
X00398Y01043*
X00393Y01047*
X00386Y01048*
G37*
G36*
X00174Y00981D02*
X00168Y0098D01*
X00164Y00978*
X00174Y00968*
X00183Y00978*
X00179Y0098*
X00174Y00981*
G37*
G36*
X00192Y0097D02*
X00182Y0096D01*
X00192Y0095*
X00194Y00955*
X00194Y0096*
X00194Y00966*
X00192Y0097*
G37*
G36*
X00155D02*
X00153Y00966D01*
X00153Y0096*
X00153Y00955*
X00155Y0095*
X00165Y0096*
X00155Y0097*
G37*
G36*
X00174Y00952D02*
X00161Y0094D01*
X00162Y00937*
X00161Y00936*
X00158Y00931*
X00156Y00925*
X00158Y00918*
X00161Y00913*
X00167Y00909*
X00174Y00908*
X0018Y00909*
X00186Y00913*
X00189Y00918*
X00191Y00925*
X00189Y00931*
X00186Y00936*
X00185Y00937*
X00186Y0094*
X00174Y00952*
G37*
G36*
X00158Y00847D02*
X00151Y00846D01*
X00146Y00842*
X00142Y00837*
X00141Y0083*
X00142Y00824*
X00146Y00818*
X00151Y00814*
X00158Y00813*
X00164Y00814*
X0017Y00818*
X00174Y00824*
X00175Y0083*
X00174Y00837*
X0017Y00842*
X00164Y00846*
X00158Y00847*
G37*
G36*
X00138Y00808D02*
X00133Y00807D01*
X00128Y00805*
X00138Y00795*
X00148Y00805*
X00143Y00807*
X00138Y00808*
G37*
G36*
X00156Y00797D02*
X00146Y00787D01*
X00156Y00777*
X00158Y00782*
X00159Y00787*
X00158Y00792*
X00156Y00797*
G37*
G36*
X0012D02*
X00118Y00792D01*
X00117Y00787*
X00118Y00782*
X0012Y00777*
X0013Y00787*
X0012Y00797*
G37*
G36*
X00138Y00779D02*
X00128Y00769D01*
X00133Y00767*
X00138Y00766*
X00143Y00767*
X00148Y00769*
X00138Y00779*
G37*
G36*
X00082Y00499D02*
X00072Y00489D01*
X00082Y00479*
X00083Y00484*
X00084Y00489*
X00083Y00495*
X00082Y00499*
G37*
G36*
X00495Y00242D02*
X00485Y00232D01*
X00495Y00222*
X00497Y00226*
X00498Y00232*
X00497Y00237*
X00495Y00242*
G37*
G36*
X00591Y00285D02*
X00536D01*
Y00084*
X00591*
Y00285*
G37*
G36*
X00343Y00198D02*
X00336Y00196D01*
X00331Y00193*
X00327Y00187*
X00326Y00181*
X00327Y00174*
X00331Y00169*
X00336Y00165*
X00343Y00164*
X00349Y00165*
X00355Y00169*
X00359Y00174*
X0036Y00181*
X00359Y00187*
X00355Y00193*
X00349Y00196*
X00343Y00198*
G37*
G36*
X00082Y00399D02*
X00072Y00389D01*
X00082Y00379*
X00083Y00384*
X00084Y00389*
X00083Y00395*
X00082Y00399*
G37*
%LNcs_ranka-3*%
%LPD*%
G54D11*
X00217Y00452D02*
D01*
X00216Y00452*
X00214Y00452*
X00213Y00452*
X00211Y00452*
X0021Y00451*
X00209Y00451*
X00208Y0045*
X00206Y00449*
X00205Y00449*
X00204Y00448*
X00203Y00447*
X00202Y00446*
X00201Y00445*
X00201Y00444*
X002Y00442*
X00199Y00441*
X00199Y0044*
X00198Y00439*
X00198Y00437*
X00197Y00436*
X00197Y00435*
X00197Y00433*
X00197Y00433*
X00217Y00452D02*
D01*
X00218Y00452*
X0022Y00452*
X00221Y00453*
X00222Y00453*
X00224Y00453*
X00225Y00454*
X00226Y00455*
X00227Y00455*
X00228Y00456*
X0023Y00457*
X00231Y00458*
X00231Y00459*
X00232Y0046*
X00233Y00461*
X00234Y00462*
X00235Y00463*
X00235Y00465*
X00236Y00466*
X00236Y00467*
X00236Y00469*
X00236Y0047*
X00237Y00471*
X00237Y00472*
X00256Y00492D02*
D01*
X00255Y00492*
X00253Y00491*
X00252Y00491*
X00251Y00491*
X00249Y0049*
X00248Y0049*
X00247Y00489*
X00246Y00489*
X00245Y00488*
X00244Y00487*
X00243Y00486*
X00242Y00485*
X00241Y00484*
X0024Y00483*
X00239Y00482*
X00238Y00481*
X00238Y00479*
X00237Y00478*
X00237Y00477*
X00237Y00475*
X00237Y00474*
X00237Y00473*
X00237Y00472*
X00177Y00413D02*
D01*
X00179Y00413*
X0018Y00413*
X00182Y00413*
X00183Y00414*
X00184Y00414*
X00185Y00415*
X00187Y00415*
X00188Y00416*
X00189Y00417*
X0019Y00417*
X00191Y00418*
X00192Y00419*
X00193Y0042*
X00194Y00422*
X00194Y00423*
X00195Y00424*
X00196Y00425*
X00196Y00426*
X00197Y00428*
X00197Y00429*
X00197Y0043*
X00197Y00432*
X00197Y00433*
X00174Y00413D02*
D01*
X00175Y00413*
X00177Y00413*
X00177Y00413*
X00273Y00462D02*
D01*
X00274Y00463*
X00274Y00465*
X00275Y00466*
X00275Y00467*
X00276Y00468*
X00276Y0047*
X00276Y00471*
X00276Y00473*
X00276Y00474*
X00276Y00475*
X00275Y00477*
X00275Y00478*
X00274Y00479*
X00274Y00481*
X00273Y00482*
X00273Y00483*
X00272Y00484*
X00271Y00485*
X0027Y00486*
X00269Y00487*
X00268Y00488*
X00267Y00489*
X00265Y00489*
X00264Y0049*
X00263Y0049*
X00262Y00491*
X0026Y00491*
X00259Y00491*
X00258Y00492*
X00256Y00492*
X00256Y00492*
X00239Y00442D02*
D01*
X00239Y00441*
X00238Y0044*
X00237Y00439*
X00237Y00437*
X00237Y00436*
X00237Y00435*
X00237Y00433*
X00237Y00433*
X00231Y00419D02*
D01*
X00232Y0042*
X00233Y00421*
X00233Y00422*
X00234Y00423*
X00235Y00424*
X00235Y00425*
X00236Y00427*
X00236Y00428*
X00236Y00429*
X00236Y00431*
X00237Y00432*
X00237Y00433*
X00224Y00414D02*
D01*
X00225Y00415*
X00227Y00416*
X00228Y00416*
X00229Y00417*
X0023Y00418*
X00231Y00419*
X00512Y00632D02*
D01*
X00512Y00633*
X00511Y00635*
X00511Y00636*
X00511Y00637*
X0051Y00638*
X00509Y0064*
X00509Y00641*
X00508Y00642*
X00507Y00643*
X00506Y00644*
X00505Y00645*
X00504Y00646*
X00503Y00646*
X00501Y00647*
X005Y00648*
X00499Y00648*
X00497Y00648*
X00496Y00649*
X00495Y00649*
X00493Y00649*
X00492Y00649*
X00522Y00552D02*
D01*
X00522Y00554*
X00522Y00554*
X00528Y00374D02*
D01*
X00528Y00374*
X00528Y00374*
Y00374*
X00528Y00374*
X00528Y00374*
X00424Y00765D02*
D01*
X00422Y00765*
X00421Y00766*
X0042Y00766*
X00418Y00767*
X00417Y00767*
X00416Y00767*
X00414Y00767*
X00414Y00767*
X00315Y00708D02*
D01*
X00315Y00707*
X00315Y00705*
X00316Y00704*
X00316Y00703*
X00335Y00728D02*
D01*
X00334Y00728*
X00332Y00728*
X00331Y00727*
X0033Y00727*
X00328Y00727*
X00327Y00726*
X00326Y00726*
X00325Y00725*
X00323Y00724*
X00322Y00723*
X00321Y00722*
X0032Y00721*
X00319Y0072*
X00319Y00719*
X00318Y00718*
X00317Y00717*
X00317Y00716*
X00316Y00714*
X00316Y00713*
X00316Y00712*
X00315Y0071*
X00315Y00709*
X00315Y00708*
X00335Y00728D02*
D01*
X00336Y00728*
X00338Y00728*
X00339Y00728*
X0034Y00729*
X00342Y00729*
X00343Y0073*
X00344Y0073*
X00345Y00731*
X00347Y00732*
X00348Y00732*
X00349Y00733*
X0035Y00734*
X0035Y00735*
X00351Y00737*
X00352Y00738*
X00353Y00739*
X00353Y0074*
X00354Y00742*
X00354Y00743*
X00354Y00744*
X00355Y00746*
X00355Y00747*
Y00748*
X00374Y00767D02*
D01*
X00373Y00767*
X00372Y00767*
X0037Y00767*
X00369Y00766*
X00368Y00766*
X00366Y00766*
X00365Y00765*
X00364Y00764*
X00363Y00763*
X00362Y00763*
X00361Y00762*
X0036Y00761*
X00359Y0076*
X00358Y00759*
X00357Y00757*
X00357Y00756*
X00356Y00755*
X00356Y00754*
X00355Y00752*
X00355Y00751*
X00355Y0075*
X00355Y00748*
X00355Y00748*
X00158Y00585D02*
D01*
X00159Y00584*
X00159Y00583*
X0016Y00581*
X0016Y0058*
X00149Y00637D02*
D01*
X00148Y00635*
X00148Y00633*
X00148Y00631*
X00148Y00629*
X00148Y00627*
X00148Y00625*
X00149Y00623*
X00149Y00622*
X00217Y0057D02*
D01*
X00218Y0057*
X0022Y00571*
X00221Y00571*
X00222Y00571*
X00224Y00572*
X00225Y00572*
X00226Y00573*
X00227Y00573*
X00228Y00574*
X00229Y00575*
X0023Y00576*
X00231Y00577*
X00232Y00578*
X00233Y00579*
X00234Y0058*
X00235Y00581*
X00235Y00583*
X00236Y00584*
X00236Y00585*
X00236Y00587*
X00236Y00588*
X00236Y00589*
Y00591*
X00236Y00592*
X00236Y00593*
X00236Y00595*
X00236Y00596*
X00235Y00597*
X00235Y00599*
X00234Y006*
X00233Y00601*
X00232Y00602*
X00231Y00603*
X0023Y00604*
X00229Y00605*
X00228Y00606*
X00227Y00607*
X00226Y00607*
X00225Y00608*
X00224Y00609*
X00222Y00609*
X00221Y00609*
X0022Y0061*
X00218Y0061*
X00217Y0061*
X00207Y00573D02*
D01*
X00208Y00572*
X00209Y00572*
X00211Y00571*
X00212Y00571*
X00213Y00571*
X00215Y0057*
X00216Y0057*
X00217Y0057*
Y00649D02*
D01*
X00215Y00649*
X00214Y00649*
X00213Y00649*
X00211Y00648*
X0021Y00648*
X00209Y00647*
X00208Y00647*
X00206Y00646*
X00205Y00645*
X00204Y00645*
X00203Y00644*
X00202Y00643*
X00201Y00642*
X002Y0064*
X002Y00639*
X00199Y00638*
X00199Y00637*
X00198Y00636*
X00198Y00634*
X00197Y00633*
X00197Y00631*
X00197Y0063*
X00197Y00629*
X00232Y00641D02*
D01*
X00232Y00642*
X00231Y00643*
X0023Y00644*
X00229Y00645*
X00227Y00646*
X00226Y00647*
X00225Y00647*
X00224Y00648*
X00222Y00648*
X00221Y00649*
X0022Y00649*
X00218Y00649*
X00217Y00649*
X00217Y00649*
X0024Y00609D02*
D01*
X00238Y0061*
X00237Y00612*
X00236Y00612*
X00197Y00629D02*
D01*
X00197Y00628*
X00197Y00627*
X00198Y00625*
X00198Y00624*
X00198Y00623*
X00199Y00621*
X00199Y0062*
X002Y00619*
X00201Y00618*
X00202Y00617*
X00203Y00616*
X00204Y00615*
X00205Y00614*
X00206Y00613*
X00207Y00612*
X00208Y00612*
X0021Y00611*
X00211Y00611*
X00212Y0061*
X00213Y0061*
X00215Y0061*
X00216Y0061*
X00217Y0061*
X00187Y00607D02*
D01*
X00186Y00608*
X00185Y00608*
X00184Y00609*
X00182Y00609*
X00181Y00609*
X0018Y0061*
X00178Y0061*
X00177Y0061*
X00177Y00649D02*
D01*
X00176Y00649*
X00175Y00649*
X00173Y00649*
X00172Y00648*
X00171Y00648*
X00169Y00647*
X00168Y00647*
X00167Y00646*
X00166Y00645*
X00165Y00645*
X00164Y00644*
X00163Y00643*
X00162Y00642*
X00161Y0064*
X0016Y00639*
X0016Y00638*
X00159Y00637*
X00159Y00636*
X00158Y00634*
X00158Y00633*
X00158Y00631*
X00158Y0063*
X00158Y00629*
D01*
X00158Y00628*
X00158Y00627*
X00158Y00625*
X00159Y00624*
X00159Y00623*
X00159Y00621*
X0016Y0062*
X00161Y00619*
X00162Y00618*
X00162Y00617*
X00163Y00616*
X00164Y00615*
X00165Y00614*
X00166Y00613*
X00168Y00612*
X00169Y00612*
X0017Y00611*
X00171Y00611*
X00173Y0061*
X00174Y0061*
X00175Y0061*
X00177Y0061*
X00177Y0061*
X00512Y00472D02*
D01*
Y00472*
Y00472*
Y00472*
Y00472*
Y00472*
X00466Y00418D02*
D01*
X00467Y00418*
X00468Y00419*
X00469Y00421*
X00469Y00422*
X0047Y00423*
X00471Y00424*
D01*
X00471Y00425*
X00472Y00426*
X00472Y00428*
X00472Y00429*
X00473Y0043*
X00473Y00432*
X00473Y00433*
Y00472D02*
D01*
X00473Y00473*
X00473Y00474*
X00279Y00259D02*
D01*
X00278Y00258*
X00277Y00257*
X00276Y00256*
X00275Y00255*
X00275Y00254*
X00511Y00426D02*
D01*
X00511Y00428*
X00512Y00429*
X00512Y0043*
X00512Y00432*
X00512Y00433*
X00505Y00417D02*
D01*
X00506Y00418*
X00507Y00419*
X00508Y0042*
X00509Y00421*
X00509Y00422*
X0051Y00424*
X00511Y00425*
X00511Y00426*
X00511Y00426*
X00512Y00551D02*
D01*
X00512Y00552*
X00512Y00553*
X00512Y00555*
X00511Y00556*
X00526Y00365D02*
D01*
X00526Y00366*
X00527Y00367*
X00527Y00369*
X00528Y0037*
X00528Y00371*
X00528Y00373*
X00528Y00374*
X00528Y00374*
X00525Y00364D02*
D01*
X00525Y00364*
X00525Y00364*
X00526Y00364*
X00526Y00365*
X00526Y00365*
X0036Y0039D02*
D01*
X00363Y00392*
X00365Y00394*
X00368Y00396*
X0037Y00398*
X00373Y00401*
X00375Y00404*
X00377Y00407*
X00378Y0041*
X0038Y00413*
X00381Y00416*
X00382Y00419*
X00383Y00422*
X00384Y00426*
X00384Y00429*
X00384Y00433*
X00384Y00433*
D01*
X00384Y00436*
X00384Y0044*
X00383Y00443*
X00383Y00445*
X00364Y00381D02*
D01*
X00368Y00384*
X00371Y00386*
X00374Y00389*
X00377Y00392*
X0038Y00395*
X00383Y00398*
X00385Y00401*
X00387Y00405*
X00389Y00409*
X0039Y00412*
X00392Y00416*
X00393Y0042*
X00393Y00424*
X00394Y00428*
X00394Y00433*
X00394Y00433*
X00384Y00725D02*
D01*
X00383Y00726*
X00382Y00726*
X0038Y00727*
X00379Y00727*
X00378Y00728*
X00376Y00728*
X00375Y00728*
X00374Y00728*
X00372Y00728*
X00371Y00728*
X0037Y00727*
X00368Y00727*
X00367Y00726*
X00366Y00726*
X00365Y00725*
X00363Y00725*
X00362Y00724*
X00361Y00723*
X0036Y00722*
X00359Y00721*
X00358Y0072*
X00358Y00719*
X00357Y00717*
X00356Y00716*
X00356Y00715*
X00355Y00714*
X00355Y00712*
X00355Y00711*
X00355Y0071*
X00355Y00708*
X00355Y00707*
X00355Y00705*
X00355Y00705*
X00394Y00433D02*
D01*
X00394Y00437*
X00393Y00441*
X00393Y00441*
X00237Y00708D02*
D01*
X00237Y00707*
X00237Y00705*
X00237Y00704*
X00237Y00703*
X00238Y00701*
X00238Y007*
X00239Y00699*
X00239Y00698*
X00237Y00708D02*
D01*
X00236Y00709*
X00236Y00711*
X00236Y00712*
X00236Y00714*
X00235Y00715*
X00235Y00716*
X00234Y00717*
X00234Y00719*
X00233Y0072*
X00232Y00721*
X00231Y00722*
X0023Y00723*
X00229Y00724*
X00228Y00724*
X00227Y00725*
X00225Y00726*
X00224Y00726*
X00223Y00727*
X00222Y00727*
X0022Y00728*
X00219Y00728*
X00218Y00728*
X00217Y00728*
X00374Y00433D02*
D01*
X00374Y00435*
X00374Y00438*
X00373Y00441*
X00373Y00443*
X00372Y00446*
X00372Y00446*
X00342Y00528D02*
D01*
X0034Y00531*
X00339Y00534*
X00338Y00537*
X00364Y00433D02*
D01*
X00364Y00435*
X00364Y00437*
X00364Y00439*
X00363Y00441*
X00363Y00443*
X00363Y00443*
X00333Y00525D02*
D01*
X00332Y00527*
X0033Y0053*
X00329Y00532*
X00329Y00533*
X00345Y00416D02*
D01*
X00346Y00416*
X00347Y00417*
X00348Y00418*
X00349Y00419*
X0035Y0042*
X00351Y00421*
X00352Y00422*
X00352Y00423*
X00353Y00425*
X00353Y00426*
X00354Y00427*
X00354Y00428*
X00354Y0043*
X00355Y00431*
X00355Y00433*
X00355Y00433*
D01*
X00355Y00434*
X00354Y00435*
X00354Y00437*
X00354Y00438*
X00353Y00439*
X00353Y00439*
X00323Y00521D02*
D01*
X00323Y00523*
X00322Y00525*
X00321Y00527*
X00319Y00529*
X00319Y00529*
X00302Y00414D02*
D01*
X00303Y00415*
X00305Y00415*
X00306Y00416*
X00306Y00416*
X00315Y00511D02*
D01*
Y00511*
Y00511*
Y00511*
Y00511*
Y00511*
D01*
X00315Y00513*
X00315Y00514*
X00315Y00515*
X00314Y00517*
X00314Y00518*
X00314Y00519*
X00313Y00521*
X00312Y00522*
X00312Y00523*
X00311Y00524*
X0031Y00524*
X00306Y00416D02*
D01*
X00307Y00417*
X00308Y00418*
X00309Y00418*
X0031Y00419*
X00311Y00421*
X00312Y00422*
X00313Y00423*
X00313Y00424*
X00314Y00425*
X00314Y00427*
X00315Y00428*
X00315Y00429*
X00315Y00431*
X00315Y00432*
X00315Y00433*
X00473Y00629D02*
D01*
X00473Y00628*
X00473Y00627*
X00473Y00625*
X00473Y00625*
X00177Y00688D02*
D01*
X00179Y00689*
X0018Y00689*
X00182Y00689*
X00183Y00689*
X00184Y0069*
X00185Y0069*
X00187Y00691*
X00188Y00691*
X00189Y00692*
X0019Y00693*
X00191Y00694*
X00192Y00695*
X00193Y00696*
X00194Y00697*
X00195Y00698*
X00195Y007*
X00196Y00701*
X00196Y00702*
X00197Y00703*
X00197Y00705*
X00197Y00706*
X00197Y00707*
X00197Y00708*
X00217Y00728D02*
D01*
X00215Y00728*
X00214Y00728*
X00213Y00727*
X00211Y00727*
X0021Y00727*
X00209Y00726*
X00208Y00726*
X00206Y00725*
X00205Y00724*
X00204Y00723*
X00203Y00722*
X00202Y00721*
X00201Y0072*
X002Y00719*
X002Y00718*
X00199Y00717*
X00199Y00716*
X00198Y00714*
X00198Y00713*
X00197Y00712*
X00197Y0071*
X00197Y00709*
X00197Y00708*
X00188Y00282D02*
D01*
X00188Y00281*
X00187Y00279*
X00187Y00278*
X00186Y00277*
X00186Y00275*
X00186Y00274*
X00185Y00273*
X00185Y00271*
X00185Y0027*
X00185Y00269*
X00186Y00267*
X00186Y00266*
X00186Y00265*
X00187Y00264*
X00177Y00688D02*
D01*
X00176Y00688*
X00175Y00688*
X00173Y00688*
X00172Y00688*
X00171Y00687*
X00169Y00687*
X00168Y00686*
X00167Y00685*
X00166Y00685*
X00165Y00684*
X00164Y00683*
X00163Y00682*
X00162Y00681*
X00161Y0068*
X0016Y00679*
X0016Y00677*
X00159Y00676*
X00159Y00675*
X00158Y00674*
X00202Y00224D02*
D01*
X00203Y00224*
X00203Y00224*
X00203Y00224*
X00203Y00224*
X00203Y00224*
X00315Y00377D02*
D01*
X00319Y00378*
X00323Y0038*
X00325Y00381*
X00355Y00398D02*
D01*
X00355Y00399*
X00355Y00399*
X00355Y00399*
X00355Y00399*
X00356Y00399*
X00356Y00399*
X00217Y00688D02*
D01*
X00215Y00688*
X00214Y00688*
X00213Y00688*
X00211Y00688*
X0021Y00687*
X00209Y00687*
X00208Y00686*
X00206Y00685*
X00205Y00685*
X00204Y00684*
X00203Y00683*
X00202Y00682*
X00201Y00681*
X002Y0068*
X002Y00679*
X00199Y00677*
X00199Y00676*
X00198Y00675*
X00198Y00674*
X00197Y00672*
X00197Y00671*
X00197Y00669*
X00197Y00669*
X00234Y00679D02*
D01*
X00233Y0068*
X00232Y00681*
X00232Y00682*
X00231Y00683*
X0023Y00684*
X00229Y00685*
X00227Y00685*
X00226Y00686*
X00225Y00687*
X00224Y00687*
X00222Y00688*
X00221Y00688*
X0022Y00688*
X00218Y00688*
X00217Y00688*
X00217Y00688*
X00309Y00395D02*
D01*
X00311Y00396*
X00314Y00398*
X00315Y00398*
X00221Y00396D02*
D01*
X00215Y00393*
X0021Y0039*
X00205Y00387*
X002Y00383*
X00197Y0038*
X00264Y00415D02*
D01*
X00265Y00415*
X00266Y00416*
X0023Y00389D02*
D01*
X00225Y00387*
X0022Y00384*
X00215Y00382*
X00211Y00379*
X00206Y00375*
X00202Y00372*
X00198Y00368*
X00195Y00364*
X00193Y00361*
X00311Y00408D02*
D01*
X00313Y00409*
X00315Y0041*
X00316Y00411*
X00318Y00413*
X00318Y00413*
X00305Y00405D02*
D01*
X00307Y00405*
X00309Y00406*
X00311Y00407*
X00311Y00408*
X00215Y0037D02*
D01*
X00211Y00367*
X00208Y00363*
X00204Y0036*
X00201Y00356*
X00198Y00352*
X00198Y00352*
X00233Y00379D02*
D01*
X00229Y00378*
X00225Y00376*
X0022Y00373*
X00216Y00371*
X00215Y0037*
X00172Y00292D02*
D01*
X0017Y0029*
X00169Y00288*
X00168Y00285*
X00167Y00282*
X00167Y0028*
X00166Y00277*
X00166Y00274*
X00166Y00272*
X00166Y00269*
X00166Y00266*
X00166Y00266*
X00237Y0037D02*
D01*
X00233Y00369*
X00229Y00367*
X00226Y00365*
X00222Y00363*
X00219Y0036*
X00216Y00357*
X00213Y00355*
X0021Y00351*
X00208Y00348*
X00206Y00346*
X0024Y00361D02*
D01*
X00237Y0036*
X00234Y00358*
X00231Y00357*
X00228Y00355*
X00225Y00353*
X00222Y0035*
X0022Y00348*
X00218Y00345*
X00216Y00342*
X00215Y00341*
X00312Y00386D02*
D01*
X00315Y00387*
X00318Y00389*
X0032Y0039*
X00243Y00352D02*
D01*
X00241Y00351*
X00238Y00349*
X00236Y00348*
X00233Y00347*
X00233Y00347*
X00322Y00358D02*
D01*
X00327Y0036*
X00332Y00363*
X00335Y00364*
X0025Y00333D02*
D01*
X00248Y00333*
X00247Y00332*
X00246Y00331*
X00245Y00331*
X00244Y0033*
X00243Y00329*
X00242Y00328*
X00241Y00327*
X0024Y00326*
X00239Y00325*
X00239Y00323*
X00238Y00322*
X00238Y00321*
X00237Y00319*
X00237Y00318*
X00237Y00317*
X00237Y00315*
X00237Y00314*
X00237Y00314*
X0036Y0039D02*
D01*
X0036*
X0036Y0039*
X0036Y0039*
X0036Y0039*
X0036Y0039*
X00246Y00342D02*
D01*
X00245Y00342*
X00243Y00341*
X00241Y0034*
X00239Y00339*
X00238Y00337*
X00236Y00336*
X00235Y00335*
X00233Y00333*
X00232Y00331*
X00231Y0033*
X0023Y00328*
X00229Y00326*
X00228Y00324*
X00228Y00322*
X00227Y0032*
X00227Y00318*
X00227Y00316*
X00227Y00316*
X00318Y00368D02*
D01*
X00323Y00369*
X00327Y00371*
X0033Y00373*
X0035Y00407D02*
D01*
X00352Y00409*
X00354Y0041*
X00355Y00411*
X00357Y00413*
X00358Y00414*
X00359Y00416*
X0036Y00418*
X00361Y0042*
X00362Y00421*
X00363Y00423*
X00364Y00425*
X00364Y00427*
X00364Y00429*
X00364Y00431*
X00364Y00433*
X0035Y00407D02*
D01*
X0035Y00407*
X0035Y00407*
X0035Y00407*
X0035Y00407*
X0035Y00407*
X0035*
X0008Y00173D02*
D01*
X00081Y00174*
X00082Y00175*
X00083Y00176*
D01*
X00083Y00177*
X00084Y00178*
X0018Y00287D02*
D01*
X00179Y00285*
X00178Y00283*
X00177Y00282*
X00177Y0028*
X00176Y00278*
X00176Y00276*
X00176Y00274*
X00175Y00271*
X00175Y00271*
D01*
X00176Y00269*
X00176Y00267*
X00176Y00265*
X00177Y00263*
X00233Y00347D02*
D01*
X00231Y00345*
X00229Y00343*
X00227Y00341*
X00225Y00339*
X00224Y00337*
X00223Y00336*
X00225Y00269D02*
D01*
X00225Y00269*
X00225Y0027*
X00225Y0027*
X00225Y0027*
X00225Y0027*
Y0027*
X0024Y00232D02*
D01*
X0024Y0023*
X00241Y00229*
X00241Y00228*
X00241Y00226*
X00242Y00225*
X00242Y00224*
X00243Y00223*
X00243Y00222*
X0024Y00232D02*
D01*
X0024Y00232*
X0024Y00232*
X0024Y00232*
X0024Y00233*
X0024Y00233*
X00492Y00688D02*
D01*
X00494Y00689*
X00495Y00689*
X00497Y00689*
X00498Y00689*
X00499Y0069*
X005Y0069*
X00501Y00691*
X00404Y00691D02*
D01*
X00405Y0069*
X00406Y0069*
X00408Y00689*
X00409Y00689*
X0041Y00689*
X00412Y00689*
X00413Y00688*
X00414Y00688*
X00501Y00691D02*
D01*
X00502Y00691*
X00504Y00692*
X00505Y00693*
X00506Y00694*
X00507Y00695*
X00508Y00696*
X00508Y00697*
X00509Y00698*
X0051Y00699*
X00599Y00925D02*
D01*
X00599Y00927*
X00599Y0093*
X00599Y0093*
X00595Y00863D02*
D01*
X00596Y00865*
X00597Y00868*
X00598Y0087*
X00598Y00873*
X00599Y00876*
X00599Y00878*
X00599Y00881*
X00579Y01066D02*
D01*
X00578Y01069*
X00578Y01071*
X00577Y01074*
X00576Y01077*
X00574Y01079*
X00573Y01081*
X00404Y0073D02*
D01*
X00405Y0073*
X00406Y00729*
X00408Y00729*
X00409Y00728*
X0041Y00728*
X00412Y00728*
X00413Y00728*
X00414Y00728*
X00589Y00925D02*
D01*
X00589Y00927*
X00589Y00929*
X00589Y0093*
X00492Y00728D02*
D01*
X00494Y00728*
X00495Y00728*
X00497Y00728*
X00498Y00729*
X00499Y00729*
X005Y0073*
X00502Y0073*
X00503Y00731*
X00504Y00732*
X00505Y00732*
X00506Y00733*
X00507Y00734*
X00508Y00735*
X00509Y00737*
X00509Y00738*
X00585Y00866D02*
D01*
X00586Y00868*
X00587Y0087*
X00588Y00872*
X00588Y00873*
X00589Y00875*
X00589Y00877*
X00589Y00879*
X00589Y00881*
X00579Y00988D02*
D01*
X00578Y00991*
X00577Y00994*
X00576Y00996*
X00575Y00999*
X00574Y01001*
X00573Y01002*
X00576Y0087D02*
D01*
X00577Y00871*
X00577Y00872*
X00578Y00874*
X00578Y00875*
X00579Y00876*
X00579Y00877*
X00579Y00879*
X00579Y0088*
X00579Y00881*
Y00925D02*
D01*
X00579Y00926*
X00579Y00927*
X00579Y00929*
X00579Y0093*
X00578Y00931*
X00578Y00932*
X00577Y00933*
X00576Y00934*
X00576Y00935*
X00575Y00936*
X00356Y00399D02*
D01*
X00358Y00401*
X0036Y00402*
X00362Y00404*
X00364Y00406*
X00366Y00408*
X00367Y0041*
X00369Y00413*
X0037Y00415*
X00371Y00418*
X00372Y0042*
X00373Y00423*
X00374Y00426*
X00374Y00428*
X00374Y00431*
X00374Y00433*
X00178Y00649D02*
D01*
X00179Y00649*
X0018Y00649*
X00182Y0065*
X00183Y0065*
X00184Y0065*
X00186Y00651*
X00187Y00651*
X00188Y00652*
X00189Y00653*
X0019Y00654*
X00191Y00655*
X00192Y00656*
X00193Y00657*
X00194Y00658*
X00195Y00659*
X00195Y0066*
X00196Y00661*
X00196Y00663*
X00197Y00664*
X00197Y00665*
X00197Y00667*
X00197Y00668*
Y00669*
X00492Y00649D02*
D01*
X00491Y00649*
X0049Y00649*
X00488Y00649*
X00487Y00648*
X00486Y00648*
X00484Y00647*
X00483Y00647*
X00482Y00646*
X00481Y00645*
X0048Y00645*
X00479Y00644*
X00478Y00643*
X00477Y00642*
X00476Y0064*
X00475Y00639*
X00475Y00638*
X00474Y00637*
X00474Y00636*
X00473Y00634*
X00473Y00633*
X00473Y00631*
X00473Y0063*
X00473Y00629*
X00473Y00625D02*
X00492Y00551D01*
X00197Y00433D02*
D01*
X00217Y00452D02*
D01*
X00237Y00472D02*
D01*
X00039Y00439D02*
X00174Y00413D01*
X00239Y00442D02*
X00256Y00472D01*
X00237Y00433D02*
D01*
X00039Y00339D02*
X00224Y00414D01*
X00512Y00632D02*
X00522Y00554D01*
X00522Y00552D02*
X00528Y00374D01*
X00316Y00703D02*
X00383Y00445D01*
X00335Y00728D02*
D01*
X00414Y00767D02*
D01*
X00374D02*
X00414D01*
X00374D02*
D01*
X00355Y00748D02*
D01*
X0016Y0058D02*
X00177Y00551D01*
X00149Y00637D02*
X00158Y00674D01*
X00149Y00622D02*
X00158Y00585D01*
X00177Y0059D02*
X00207Y00573D01*
X00232Y00641D02*
X00319Y00529D01*
X00217Y00629D02*
X00236Y00612D01*
X0024Y00609D02*
X0031Y00524D01*
X00217Y0061D02*
X00217D01*
X00197Y00629D02*
Y00629D01*
Y00629D02*
D01*
X00177Y0061D02*
D01*
X00187Y00607D02*
X00217Y0059D01*
X00512Y00433D02*
Y00472D01*
Y00472D02*
Y00551D01*
X00279Y00259D02*
X00466Y00418D01*
X00473Y00433D02*
Y00472D01*
X00453Y00629D02*
X00473Y00474D01*
X0026Y00232D02*
X00275Y00254D01*
X00292Y00244D02*
X00505Y00417D01*
X00492Y00629D02*
X00511Y00556D01*
X00339Y00039D02*
X00525Y00364D01*
X00355Y00705D02*
X00393Y00441D01*
X00239Y00698D02*
X00338Y00537D01*
X00237Y00708D02*
Y00708D01*
X00342Y00528D02*
X00372Y00446D01*
X00333Y00525D02*
X00363Y00443D01*
X00234Y00679D02*
X00329Y00533D01*
X00323Y00521D02*
X00353Y00439D01*
X0023Y00389D02*
X00302Y00414D01*
X00315Y00433D02*
Y00511D01*
X00197Y00708D02*
Y00708D01*
X00187Y00264D02*
X00202Y00224D01*
X00177Y00688D02*
X00177D01*
X00188Y00282D02*
X00223Y00336D01*
X00203Y00224D02*
X0026Y0009D01*
X00243Y00352D02*
X00315Y00377D01*
X00325Y00381D02*
X00355Y00398D01*
X00315D02*
X00345Y00416D01*
X00039Y00239D02*
X00197Y0038D01*
X00221Y00396D02*
X00264Y00415D01*
X00266Y00416D02*
X00296Y00433D01*
X00067Y00188D02*
X00193Y00361D01*
X00084Y00178D02*
X00164Y00298D01*
X00198Y00352*
X00233Y00379D02*
X00305Y00405D01*
X00172Y00292D02*
X00175Y00297D01*
X00237Y0037D02*
X00309Y00395D01*
X00175Y00297D02*
X00206Y00346D01*
X0018Y00287D02*
X00215Y00341D01*
X0032Y0039D02*
X0035Y00407D01*
X0024Y00361D02*
X00312Y00386D01*
X00335Y00364D02*
X00364Y00381D01*
X00237Y00314D02*
X0024Y00233D01*
X0025Y00333D02*
X00322Y00358D01*
X00384Y00725D02*
X00414Y00708D01*
X0033Y00373D02*
X00351Y00385D01*
X0036Y0039D02*
X0036D01*
X00351Y00385D02*
X0036Y0039D01*
X00424Y00765D02*
X00453Y00748D01*
X00225Y0027D02*
X00227Y00316D01*
X00246Y00342D02*
X00318Y00368D01*
X00039Y00139D02*
X0008Y00173D01*
X00166Y00266D02*
X00189Y0009D01*
X00177Y00263D02*
X00225Y0009D01*
X00221Y00232D02*
X00225Y00269D01*
X00243Y00222D02*
X0026Y00192D01*
X0024Y00232D02*
D01*
X00414Y00688D02*
X00492D01*
X00374Y00708D02*
X00404Y00691D01*
X0051Y00699D02*
X00595Y00863D01*
X00599Y00881D02*
Y00925D01*
X00579Y01066D02*
X00599Y0093D01*
X00539Y01139D02*
X00573Y01081D01*
X00374Y00748D02*
X00404Y0073D01*
X00414Y00728D02*
X00492D01*
X00589Y00881D02*
Y00925D01*
X00509Y00738D02*
X00585Y00866D01*
X00539Y0106D02*
X00573Y01002D01*
X00579Y00988D02*
X00589Y0093D01*
X00492Y00748D02*
X00576Y0087D01*
X00579Y00881D02*
Y00925D01*
X00539Y00981D02*
X00575Y00936D01*
X00318Y00413D02*
X00335Y00433D01*
X00318Y00413D02*
D01*
X00177Y00649D02*
X00178D01*
X00177D02*
X00177D01*
X00197Y00669D02*
D01*
X00256Y00433D02*
X00273Y00462D01*
X00395Y00828D02*
Y00801D01*
Y00815D02*
X00398Y00818D01*
X004Y00819*
X00404*
X00407Y00818*
X00409Y00815*
X00411Y00811*
Y00809*
X00409Y00805*
X00407Y00802*
X00404Y00801*
X004*
X00398Y00802*
X00395Y00805*
X00417Y00811D02*
X00432D01*
Y00814*
X00431Y00816*
X0043Y00818*
X00427Y00819*
X00423*
X00421Y00818*
X00418Y00815*
X00417Y00811*
Y00809*
X00418Y00805*
X00421Y00802*
X00423Y00801*
X00427*
X0043Y00802*
X00432Y00805*
X00218Y01048D02*
Y0103D01*
Y01044D02*
X00216Y01047D01*
X00213Y01048*
X00209*
X00207Y01047*
X00204Y01044*
X00203Y0104*
Y01038*
X00204Y01034*
X00207Y01031*
X00209Y0103*
X00213*
X00216Y01031*
X00218Y01034*
X00226Y01048D02*
Y0103D01*
Y0104D02*
X00227Y01044D01*
X0023Y01047*
X00232Y01048*
X00236*
X00239Y0104D02*
X00255D01*
Y01043*
X00253Y01045*
X00252Y01047*
X00249Y01048*
X00245*
X00243Y01047*
X0024Y01044*
X00239Y0104*
Y01038*
X0024Y01034*
X00243Y01031*
X00245Y0103*
X00249*
X00252Y01031*
X00255Y01034*
X00245Y00989D02*
Y00961D01*
Y00985D02*
X00247Y00988D01*
X0025Y00989*
X00254*
X00257Y00988*
X00259Y00985*
X0026Y00981*
Y00979*
X00259Y00975*
X00257Y00972*
X00254Y00971*
X0025*
X00247Y00972*
X00245Y00975*
X00266Y00981D02*
X00282D01*
Y00984*
X00281Y00986*
X00279Y00988*
X00277Y00989*
X00273*
X0027Y00988*
X00268Y00985*
X00266Y00981*
Y00979*
X00268Y00975*
X0027Y00972*
X00273Y00971*
X00277*
X00279Y00972*
X00282Y00975*
X00295Y00989D02*
X00292Y00988D01*
X00289Y00985*
X00288Y00981*
Y00979*
X00289Y00975*
X00292Y00972*
X00295Y00971*
X00299*
X00301Y00972*
X00304Y00975*
X00305Y00979*
Y00981*
X00304Y00985*
X00301Y00988*
X00299Y00989*
X00295*
X00311D02*
Y00961D01*
Y00985D02*
X00314Y00988D01*
X00316Y00989*
X0032*
X00323Y00988*
X00326Y00985*
X00327Y00981*
Y00979*
X00326Y00975*
X00323Y00972*
X0032Y00971*
X00316*
X00314Y00972*
X00311Y00975*
X00333Y00998D02*
Y00971D01*
X00339Y00981D02*
X00354D01*
Y00984*
X00353Y00986*
X00352Y00988*
X00349Y00989*
X00345*
X00342Y00988*
X0034Y00985*
X00339Y00981*
Y00979*
X0034Y00975*
X00342Y00972*
X00345Y00971*
X00349*
X00352Y00972*
X00354Y00975*
X00553Y00528D02*
X00551Y00525D01*
X0055Y00521*
Y00516*
X00551Y00512*
X00553Y00509*
X00556*
X00559Y00511*
X0056Y00512*
X00561Y00515*
X00564Y00523*
X00565Y00525*
X00567Y00526*
X00569Y00528*
X00573*
X00576Y00525*
X00577Y00521*
Y00516*
X00576Y00512*
X00573Y00509*
X00559Y0055D02*
X00577D01*
X00563D02*
X0056Y00547D01*
X00559Y00544*
Y00541*
X0056Y00538*
X00563Y00535*
X00567Y00534*
X00569*
X00573Y00535*
X00576Y00538*
X00577Y00541*
Y00544*
X00576Y00547*
X00573Y0055*
X0055Y00557D02*
X00577D01*
X00559Y0057D02*
X00572Y00557D01*
X00567Y00562D02*
X00577Y00571D01*
X00559Y00576D02*
X00572D01*
X00576Y00577*
X00577Y0058*
Y00584*
X00576Y00586*
X00572Y0059*
X00559D02*
X00577D01*
X00559Y00597D02*
X00577D01*
X00567D02*
X00563Y00599D01*
X0056Y00601*
X00559Y00604*
Y00608*
Y00626D02*
X00577D01*
X00563D02*
X0056Y00624D01*
X00559Y00621*
Y00617*
X0056Y00614*
X00563Y00612*
X00567Y0061*
X00569*
X00573Y00612*
X00576Y00614*
X00577Y00617*
Y00621*
X00576Y00624*
X00573Y00626*
X0055Y00655D02*
X00577D01*
X0055Y00674D02*
X00577D01*
X00563Y00655D02*
Y00674D01*
X00559Y00697D02*
X00577D01*
X00563D02*
X0056Y00694D01*
X00559Y00692*
Y00688*
X0056Y00685*
X00563Y00682*
X00567Y00681*
X00569*
X00573Y00682*
X00576Y00685*
X00577Y00688*
Y00692*
X00576Y00694*
X00573Y00697*
X0055Y00704D02*
X00577D01*
X0055Y0071D02*
X00577D01*
X0055Y00098D02*
X00577D01*
X0055D02*
X00577Y00109D01*
X0055Y00119D02*
X00577Y00109D01*
X0055Y00119D02*
X00577D01*
X00565Y00127D02*
Y00151D01*
X00555Y00159D02*
X00553Y00161D01*
X0055Y00165*
X00577*
X0055Y00187D02*
X00551Y00183D01*
X00555Y0018*
X00561Y00179*
X00565*
X00572Y0018*
X00576Y00183*
X00577Y00187*
Y00189*
X00576Y00193*
X00572Y00196*
X00565Y00197*
X00561*
X00555Y00196*
X00551Y00193*
X0055Y00189*
Y00187*
Y00211D02*
X00551Y00207D01*
X00555Y00205*
X00561Y00204*
X00565*
X00572Y00205*
X00576Y00207*
X00577Y00211*
Y00214*
X00576Y00218*
X00572Y00221*
X00565Y00222*
X00561*
X00555Y00221*
X00551Y00218*
X0055Y00214*
Y00211*
Y00231D02*
Y00245D01*
X0056Y00237*
Y00241*
X00561Y00244*
X00563Y00245*
X00567Y00246*
X00569*
X00573Y00245*
X00576Y00242*
X00577Y00239*
Y00235*
X00576Y00231*
X00574Y00229*
X00572Y00228*
X0055Y00268D02*
Y00255D01*
X00561Y00254*
X0056Y00255*
X00559Y00259*
Y00263*
X0056Y00267*
X00563Y0027*
X00567Y00271*
X00569*
X00573Y0027*
X00576Y00267*
X00577Y00263*
Y00259*
X00576Y00255*
X00574Y00254*
X00572Y00253*
X00124Y01123D02*
X0013Y01104D01*
X00135Y01123D02*
X0013Y01104D01*
X00135Y01123D02*
X0014Y01104D01*
X00145Y01123D02*
X0014Y01104D01*
X00152Y01115D02*
X00168D01*
Y01118*
X00166Y0112*
X00165Y01122*
X00162Y01123*
X00158*
X00156Y01122*
X00153Y01119*
X00152Y01115*
Y01112*
X00153Y01108*
X00156Y01106*
X00158Y01104*
X00162*
X00165Y01106*
X00168Y01108*
X00339Y00828D02*
Y00806D01*
X0034Y00802*
X00343Y00801*
X00345*
X00335Y00819D02*
X00344D01*
X00356D02*
X00353Y00818D01*
X00351Y00815*
X00349Y00811*
Y00809*
X00351Y00805*
X00353Y00802*
X00356Y00801*
X0036*
X00362Y00802*
X00365Y00805*
X00366Y00809*
Y00811*
X00365Y00815*
X00362Y00818*
X0036Y00819*
X00356*
X00211Y00921D02*
X00216Y00902D01*
X00222Y00921D02*
X00216Y00902D01*
X00222Y00921D02*
X00227Y00902D01*
X00232Y00921D02*
X00227Y00902D01*
X00241Y0093D02*
X00243Y00929D01*
X00244Y0093*
X00243Y00931*
X00241Y0093*
X00243Y00921D02*
Y00902D01*
X00253Y0093D02*
Y00908D01*
X00254Y00904*
X00257Y00902*
X00259*
X00249Y00921D02*
X00258D01*
X00263Y0093D02*
Y00902D01*
Y00916D02*
X00267Y00919D01*
X0027Y00921*
X00274*
X00276Y00919*
X00278Y00916*
Y00902*
X00202Y00863D02*
Y00835D01*
Y00859D02*
X00205Y00862D01*
X00207Y00863*
X00211*
X00214Y00862*
X00217Y00859*
X00218Y00855*
Y00853*
X00217Y00849*
X00214Y00846*
X00211Y00845*
X00207*
X00205Y00846*
X00202Y00849*
X00224Y00872D02*
Y00845D01*
X00245Y00863D02*
Y00845D01*
Y00859D02*
X00243Y00862D01*
X0024Y00863*
X00236*
X00233Y00862*
X00231Y00859*
X00229Y00855*
Y00853*
X00231Y00849*
X00233Y00846*
X00236Y00845*
X0024*
X00243Y00846*
X00245Y00849*
X00268Y00859D02*
X00266Y00862D01*
X00263Y00863*
X00259*
X00257Y00862*
X00254Y00859*
X00253Y00855*
Y00853*
X00254Y00849*
X00257Y00846*
X00259Y00845*
X00263*
X00266Y00846*
X00268Y00849*
X00274Y00855D02*
X0029D01*
Y00858*
X00289Y0086*
X00287Y00862*
X00285Y00863*
X00281*
X00278Y00862*
X00276Y00859*
X00274Y00855*
Y00853*
X00276Y00849*
X00278Y00846*
X00281Y00845*
X00285*
X00287Y00846*
X0029Y00849*
X0031Y00859D02*
X00309Y00862D01*
X00305Y00863*
X00301*
X00297Y00862*
X00296Y00859*
X00297Y00856*
X003Y00855*
X00306Y00854*
X00309Y00853*
X0031Y0085*
Y00849*
X00309Y00846*
X00305Y00845*
X00301*
X00297Y00846*
X00296Y00849*
G54D52*
X00599Y01259D02*
D01*
X00598Y01259*
X00598Y01259*
X00598Y01259*
X00598Y01258*
X00598Y01258*
X00544Y01194D02*
D01*
X00547Y01194*
X0055Y01195*
X00553Y01196*
X00556Y01197*
X00559Y01198*
X00562Y012*
X00564Y01202*
X00567Y01203*
X00569Y01205*
X00572Y01208*
X00574Y0121*
X00576Y01213*
X00577Y01215*
X00579Y01218*
X0058Y0122*
X00455Y01184D02*
D01*
X00452Y01183*
X00449Y01183*
X00446Y01182*
X00443Y01181*
X0044Y01179*
X00437Y01178*
X00435Y01176*
X00432Y01174*
X0043Y01172*
X00427Y0117*
X00425Y01168*
X00423Y01165*
X00422Y01163*
X0042Y0116*
X00419Y01157*
X00418Y01154*
X00417Y01151*
X00416Y01148*
X00415Y01145*
X00415Y01142*
X00415Y01139*
Y00981D02*
D01*
X00415Y00981*
X00415Y00981*
X00415Y0098*
X00415Y0098*
X00415Y00979*
X00415Y00979*
X00415Y00979D02*
D01*
X00415Y00979*
X00415Y00979*
X00415Y00979*
X00415Y00979*
X00415Y00979*
X00156Y00942D02*
D01*
X00155Y00941*
X00154Y00939*
X00153Y00938*
X00152Y00936*
X00151Y00935*
X0015Y00933*
X0015Y00931*
X00149Y0093*
X00149Y00929*
X00134Y00834D02*
D01*
X00133Y00833*
X00133Y00831*
X00133Y00829*
X00133Y00827*
X00133Y00827*
X00415Y00903D02*
D01*
X00415Y009*
X00415Y00896*
X00416Y00893*
X00417Y0089*
X00418Y00887*
X00418Y00886*
X0047Y00858D02*
D01*
X00473Y00859*
X00476Y0086*
X00479Y00861*
X00482Y00863*
X00484Y00864*
X00486Y00866*
X0035Y01062D02*
D01*
X00351Y01064*
X00351Y01065*
X00351Y01067*
X00352Y01069*
X00352Y0107*
X00352Y01072*
X00351Y01074*
X00351Y01075*
X00351Y01077*
X0035Y01079*
X0035Y0108*
X00349Y01082*
X00348Y01083*
X00347Y01085*
X00346Y01086*
X00343Y01052D02*
D01*
X00344Y01053*
X00346Y01054*
X00347Y01056*
X00348Y01057*
X00349Y01058*
X00349Y0106*
X0035Y01061*
X0035Y01062*
X00473Y01339D02*
D01*
X00475Y01339*
X00478Y01339*
X0048Y0134*
X00482Y0134*
X00485Y01341*
X00487Y01342*
X00489Y01343*
X00491Y01344*
X00494Y01346*
X00494Y01346*
X0027Y01204D02*
D01*
X00269Y01202*
X00268Y012*
X00268Y01199*
X00267Y01197*
X00267Y01195*
X00267Y01194*
X00267Y01192*
X00267Y0119*
X00267Y01189*
X00268Y01187*
X00268Y01185*
X00269Y01184*
X00269Y01182*
X0027Y01181*
X00271Y01179*
X00272Y01178*
X00273Y01177*
X0047Y00858D02*
D01*
X00473Y00859*
X00476Y0086*
X00479Y00861*
X00482Y00863*
X00484Y00864*
X00486Y00866*
X0058Y0122D02*
X00598Y01258D01*
X00455Y01184D02*
X00544Y01194D01*
X00415Y00981D02*
Y01139D01*
X00415Y00979D02*
Y00979D01*
X00134Y00834D02*
X00149Y00929D01*
X00415Y0096D02*
X00415Y00979D01*
X0035Y01062D02*
X0035D01*
X00319Y01031D02*
X00343Y01052D01*
X00494Y01346D02*
X0054Y01381D01*
X00339Y01339D02*
X00473Y01339D01*
X0027Y01204D02*
X00339Y01339D01*
X00273Y01177D02*
X00346Y01086D01*
X00205Y01339D02*
X00339D01*
X00082D02*
X00205D01*
X00039D02*
X00082D01*
G54D60*
X00039Y00439D03*
Y00139D03*
Y00239D03*
Y01339D03*
Y00339D03*
X00539Y01139D03*
X00339Y00039D03*
X00539Y0106D03*
Y00981D03*
G54D61*
X00039Y01239D03*
X00639Y01339D03*
X00539Y00903D03*
G54D62*
X00239Y00039D03*
G54D65*
X00174Y01066D03*
Y0096D03*
X00477Y00232D03*
X00319Y01031D03*
X0026Y0009D03*
X00225D03*
X00189D03*
X00067Y00188D03*
X00292Y00244D03*
X0026Y00232D03*
X00256Y01248D03*
X0054Y01381D03*
X00138Y00787D03*
X00199Y01131D03*
X00063Y00489D03*
Y00389D03*
X0026Y00192D03*
X00221Y00232D03*
X00453Y00748D03*
X00492D03*
X00374D03*
Y00708D03*
X00414D03*
X00453Y00629D03*
X00492D03*
X00217D03*
Y0059D03*
X00177D03*
X00492Y00551D03*
X00177D03*
X00256Y00472D03*
X00335Y00433D03*
X00296D03*
X00256D03*
G54D66*
X0019Y00059D02*
X00218D01*
X0026D02*
X00288D01*
M02*