%FSTAX23Y23*%
%MOIN*%
%SFA1B1*%

%IPPOS*%
%ADD10C,0.007870*%
%ADD11C,0.005910*%
%LNcs_ranka-1*%
%LPD*%
G54D10*
X0038Y00106D02*
X00406D01*
X00256Y0095D02*
Y00976D01*
X0065Y01397D02*
Y01417D01*
X00028Y01397D02*
Y01417D01*
G54D11*
X00575Y00057D02*
Y00092D01*
X00563Y00068D02*
X00575Y00057D01*
X00587Y00068*
X00461Y0008D02*
X00473Y00092D01*
X00485Y0008*
X00473Y00057D02*
Y00092D01*
X00079Y00689D02*
X00058Y00704D01*
Y00682*
X00079Y00689D02*
X00048D01*
X00072Y00902D02*
X00073D01*
X00076Y00901*
X00078Y00899*
X00079Y00896*
Y0089*
X00078Y00887*
X00076Y00886*
X00073Y00884*
X0007*
X00067Y00886*
X00063Y00889*
X00048Y00904*
Y00883*
X00079Y01183D02*
X00055D01*
X00051Y01185*
X00049Y01186*
X00048Y01189*
Y01194*
X00049Y01197*
X00075Y01183D02*
X00078Y01186D01*
X00079Y01189*
Y01194*
X00078Y01197*
X00075Y012*
X0007Y01201*
X00067*
X00063Y012*
X0006Y01197*
X00058Y01194*
Y01189*
X0006Y01186*
X00063Y01183*
X00581Y00144D02*
X0058Y00147D01*
X00575Y00151*
X00607*
X0058Y00185D02*
X00577Y00183D01*
X00575Y00179*
Y00176*
X00577Y00171*
X00581Y00168*
X00589Y00167*
X00596*
X00602Y00168*
X00605Y00171*
X00607Y00176*
Y00177*
X00605Y00182*
X00602Y00185*
X00598Y00186*
X00596*
X00592Y00185*
X00589Y00182*
X00587Y00177*
Y00176*
X00589Y00171*
X00592Y00168*
X00596Y00167*
X00079Y00296D02*
X00078Y00301D01*
X00075Y00302*
X00072*
X00069Y00301*
X00067Y00298*
X00066Y00292*
X00064Y00287*
X00061Y00284*
X00058Y00283*
X00054*
X00051Y00284*
X00049Y00286*
X00048Y0029*
Y00296*
X00049Y00301*
X00051Y00302*
X00054Y00304*
X00058*
X00061Y00302*
X00064Y00299*
X00066Y00295*
X00067Y00289*
X00069Y00286*
X00072Y00284*
X00075*
X00078Y00286*
X00079Y0029*
Y00296*
Y00383D02*
X00048Y00398D01*
X00079Y00404D02*
Y00383D01*
X00593Y00462D02*
X00591Y00465D01*
X00587Y00469*
X00618*
X00587Y00492D02*
X00588Y00488D01*
X00591Y00486*
X00594*
X00597Y00488*
X00599Y00491*
X006Y00497*
X00602Y00501*
X00605Y00504*
X00608Y00506*
X00612*
X00615Y00504*
X00617Y00503*
X00618Y00498*
Y00492*
X00617Y00488*
X00615Y00486*
X00612Y00485*
X00608*
X00605Y00486*
X00602Y00489*
X006Y00494*
X00599Y005*
X00597Y00503*
X00594Y00504*
X00591*
X00588Y00503*
X00587Y00498*
Y00492*
X00589Y00861D02*
X00587D01*
X00584Y00863*
X00583Y00864*
X00581Y00867*
Y00873*
X00583Y00876*
X00584Y00878*
X00587Y00879*
X0059*
X00593Y00878*
X00598Y00875*
X00612Y0086*
Y00881*
X00589Y00889D02*
X00587D01*
X00584Y00891*
X00583Y00892*
X00581Y00895*
Y00901*
X00583Y00904*
X00584Y00906*
X00587Y00907*
X0059*
X00593Y00906*
X00598Y00903*
X00612Y00888*
Y00909*
X00493Y01109D02*
X00507Y01094D01*
X00499Y01103D02*
X00497Y01107D01*
Y01111*
X00498Y01114*
X00501Y01117*
X00168Y01213D02*
Y01192D01*
Y01207D02*
X00172Y01212D01*
X00175Y01213*
X0018*
X00183Y01212*
X00184Y01207*
Y01192*
X00192Y01213D02*
Y01192D01*
Y01204D02*
X00194Y01209D01*
X00197Y01212*
X002Y01213*
X00204*
X00224Y01209D02*
X00222Y01212D01*
X00218Y01213*
X00213*
X00209Y01212*
X00207Y01209*
X00209Y01206*
X00212Y01204*
X00219Y01203*
X00222Y01201*
X00224Y01198*
Y01197*
X00222Y01194*
X00218Y01192*
X00213*
X00209Y01194*
X00207Y01197*
X00235Y01224D02*
Y01198D01*
X00236Y01194*
X00239Y01192*
X00242*
X0023Y01213D02*
X00241D01*
X00492Y00883D02*
X00509Y00866D01*
X00511Y00862*
Y0086*
X0051Y00857*
X00506Y00853*
X00503Y00852*
X00495Y0088D02*
X00491D01*
X00487Y00879*
X00484Y00876*
X00483Y00873*
Y00868*
X00485Y00864*
X00487Y00862*
X00492Y0086*
X00496*
X00499Y00861*
X00502Y00864*
X00503Y00867*
Y00871*
X00073Y00997D02*
X00075Y00994D01*
X00079Y00989*
X00048*
X00581Y00247D02*
X0058Y0025D01*
X00575Y00254*
X00607*
X00575Y00291D02*
X00607Y00276D01*
X00575Y0027D02*
Y00291D01*
X00589Y0116D02*
X00587D01*
X00584Y01162*
X00583Y01163*
X00581Y01166*
Y01172*
X00583Y01175*
X00584Y01177*
X00587Y01178*
X0059*
X00593Y01177*
X00598Y01174*
X00612Y01159*
Y0118*
X00581Y01205D02*
Y0119D01*
X00595Y01188*
X00593Y0119*
X00592Y01194*
Y01199*
X00593Y01203*
X00596Y01206*
X00601Y01208*
X00604*
X00608Y01206*
X00611Y01203*
X00612Y01199*
Y01194*
X00611Y0119*
X00609Y01188*
X00606Y01187*
X00589Y01062D02*
X00587D01*
X00584Y01064*
X00583Y01065*
X00581Y01068*
Y01074*
X00583Y01077*
X00584Y01079*
X00587Y0108*
X0059*
X00593Y01079*
X00598Y01076*
X00612Y01061*
Y01082*
X00581Y01104D02*
X00602Y01089D01*
Y01111*
X00581Y01104D02*
X00612D01*
X0017Y00742D02*
X00173Y00743D01*
X00177Y00748*
Y00716*
X00157Y00085D02*
X00166Y00064D01*
X00175Y00085D02*
X00166Y00064D01*
X00412Y00867D02*
X00433Y00858D01*
X00424Y00879D02*
X00433Y00858D01*
X00077Y01298D02*
X0005D01*
X00063Y01311D02*
Y01284D01*
X00079Y00586D02*
Y00601D01*
X00066Y00602*
X00067Y00601*
X00069Y00596*
Y00592*
X00067Y00587*
X00064Y00584*
X0006Y00583*
X00057*
X00052Y00584*
X00049Y00587*
X00048Y00592*
Y00596*
X00049Y00601*
X00051Y00602*
X00054Y00604*
X00412Y01035D02*
X00434Y01013D01*
X00423Y01024D02*
X00419D01*
X00415Y01023*
X00412Y0102*
X00411Y01017*
Y01013*
X00413Y01008*
X00415Y01006*
X0042Y01004*
X00424*
X00427Y01005*
X0043Y01008*
X00431Y01012*
Y01016*
X0042Y01043D02*
X00422D01*
Y01045*
X0042*
Y01043*
X00429Y01037D02*
X00444Y01022D01*
X00482Y01035D02*
X00504Y01012D01*
X00492Y01024D02*
X00488D01*
X00485Y01023*
X00482Y0102*
X00481Y01017*
Y01012*
X00483Y01008*
X00485Y01006*
X00489Y01004*
X00493*
X00497Y01005*
X005Y01008*
X00501Y01011*
Y01016*
X005Y01039D02*
X00499Y01035D01*
Y01031*
X00501Y01027*
X00504Y01025*
X00508Y01023*
X00512*
X00515Y01024*
X00518Y01027*
X00519Y0103*
Y01034*
X00517Y01039*
X00515Y01041*
X00511Y01043*
X00507*
X00504Y01042*
X005Y01039*
X00094Y00111D02*
X00093Y00107D01*
Y00101*
X0007Y00123*
X00075Y00084D02*
X00077Y00088D01*
X00076Y00093*
X00072Y001*
X00069Y00103*
X00062Y00107*
X00057Y00108*
X00053Y00106*
X00051Y00104*
X00049Y001*
X0005Y00094*
X00054Y00088*
X00057Y00085*
X00064Y0008*
X00069Y00079*
X00073Y00082*
X00075Y00084*
X00069Y00183D02*
X00064Y00185D01*
X00061Y00188*
X0006Y00192*
Y00194*
X00061Y00198*
X00064Y00201*
X00069Y00203*
X0007*
X00075Y00201*
X00078Y00198*
X00079Y00194*
Y00192*
X00078Y00188*
X00075Y00185*
X00069Y00183*
X00061*
X00054Y00185*
X00049Y00188*
X00048Y00192*
Y00195*
X00049Y002*
X00052Y00201*
X00571Y01343D02*
X00595D01*
X006Y01342*
X00601Y0134*
X00603Y01337*
Y01333*
X00601Y0133*
X00576Y01343D02*
X00573Y0134D01*
X00571Y01337*
Y01333*
X00573Y0133*
X00576Y01327*
X0058Y01325*
X00583*
X00588Y01327*
X00591Y0133*
X00592Y01333*
Y01337*
X00591Y0134*
X00588Y01343*
X00432Y01213D02*
X00441Y01192D01*
X0045Y01213D02*
X00441Y01192D01*
X00455Y01213D02*
Y01198D01*
X00457Y01194*
X0046Y01192*
X00464*
X00467Y01194*
X00472Y01198*
Y01213D02*
Y01192D01*
X00497Y01209D02*
X00495Y01212D01*
X00491Y01213*
X00486*
X00482Y01212*
X0048Y01209*
X00482Y01206*
X00485Y01204*
X00492Y01203*
X00495Y01201*
X00497Y01198*
Y01197*
X00495Y01194*
X00491Y01192*
X00486*
X00482Y01194*
X0048Y01197*
X00503Y01224D02*
Y01192D01*
Y01209D02*
X00506Y01212D01*
X00509Y01213*
X00514*
X00517Y01212*
X0052Y01209*
X00521Y01204*
Y01201*
X0052Y01197*
X00517Y01194*
X00514Y01192*
X00509*
X00506Y01194*
X00503Y01197*
X00589Y00964D02*
X00587D01*
X00584Y00965*
X00583Y00967*
X00581Y0097*
Y00976*
X00583Y00979*
X00584Y0098*
X00587Y00982*
X0059*
X00593Y0098*
X00598Y00977*
X00612Y00962*
Y00983*
X00581Y00993D02*
Y0101D01*
X00593Y01001*
Y01005*
X00595Y01008*
X00596Y0101*
X00601Y01011*
X00604*
X00608Y0101*
X00611Y01007*
X00612Y01002*
Y00998*
X00611Y00993*
X00609Y00992*
X00606Y0099*
X00289Y0009D02*
Y00066D01*
X00287Y00062*
X00286Y0006*
X00283Y00059*
X00278*
X00275Y0006*
X00289Y00086D02*
X00286Y00089D01*
X00283Y0009*
X00278*
X00275Y00089*
X00272Y00086*
X00271Y00081*
Y00078*
X00272Y00074*
X00275Y00071*
X00278Y00069*
X00283*
X00286Y00071*
X00289Y00074*
X00593Y00562D02*
X00591Y00565D01*
X00587Y0057*
X00618*
X00597Y00605D02*
X00602Y00604D01*
X00605Y00601*
X00606Y00596*
Y00595*
X00605Y0059*
X00602Y00587*
X00597Y00586*
X00596*
X00591Y00587*
X00588Y0059*
X00587Y00595*
Y00596*
X00588Y00601*
X00591Y00604*
X00597Y00605*
X00605*
X00612Y00604*
X00617Y00601*
X00618Y00596*
Y00593*
X00617Y00589*
X00614Y00587*
X00592Y00771D02*
X00591D01*
X00588Y00773*
X00586Y00774*
X00585Y00777*
Y00783*
X00586Y00786*
X00588Y00788*
X00591Y00789*
X00594*
X00597Y00788*
X00601Y00785*
X00616Y0077*
Y00791*
X00591Y00798D02*
X00589Y00801D01*
X00585Y00805*
X00616*
X00075Y00485D02*
X00078Y00486D01*
X00079Y00491*
Y00494*
X00078Y00498*
X00073Y00501*
X00066Y00503*
X00058*
X00052Y00501*
X00049Y00498*
X00048Y00494*
Y00492*
X00049Y00488*
X00052Y00485*
X00057Y00483*
X00058*
X00063Y00485*
X00066Y00488*
X00067Y00492*
Y00494*
X00066Y00498*
X00063Y00501*
X00058Y00503*
X0058Y01242D02*
X00601Y01251D01*
X0058Y0126D02*
X00601Y01251D01*
X00476Y00949D02*
X00478D01*
Y00951*
X00476*
Y00949*
X00484Y00943D02*
X00499Y00928D01*
X00495Y00953D02*
X00494Y0095D01*
Y00946*
X00496Y00941*
X00498Y00939*
X00502Y00937*
X00506*
X00509Y00938*
X00513Y00941*
X00514Y00944*
Y00949*
X00512Y00953*
X00509Y00955*
X00505Y00957*
X00501*
X00498Y00956*
X00495Y00953*
X00596Y00663D02*
X00595D01*
X00592Y00664*
X0059Y00666*
X00589Y00669*
Y00675*
X0059Y00678*
X00592Y00679*
X00595Y00681*
X00598*
X00601Y00679*
X00605Y00676*
X0062Y00661*
Y00682*
X00589Y00698D02*
X0059Y00694D01*
X00595Y00691*
X00602Y00689*
X00607*
X00614Y00691*
X00619Y00694*
X0062Y00698*
Y00701*
X00619Y00706*
X00614Y00709*
X00607Y0071*
X00602*
X00595Y00709*
X0059Y00706*
X00589Y00701*
Y00698*
X00581Y00347D02*
X0058Y0035D01*
X00575Y00354*
X00607*
X00575Y00377D02*
X00577Y00373D01*
X0058Y00371*
X00583*
X00586Y00373*
X00587Y00376*
X00589Y00382*
X0059Y00386*
X00593Y00389*
X00596Y00391*
X00601*
X00604Y00389*
X00605Y00388*
X00607Y00383*
Y00377*
X00605Y00373*
X00604Y00371*
X00601Y0037*
X00596*
X00593Y00371*
X0059Y00374*
X00589Y00379*
X00587Y00385*
X00586Y00388*
X00583Y00389*
X0058*
X00577Y00388*
X00575Y00383*
Y00377*
X00356Y00084D02*
X00359Y00086D01*
X00364Y0009*
Y00059*
X00381Y00083D02*
Y00084D01*
X00382Y00087*
X00384Y00089*
X00387Y0009*
X00393*
X00396Y00089*
X00397Y00087*
X00399Y00084*
Y00081*
X00397Y00078*
X00394Y00074*
X00379Y00059*
X004*
X00415Y00939D02*
X00411D01*
X00408Y00938*
X00405Y00935*
X00404Y00932*
Y00927*
X00406Y00923*
X00408Y00921*
X00412Y00919*
X00416*
X00419Y0092*
X00423Y00923*
X00424Y00926*
Y00931*
X00409Y00954D02*
X00432Y00932D01*
X00427Y00958D02*
Y00936D01*
Y00945D02*
X00443Y00944D01*
X00404Y01115D02*
X00426Y01092D01*
X00415Y01104D02*
Y01108D01*
X00416Y01111*
X00419Y01115*
X00422Y01116*
X00426*
X00431Y01113*
X00433Y01111*
X00435Y01107*
Y01103*
X00434Y011*
X00431Y01096*
X00427Y01095*
X00423*
X0007Y01107D02*
X00049Y01098D01*
X0007Y01089D02*
X00049Y01098D01*
X00079Y00801D02*
Y00784D01*
X00067Y00793*
Y00789*
X00066Y00786*
X00064Y00784*
X0006Y00783*
X00057*
X00052Y00784*
X00049Y00787*
X00048Y00792*
Y00796*
X00049Y00801*
X00051Y00802*
X00054Y00804*
M02*